<svg xmlns="http://www.w3.org/2000/svg" viewBox="0 0 1920 1080"><defs><style>.cls-1,.cls-3{fill:#fff;}.cls-2{fill:none;stroke:#0071bc;stroke-width:7px;}.cls-2,.cls-3{stroke-miterlimit:10;}.cls-3{stroke:#000;stroke-width:10px;}</style></defs><title>sinosc</title><g id="_03_SinOsc" data-name="03_SinOsc"><rect class="cls-1" x="73.56" y="55.39" width="1772.89" height="965.83"/><g id="Layer_34" data-name="Layer 34"><path d="M147.82,249.24c-.7,1.6-2.2,2.6-4.6,3-5.1,1-4.8,3.6.4,3.6h4v25h5v-17c0-15.8-.1-17-1.8-17A3.93,3.93,0,0,0,147.82,249.24Z"/><path d="M182.82,248.44c-4,2.8-5.6,7.3-5.6,15.9,0,12,3.7,17.5,11.7,17.5,8.9,0,14.3-13.2,10.7-26.2C197.52,248.24,188.62,244.34,182.82,248.44Zm8.8,3.4c5.3,2.8,5.2,22.2-.1,25.1a7.39,7.39,0,0,1-4.4.5c-5.6-1.4-7.2-17.9-2.3-24.1C186.92,250.64,188.72,250.24,191.62,251.84Z"/><path d="M234.62,513.34v241.5l766.2.2,766.2.3-19.5,10.5-19.6,10.5,2.1,4.3c1.6,3.3,2.5,4.2,3.9,3.8,2.7-.7,60.7-32,60.7-32.7s-60.4-38.9-61.4-38.9c-.8,0-6,8-5.5,8.4.2.2,8.7,5.6,18.8,12l18.5,11.6h-148.6l4.5-5c19.2-22,46.4-94,73-193.8l2.5-9.3-2.6-1a8,8,0,0,0-3.7-.6c-.6.3-2.1,4.7-3.4,9.8-5,19.7-17.3,61.7-24.7,84.1-21.8,66.5-39,102.5-53.8,112.7-4.2,2.9-5,3.1-13.9,3.1-9.4,0-9.5,0-15.3-3.9-11.9-8-23.8-22.5-36.1-44-19.3-33.5-59-126-99.8-232.5-19.9-52-52.1-111.5-69.9-129.2-20-19.9-35.7-22.5-51.2-8.2-6.2,5.7-20.3,24.6-25.3,33.9-13.5,25.2-37.1,97.2-63,192.6-16.3,59.9-33.5,111.3-48.1,143.4-10.5,23.1-19.4,36.4-28.1,42-14.2,9.1-29.5,2.2-49-22.1-11.2-13.9-22.9-35.9-45.1-85-18.7-41.1-37.6-87.3-72-176-13.3-34.3-36.2-79.5-54.2-107-9.7-14.7-22.1-26.6-33.1-31.6-11.4-5.3-21.7-3.1-32.1,6.8-5.8,5.5-16.8,19.6-22.4,28.7-13.7,22.2-37.1,92.7-65.6,197.6-25.8,94.7-52.1,162.2-70.4,180.5-4.8,4.8-13,9-17.7,9-9.5,0-21.9-7.9-32.7-21-15.6-18.7-24-34-49.4-90.1-19.1-42.1-36.4-84.4-72.4-176.9-13.3-34.2-36-78.9-54.3-107-7.9-12.2-21.6-25.5-31.2-30.2-5.6-2.7-7.9-3.3-13.3-3.3-7.8.1-12.8,2.4-20.3,9.3s-21.9,26.9-27,37.5c-12.3,25.3-28.3,73.1-51.2,152.7-21.6,75.1-51.6,164.4-64.6,191.9a109.93,109.93,0,0,1-8.7,15.5c-2.1,2.8-5.1,6.9-6.7,9.1-5.6,7.7-12.1,12.5-16.7,12.5h-2.8v-468h-10Zm218.7-191.9c8.2,4,20,15.8,28.1,28.2,19.3,29.7,39.5,69.5,54,106.7,38.6,98.9,52.2,132,71.4,174.5,12.1,26.8,24.7,53,29.6,61.8,13.5,23.9,30.9,43.9,43.6,50.2l4.1,2H256.32l4.5-3.5c6-4.5,17.5-20,22.8-30.5,5.2-10.3,14-32.3,21.8-54.5,13.7-39.1,37.7-114.1,45.8-143.5,18-65,39.3-128.6,50.9-152.1,6.1-12.5,20.7-31.9,28.1-37.5C437.82,317.34,443.92,316.94,453.32,321.44Zm451.7,4.4c8.5,5.1,19.1,16.1,26.3,27.2,18.5,28.5,39.8,70.5,53.1,104.8,38.3,98.3,53,134.3,72.8,177.8,21.1,46.4,32.1,67.7,42,81.1,6,8.1,18.5,21.4,23.8,25.3l3.9,2.8H707.42l5.9-4.4c8.1-6,15-15.5,23.7-32.8,16.9-33.5,34.7-85.2,55.1-159.8,25.6-93.3,44.8-152.6,59-182.5,4.3-8.9,16.3-26.3,23.4-33.9a53.06,53.06,0,0,1,8.1-6.8c4-2.6,5.2-2.9,10.6-2.6C898,322.34,900.52,323.14,905,325.84Zm446.8,1.9c6.5,3.1,17.9,13.1,23.5,20.6,17.2,23,44.9,76.8,60.8,118,48.2,125.5,90.9,222.6,109.8,250a211.71,211.71,0,0,0,18.1,21.3l7,7.2h-408.2l5.8-5.9c12.3-12.6,25.6-39.7,41.9-85.3,10.3-28.8,19.4-59,36.6-121.3,20.7-74.7,40.7-135.8,53-162,4.8-10.3,17-27.8,24.9-36C1334.42,324.74,1341.92,322.94,1351.82,327.74Z"/><path d="M166.62,278.84c0,1.5.7,2,2.5,2s2.5-.5,2.5-2-.7-2-2.5-2S166.62,277.34,166.62,278.84Z"/><path d="M152.52,390.34c-5.7,1.5-16.7,7.4-17.4,9.3-1.1,2.9.8,3,6.8.1a50.4,50.4,0,0,1,41.8-.5c7.2,3.1,7.9,3.2,7.9,1.5,0-2.5-7.7-7.3-15.9-9.9A42.58,42.58,0,0,0,152.52,390.34Z"/><path d="M165.12,406.74c-3.4,1.5-5.6,4.7-6.2,9-.5,3.6-.2,4.4,3,7.6,2.7,2.7,4.3,3.5,7.2,3.5s4.5-.8,7.2-3.5c3.2-3.2,3.5-4,3-7.7a12.2,12.2,0,0,0-2.9-6.5C173.82,406.54,168.32,405.34,165.12,406.74Zm7.7,5.8c2,1.8,2.4,6.3.6,8.1-.7.7-2.6,1.2-4.3,1.2-3.7,0-5.5-1.6-5.5-4.9C163.62,411.74,169,409.14,172.82,412.54Z"/><path d="M137.62,419.54c0,1.3,6,5,20.3,12.8,11.1,6,20.7,11.1,21.4,11.3a1,1,0,0,0,1.3-1.1c0-.9-8.5-6.2-21.1-13.1-11.6-6.4-21.2-11.6-21.5-11.6S137.62,418.64,137.62,419.54Z"/><path d="M142.12,438.14c-2.7,2.7-3.5,4.3-3.5,7.2s.8,4.5,3.5,7.2c3.2,3.2,4,3.5,7.7,3,5.9-.8,9.3-4.5,9.3-10.2s-3.4-9.4-9.3-10.2C146.12,434.64,145.32,434.94,142.12,438.14Zm10.7,3.4c2.2,2,2.3,5.1.1,7.5-1.8,2-6.3,2.4-8.1.6-1.6-1.6-1.6-7,0-8.6S150.62,439.54,152.82,441.54Z"/><path d="M135.12,460.84c-1.2,2,1.1,4.1,8.9,8,10.7,5.5,20.6,6.4,31.2,3.1,8.6-2.6,16.4-7.4,16.4-10,0-1.9-.4-1.8-6.2.8q-22.35,10-43.5.1C138.42,461.24,135.42,460.34,135.12,460.84Z"/><path d="M154.72,498.64c-5.2,2.6-7.6,6.5-7.6,12.2,0,5.2,1.9,8.7,6.8,12.4,4.1,3,15.1,3.4,19.5.7,8.8-5.6,9.6-17.7,1.6-24-3.7-2.9-6.4-2.8-6.4.4,0,1.7.9,2.9,2.9,3.9,3.1,1.6,4.1,3.4,4.1,7.1s-1,5.5-4.1,7c-5.7,3-5.9,2.6-5.9-10v-11.5h-3.7A18.21,18.21,0,0,0,154.72,498.64Zm5.9,12.7c0,7.1-.3,8.5-1.6,8.5-2.2,0-7.4-5.5-7.4-7.9,0-3.1,2-6.8,4.4-7.9C160.32,501.94,160.62,502.34,160.62,511.34Z"/><path d="M147.62,534.74v2.9l12.1.4c11.3.3,12.2.5,14,2.7,2.6,3.2,2.5,7.6-.3,9.5-1.7,1.2-5,1.6-14.1,1.6h-11.8l.3,2.7.3,2.8h26.7l2.9-3.3a10.5,10.5,0,0,0,.8-13.6c-1.7-2.1-1.8-2.6-.5-2.6,1.1,0,1.6-.9,1.6-3v-3h-32Z"/><path d="M135.82,568.54l.3,2.8h43l.3-2.8.3-2.7h-44.2Z"/><path d="M175.62,577.34c0,1.2-1.9,1.5-11.5,1.5-10.9,0-11.7.1-14,2.4-4.8,4.8-4.2,16.4,1.2,20.6,5.9,4.7,8.9.2,3.3-5-3.2-2.9-3.6-5.2-2-9.4.7-2,1.7-2.6,3.9-2.6,2.8,0,3,.3,3.6,4.7,1.1,8.4,1.6,10.2,3.6,12.7,3.9,5,12.5,4.1,15.4-1.5,2-3.8,1.9-7.8-.5-12.4-2-3.8-2-3.8,0-5.2a5.58,5.58,0,0,0,2-4.4c0-2.4-.4-2.9-2.5-2.9C176.52,575.84,175.62,576.44,175.62,577.34Zm-3,9.5a10.23,10.23,0,0,1,2.6,9.4c-1.2,5-8.1,4-9.1-1.2-.3-1.5-.9-4.4-1.4-6.5l-.8-3.7h3.3A7.93,7.93,0,0,1,172.62,586.84Z"/><path d="M147.62,611.64c0,2.6.6,2.9,11.5,6.6,6.4,2.1,11.8,4.2,12,4.6s-5,2.4-11.6,4.5l-11.9,3.9v6.5l9.8-3.5c5.3-2,12.4-4.6,15.7-5.7,5.4-2,6-2.5,6.3-5.3l.3-3.1-15.1-5.7c-8.3-3.1-15.5-5.6-16-5.6S147.62,610,147.62,611.64Z"/><path d="M239.62,776.84v12h2.5c2.3,0,2.5-.4,2.5-4v-4h445v4.5c0,4.3.1,4.5,3,4.5h3.1l-.3-11.8-.3-11.7h-2.5c-2.3,0-2.5.4-2.8,4.7l-.3,4.8H244.62v-5.5c0-5.2-.1-5.5-2.5-5.5h-2.5Z"/><path d="M168.82,770.44c-4,2.8-5.6,7.3-5.6,15.9,0,12,3.7,17.5,11.7,17.5,8.9,0,14.3-13.2,10.7-26.2C183.52,770.24,174.62,766.34,168.82,770.44Zm8.8,3.4c5.3,2.8,5.2,22.2-.1,25.1a7.39,7.39,0,0,1-4.4.5c-5.6-1.4-7.2-17.9-2.3-24.1C172.92,772.64,174.72,772.24,177.62,773.84Z"/><path d="M208.82,770.44c-4,2.8-5.6,7.3-5.6,15.9,0,12,3.7,17.5,11.7,17.5,8.9,0,14.3-13.2,10.7-26.2C223.52,770.24,214.62,766.34,208.82,770.44Zm8.8,3.4c5.3,2.8,5.2,22.2-.1,25.1a7.39,7.39,0,0,1-4.4.5c-5.6-1.4-7.2-17.9-2.3-24.1C212.92,772.64,214.72,772.24,217.62,773.84Z"/><path d="M192.62,800.84c0,1.5.7,2,2.5,2s2.5-.5,2.5-2-.7-2-2.5-2S192.62,799.34,192.62,800.84Z"/><path d="M434.62,814.34c0,2.1.5,2.5,3,2.5s3-.4,3-2.5-.5-2.5-3-2.5S434.62,812.24,434.62,814.34Z"/><path d="M501.62,818.84v7.1l-2.2-2.1a8.88,8.88,0,0,0-6.2-2c-8.7,0-14.1,6.7-14,17.5.1,6.7,1.9,11.2,6,14.4,3.6,2.8,10.2,2.8,13.8,0,2.1-1.7,2.6-1.8,2.6-.5,0,1.1.9,1.6,3,1.6h3v-43h-6Zm-2.9,10.9c2.5,2.6,2.9,3.7,2.9,8.8,0,8.6-3.9,13.1-10.1,11.8-3.8-.9-5.9-4.9-5.9-11.4,0-5.9,1.4-9.5,4.4-10.9C493.52,826.24,495.62,826.74,498.72,829.74Z"/><path d="M539.62,814.74a90.14,90.14,0,0,0-4.8,8.8c-2.4,5.1-2.7,7-2.7,15.8s.4,10.7,2.7,15.8c3.7,8,6.6,11.7,8.9,11.7,1.8,0,1.8-.2-.6-5a59.13,59.13,0,0,1-4-10.7c-2.9-11-1.4-23.6,4-34.3,2.4-4.8,2.4-5,.6-5C542.62,811.84,540.82,813.14,539.62,814.74Z"/><path d="M579.82,812.54c9.2,19.1,10.1,31,3.4,46.5-3.3,7.6-3.3,7.9-1.3,7.6,1.3-.2,3.3-2.4,5.5-6,6.3-10.6,7.7-21.7,4.3-32.7-2.5-8-7.7-16.1-10.3-16.1C580.32,811.84,579.62,812.14,579.82,812.54Z"/><path d="M1636.62,814.34c0,2.1.5,2.5,3,2.5s3-.4,3-2.5-.5-2.5-3-2.5S1636.62,812.24,1636.62,814.34Z"/><path d="M1757.62,814.74a90.14,90.14,0,0,0-4.8,8.8c-2.4,5.1-2.7,7-2.7,15.8s.4,10.7,2.7,15.8c3.7,8,6.6,11.7,8.9,11.7,1.8,0,1.8-.2-.6-5a59.13,59.13,0,0,1-4-10.7c-2.9-11-1.4-23.6,4-34.3,2.4-4.8,2.4-5,.6-5C1760.62,811.84,1758.82,813.14,1757.62,814.74Z"/><path d="M1797.82,812.54c9.2,19.1,10.1,31,3.4,46.5-3.3,7.6-3.3,7.9-1.3,7.6,1.3-.2,3.3-2.4,5.5-6,6.3-10.6,7.7-21.7,4.3-32.7-2.5-8-7.7-16.1-10.3-16.1C1798.32,811.84,1797.62,812.14,1797.82,812.54Z"/><path d="M1620.62,818.84c0,3.6-.2,4-2.5,4-2,0-2.5.5-2.5,2.5s.5,2.5,2.5,2.5h2.5v12.3c0,14.5.6,16,6.5,15.5,3.5-.3,4-.6,4.3-3,.3-2.1-.1-2.7-2-3-2.2-.3-2.3-.7-2.6-11.1l-.3-10.7h2.6c2,0,2.5-.5,2.5-2.5s-.5-2.5-2.5-2.5c-2.2,0-2.5-.4-2.5-4,0-3.8-.2-4-3-4S1620.62,815,1620.62,818.84Z"/><path d="M355.22,823.94c-2.1,1.7-2.6,1.8-2.6.5,0-1.1-.9-1.6-3-1.6h-3v45h6v-16.3l2.3,2.1c2.8,2.6,8.4,2.9,12.8.6,6-3,9-16.5,5.5-24.8C370.22,822.24,361,819.34,355.22,823.94Zm8.2,3.5c3.2.9,5.2,5.4,5.2,11.9,0,4.9-.4,6-2.9,8.6-3.2,3.2-4.7,3.5-8.5,1.8-3.4-1.6-4.9-5.9-4.4-12.6.4-4.6,1-6.1,3.2-8C358.92,826.74,359.72,826.54,363.42,827.44Z"/><path d="M386.82,823.84c-4.1,2.5-7.1,8.9-7.2,15.3,0,10.1,5.6,16.7,14.2,16.7,6.2,0,9.9-2.1,12.8-7.2l2.1-3.8h-3.1c-1.8,0-3.3.6-3.7,1.5-.7,1.9-5.5,4.5-8.2,4.5s-6.9-3.9-7.7-7.3l-.6-2.7h23.2v-3.5c0-5.4-2.8-11.2-6.5-13.5C397.92,821.24,391.12,821.24,386.82,823.84Zm11.1,4.1c2.3,1,4.7,4.6,4.7,6.9,0,.6-3.8,1-8.6,1-8.4,0-8.5,0-7.8-2.3C387.92,827.94,392.82,825.64,397.92,827.94Z"/><path d="M422.22,823.94c-2.1,1.7-2.6,1.8-2.6.5,0-1-.9-1.6-2.5-1.6h-2.5v32h6v-11.9c0-11.7.1-12,2.6-14a9.65,9.65,0,0,1,5-2.1c1.9,0,2.4-.5,2.4-2.5s-.5-2.5-2.9-2.5A10.49,10.49,0,0,0,422.22,823.94Z"/><path d="M454.62,822.54c-5.6,2.2-9.3,8.9-9.3,16.8,0,11.3,5.3,16.9,15.6,16.2,4.6-.3,6.3-.9,8.7-3.2q5.55-5.4,4.8-16.8c-.4-5.1-.9-6.3-4-9.4s-4.4-3.7-9-3.9C458.52,822,455.42,822.14,454.62,822.54Zm9.3,5.4c6.6,3,6.2,18.4-.4,22-3.4,1.8-8.7.2-10.4-3.1s-2-11.9-.4-15.4C454.62,827.34,459.42,825.84,463.92,827.94Z"/><path d="M556,822.84c-3.2,1.3-5.4,5-5.4,9.1,0,4.7,2.9,7.2,10.3,8.9,7.1,1.7,8.7,2.7,8.7,5.4,0,2.4-3.4,4.6-7,4.6-3,0-6.9-2.1-7.5-4.2-.8-2.3-5.5-2.5-5.5-.2,0,2.6,3.1,7.1,5.7,8.3,1.3.6,4.9,1.1,7.9,1.1,5,0,5.9-.3,9-3.4,4-4,4.7-9.3,1.5-12.5-1.8-1.8-10.7-5.1-13.6-5.1-.7,0-2-.9-3.1-2.1-1.9-2.1-1.8-2.1.5-4a8.75,8.75,0,0,1,4.1-1.9c3.2,0,7,1.9,7,3.5q0,1.5,3,1.5c1.7,0,3-.4,3-1,0-2.4-2.6-6.3-5.1-7.6C566.42,821.74,559.32,821.44,556,822.84Z"/><path d="M1657.42,823.94c-2.4,1.7-2.8,1.8-2.8.5,0-1-.9-1.6-2.5-1.6h-2.5v32h6v-11.9c0-11.7.1-12,2.6-14,3.2-2.5,5.7-2.7,7.8-.5,1.3,1.2,1.6,4,1.6,14v12.4h6v-11.5c0-11,.1-11.7,2.5-14,2.6-2.7,4.6-3.1,7.6-1.5,1.7,1,1.9,2.2,1.9,14v13h6v-13c0-17.5-1.3-20-9.9-20a10.75,10.75,0,0,0-6.5,2.1l-2.7,2.1-2.3-2.1C1667.32,821.14,1661.12,821.14,1657.42,823.94Z"/><path d="M1704.82,823.84c-4.1,2.5-7.1,8.9-7.2,15.3,0,10.1,5.6,16.7,14.2,16.7,6.2,0,9.9-2.1,12.8-7.2l2.1-3.8h-3.1c-1.8,0-3.3.6-3.7,1.5-.7,1.9-5.5,4.5-8.2,4.5s-6.9-3.9-7.7-7.3l-.6-2.7h23.2v-3.5c0-5.4-2.8-11.2-6.5-13.5C1715.92,821.24,1709.12,821.24,1704.82,823.84Zm11.1,4.1c2.3,1,4.7,4.6,4.7,6.9,0,.6-3.8,1-8.6,1-8.4,0-8.5,0-7.8-2.3C1705.92,827.94,1710.82,825.64,1715.92,827.94Z"/><path d="M1774,822.84c-3.2,1.3-5.4,5-5.4,9.1,0,4.7,2.9,7.2,10.3,8.9,7.1,1.7,8.7,2.7,8.7,5.4,0,2.4-3.4,4.6-7,4.6-3,0-6.9-2.1-7.5-4.2-.8-2.3-5.5-2.5-5.5-.2,0,2.6,3.1,7.1,5.7,8.3,1.3.6,4.9,1.1,7.9,1.1,5,0,5.9-.3,9-3.4,4-4,4.7-9.3,1.5-12.5-1.8-1.8-10.7-5.1-13.6-5.1-.7,0-2-.9-3.1-2.1-1.9-2.1-1.8-2.1.5-4a8.75,8.75,0,0,1,4.1-1.9c3.2,0,7,1.9,7,3.5q0,1.5,3,1.5c1.7,0,3-.4,3-1,0-2.4-2.6-6.3-5.1-7.6C1784.42,821.74,1777.32,821.44,1774,822.84Z"/><path d="M434.62,838.84v16h6v-32h-6Z"/><path d="M1636.62,838.84v16h6v-32h-6Z"/></g><rect class="cls-1" x="243.99" y="144" width="1459.97" height="600.83"/><g id="Layer_35" data-name="Layer 35"><path class="cls-2" d="M691.79,748.4s26.91,13.81,65.94-108.58l51.33-179.56,15.34-44.82s43.16-182.91,115.16-51.12c0,0,25.5,44.57,44,91l55,138.33s56,158.34,104,156.56"/><path class="cls-2" d="M1145.49,746.09s26.91,13.62,65.94-107.1l51.33-177.1,15.34-44.22s43.16-180.42,115.16-50.42c0,0,25.5,44,44,89.73l55,136.45s56,156.17,104,154.42c0,0,33,36.76,95.36-205.24"/><path class="cls-2" d="M695.61,747.22c-48,1.76-104-154.42-104-154.42l-55-136.44c-18.5-45.77-44-89.73-44-89.73-72-130-115.16,50.42-115.16,50.42l-15.34,44.21L310.78,638.37c-39,120.72-65.94,107.1-65.94,107.1"/><line class="cls-3" x1="234.62" y1="747.24" x2="1750.12" y2="750.56"/></g></g></svg>