<svg xmlns="http://www.w3.org/2000/svg" viewBox="0 0 1920 1080"><defs><style>.cls-1,.cls-2,.cls-3,.cls-6{fill:none;stroke-miterlimit:10;}.cls-1,.cls-2{stroke:#0071bc;}.cls-1,.cls-6{stroke-width:7px;}.cls-2{stroke-width:4px;}.cls-3,.cls-6{stroke:#000;}.cls-3{stroke-width:10px;}.cls-4{font-size:60px;font-family:Helvetica, Helvetica;}.cls-5{fill:#fff;}</style></defs><title>dutycycle</title><g id="_08_Smoother" data-name="08_Smoother"><g id="Lines_Graph_1_and_2_2" data-name="Lines (Graph 1 and 2)"><path class="cls-1" d="M1013.65,558.26s64.7,67.17,137.86-4.69c0,0,107.47-163.32,190.06,0,0,0,42.89,102.28,109.23,4.69,0,0,50-76.16,129.45,0l31.4,28.77"/><polyline class="cls-2" points="303.5 555 311.5 569.5 324.5 544.5 338.5 569.5 354 540.72 365.5 569.5 380.5 540.72 401 575.5 424 528 436.5 556.5 448 509.27 456 538.59 468.5 470.5 487 509.27 506 454.5 520 490 535.5 439.26 556.5 472.5 575 439.26 598 497.5 610 483.5 625 521 636 509.27 644.5 546.5 654 540.72 672 585.5 685 574 699.38 585.5 715.5 551.5 726.5 566 745.5 522.5 769 529 780 504.5 799 536 824.5 507 846 538.59 860.5 534 876.7 567.5 888.5 559 907.5 590.5"/></g><g id="graph-3" data-name="graph"><polyline class="cls-3" points="1646.75 720.8 1013.65 720.8 1013.65 283.41"/><polyline class="cls-3" points="931.54 720.8 298.44 720.8 298.44 283.41"/><polyline class="cls-3" points="1591.9 686.31 1646.75 720.8 1597.56 747.37 1591.9 750.2"/><polyline class="cls-3" points="876.7 686.85 931.54 721.34 882.35 747.92 876.7 750.74"/></g><g id="Text-4" data-name="Text"><text class="cls-4" transform="translate(449.03 804.59)">input signal<tspan x="18.4" y="72">(example)</tspan></text><text class="cls-4"><tspan x="1190.12" y="803.74">smoothed </tspan><tspan x="1251.81" y="875.74">signal</tspan><tspan x="1330.2" y="947.74"></tspan></text></g><rect class="cls-5" x="193.32" y="105.11" width="1537.42" height="866.96"/></g><g id="Redone_04_SquareOscycle_V2" data-name="Redone 04_SquareOscycle_V2"><g id="Lines-3" data-name="Lines"><polyline class="cls-1" points="344.33 480.98 366.88 480.98 557.8 480.98 557.8 640.58"/><polyline class="cls-1" points="878.13 349.42 878.13 184.33 768.64 184.33 768.64 352.75 456.65 352.19 456.96 181"/><polyline class="cls-1" points="1190.3 352.75 878.32 352.19 878.63 181"/><polyline class="cls-1" points="1191.69 360.3 1191.69 347 1191.69 184.33 1301.18 184.33 1301.18 349.42"/><polyline class="cls-1" points="349.31 360.3 346.97 184.33 456.47 184.33 456.47 349.42"/><line class="cls-1" x1="1559.67" y1="352.75" x2="1298" y2="352.75"/><line class="cls-1" x1="1301.18" y1="334" x2="1301.18" y2="360.3"/><polyline class="cls-1" points="767.03 645.41 558.55 646.38 557.8 486.78"/><polyline class="cls-1" points="978.02 636.57 978.02 476.97 769.53 476.97 769.53 651"/><polyline class="cls-1" points="1187.25 643.63 978.77 644.6 978.02 485"/><polyline class="cls-1" points="1395.74 636.57 1395.74 476.97 1187.25 476.97 1191.69 651 1182 643.65 1164.67 643.73"/><polyline class="cls-1" points="1604.97 643.63 1396.49 644.6 1395.74 485"/><line class="cls-1" x1="1147.67" y1="643.81" x2="1191.69" y2="643.81"/><line class="cls-1" x1="558.36" y1="606.67" x2="557.8" y2="652.17"/><polyline class="cls-1" points="766.55 782.18 1080.24 781.58 1080.82 938.49"/><polyline class="cls-1" points="657.82 785.63 658.68 936.95 768.77 936.55 767.89 782.18 1081.58 781.58 1082.16 938.49"/><polyline class="cls-1" points="348.72 780.63 658.1 780.03 658.68 936.95"/><polyline class="cls-1" points="1570.25 936.99 1504.64 936.97 1504.6 926 1504.06 780.06 1190.48 780.67 1191.35 935.04 1081.3 935.43 1080.44 784.11"/></g><g id="Graph-4" data-name="Graph"><polyline class="cls-3" points="349.31 505.92 349.31 476.97 349.31 652.17 1627 652.17"/><polyline class="cls-3" points="1631.01 943.98 1611.66 943.98 1591.91 943.99 349.32 944.11 349.31 772.92"/><polyline class="cls-3" points="349.31 210.59 349.31 181 349.31 360.09 1627 360.09"/></g><g id="Text-5" data-name="Text"><line class="cls-6" x1="346.97" y1="457.5" x2="557.8" y2="457.5"/><line class="cls-6" x1="349.31" y1="753" x2="658.04" y2="753"/><line class="cls-6" x1="348.72" y1="148" x2="348.72" y2="172"/><line class="cls-6" x1="658.72" y1="744" x2="658.72" y2="768"/><line class="cls-6" x1="348.72" y1="741" x2="348.72" y2="765"/><line class="cls-6" x1="557.21" y1="445.5" x2="557.21" y2="469.5"/><line class="cls-6" x1="347.57" y1="445.5" x2="347.57" y2="469.5"/><text class="cls-4" transform="translate(344.33 125.41)">25% duty cycle</text><text class="cls-4" transform="translate(344.33 430.02)">50% duty cycle</text><text class="cls-4" transform="translate(344.33 724.81)">75% duty cycle</text><polyline class="cls-3" points="1577 319 1631.67 360.3 1577 399.67"/><polyline class="cls-3" points="1581.16 613.71 1635.83 655 1581.16 694.38"/><polyline class="cls-3" points="1584.31 903.78 1638.98 945.07 1584.31 984.45"/><line class="cls-6" x1="456.65" y1="148" x2="456.65" y2="172"/><line class="cls-6" x1="348.72" y1="160" x2="456.47" y2="160"/></g></g></svg>