<svg xmlns="http://www.w3.org/2000/svg" viewBox="0 0 1920 1080"><defs><style>.cls-1{fill:#fff;}.cls-2,.cls-3,.cls-4{fill:none;stroke-miterlimit:10;}.cls-2{stroke:#0071bc;}.cls-2,.cls-4{stroke-width:7px;}.cls-3,.cls-4{stroke:#000;}.cls-3{stroke-width:10px;}.cls-5{font-size:60px;}.cls-5,.cls-6{font-family:Helvetica, Helvetica;}.cls-6{font-size:48px;}</style></defs><title>minmax</title><g id="_07_MinMaxSealer" data-name="07_MinMaxSealer"><g id="Layer_11" data-name="Layer 11"><rect class="cls-1" x="190.55" y="105.11" width="1536.15" height="866.96"/></g><g id="Lines_graph_1_and_2_" data-name="Lines (graph 1 and 2)"><path class="cls-2" d="M247.63,515.7s13.75-15,50.25,17.5c0,0,21.5,20.63,51.5-4l25.5-23.8L400.63,580l32-119s10.75,97.58,32.25,78.54c0,0,39.5-54,57.5-42.85,0,0,46,37.3,56,35.71s37.5,15.07,57.75-2.38,51.25-7.14,51.25-7.14"/><path class="cls-2" d="M992.43,481.75s19.56-50.22,71.51,58.5c0,0,30.59,68.94,73.29-13.26l36.29-79.55,36.64,249.26,45.54-397.76s15.3,326.16,45.9,262.52c0,0,56.21-180.4,81.82-143.24,0,0,65.47,124.68,79.7,119.37s53.37,50.39,82.18-8,72.94-23.87,72.94-23.87"/></g><g id="Graphs_1_and_2_" data-name="Graphs (1 and 2)"><polyline class="cls-3" points="781.54 724.81 244.38 724.81 244.38 287.42"/><polyline class="cls-3" points="1600.38 793.36 992.38 793.36 992.38 271.31"/><polyline class="cls-3" points="1555.54 761.41 1610.38 795.9 1561.19 822.48 1555.54 825.3"/><polyline class="cls-3" points="726.7 690.32 781.54 724.81 732.35 751.38 726.7 754.21"/><line class="cls-4" x1="265.88" y1="440.01" x2="291.38" y2="440.01"/><line class="cls-4" x1="304.38" y1="440.01" x2="329.88" y2="440.01"/><line class="cls-4" x1="342.88" y1="440.01" x2="368.38" y2="440.01"/><line class="cls-4" x1="381.38" y1="440.01" x2="406.88" y2="440.01"/><line class="cls-4" x1="419.88" y1="440.01" x2="445.38" y2="440.01"/><line class="cls-4" x1="458.38" y1="440.01" x2="483.88" y2="440.01"/><line class="cls-4" x1="496.88" y1="440.01" x2="522.38" y2="440.01"/><line class="cls-4" x1="535.38" y1="440.01" x2="560.88" y2="440.01"/><line class="cls-4" x1="272.38" y1="590.01" x2="297.88" y2="590.01"/><line class="cls-4" x1="310.88" y1="590.01" x2="336.38" y2="590.01"/><line class="cls-4" x1="349.38" y1="590.01" x2="374.88" y2="590.01"/><line class="cls-4" x1="387.88" y1="590.01" x2="413.38" y2="590.01"/><line class="cls-4" x1="426.38" y1="590.01" x2="451.88" y2="590.01"/><line class="cls-4" x1="464.88" y1="590.01" x2="490.38" y2="590.01"/><line class="cls-4" x1="503.38" y1="590.01" x2="528.88" y2="590.01"/><line class="cls-4" x1="541.88" y1="590.01" x2="567.38" y2="590.01"/><line class="cls-4" x1="578.38" y1="440.01" x2="603.88" y2="440.01"/><line class="cls-4" x1="616.88" y1="440.01" x2="642.38" y2="440.01"/><line class="cls-4" x1="655.38" y1="440.01" x2="680.88" y2="440.01"/><line class="cls-4" x1="693.88" y1="440.01" x2="719.38" y2="440.01"/><line class="cls-4" x1="584.88" y1="590.01" x2="610.38" y2="590.01"/><line class="cls-4" x1="623.38" y1="590.01" x2="648.88" y2="590.01"/><line class="cls-4" x1="661.88" y1="590.01" x2="687.38" y2="590.01"/><line class="cls-4" x1="700.38" y1="590.01" x2="725.88" y2="590.01"/><line class="cls-4" x1="736.46" y1="436.12" x2="758.25" y2="423.92"/><line class="cls-4" x1="769.36" y1="417.7" x2="791.15" y2="405.5"/><line class="cls-4" x1="802.26" y1="399.29" x2="824.05" y2="387.09"/><line class="cls-4" x1="835.16" y1="380.87" x2="856.95" y2="368.67"/><line class="cls-4" x1="871.9" y1="360.3" x2="893.69" y2="348.1"/><line class="cls-4" x1="904.8" y1="341.88" x2="926.59" y2="329.68"/><line class="cls-4" x1="937.7" y1="323.46" x2="959.49" y2="311.26"/><line class="cls-4" x1="970.6" y1="305.04" x2="992.38" y2="292.84"/><line class="cls-4" x1="744.14" y1="591.76" x2="765.55" y2="602.54"/><line class="cls-4" x1="776.47" y1="608.04" x2="797.88" y2="618.82"/><line class="cls-4" x1="808.8" y1="624.31" x2="830.21" y2="635.09"/><line class="cls-4" x1="841.12" y1="640.58" x2="862.54" y2="651.36"/><line class="cls-4" x1="877.23" y1="658.76" x2="898.64" y2="669.54"/><line class="cls-4" x1="909.56" y1="675.03" x2="930.97" y2="685.81"/><line class="cls-4" x1="941.89" y1="691.31" x2="963.3" y2="702.09"/><line class="cls-4" x1="974.22" y1="707.58" x2="995.63" y2="718.36"/><line class="cls-4" x1="1002.8" y1="298.94" x2="1028.3" y2="298.94"/><line class="cls-4" x1="1041.3" y1="298.94" x2="1066.8" y2="298.94"/><line class="cls-4" x1="1079.8" y1="298.94" x2="1105.3" y2="298.94"/><line class="cls-4" x1="1118.3" y1="298.94" x2="1143.8" y2="298.94"/><line class="cls-4" x1="1156.8" y1="298.94" x2="1182.3" y2="298.94"/><line class="cls-4" x1="1195.3" y1="298.94" x2="1220.8" y2="298.94"/><line class="cls-4" x1="1233.8" y1="298.94" x2="1259.3" y2="298.94"/><line class="cls-4" x1="1272.3" y1="298.94" x2="1297.8" y2="298.94"/><line class="cls-4" x1="1315.3" y1="298.94" x2="1340.8" y2="298.94"/><line class="cls-4" x1="1353.8" y1="298.94" x2="1379.3" y2="298.94"/><line class="cls-4" x1="1392.3" y1="298.94" x2="1417.8" y2="298.94"/><line class="cls-4" x1="1430.8" y1="298.94" x2="1456.3" y2="298.94"/><line class="cls-4" x1="1007.05" y1="718.36" x2="1032.55" y2="718.36"/><line class="cls-4" x1="1045.55" y1="718.36" x2="1071.05" y2="718.36"/><line class="cls-4" x1="1084.05" y1="718.36" x2="1109.55" y2="718.36"/><line class="cls-4" x1="1122.55" y1="718.36" x2="1148.05" y2="718.36"/><line class="cls-4" x1="1161.05" y1="718.36" x2="1186.55" y2="718.36"/><line class="cls-4" x1="1199.55" y1="718.36" x2="1225.05" y2="718.36"/><line class="cls-4" x1="1238.05" y1="718.36" x2="1263.55" y2="718.36"/><line class="cls-4" x1="1276.55" y1="718.36" x2="1302.05" y2="718.36"/><line class="cls-4" x1="1319.55" y1="718.36" x2="1345.05" y2="718.36"/><line class="cls-4" x1="1358.05" y1="718.36" x2="1383.55" y2="718.36"/><line class="cls-4" x1="1396.55" y1="718.36" x2="1422.05" y2="718.36"/><line class="cls-4" x1="1435.05" y1="718.36" x2="1460.55" y2="718.36"/><line class="cls-4" x1="242.38" y1="440.01" x2="252.88" y2="440.01"/><line class="cls-4" x1="247.63" y1="590.01" x2="258.13" y2="590.01"/><line class="cls-4" x1="1473.38" y1="298.94" x2="1498.88" y2="298.94"/><line class="cls-4" x1="1516.38" y1="298.94" x2="1541.88" y2="298.94"/><line class="cls-4" x1="1554.88" y1="298.94" x2="1580.38" y2="298.94"/><line class="cls-4" x1="1593.38" y1="298.94" x2="1618.88" y2="298.94"/><line class="cls-4" x1="1631.88" y1="298.94" x2="1657.38" y2="298.94"/><line class="cls-4" x1="1480.13" y1="718.36" x2="1505.63" y2="718.36"/><line class="cls-4" x1="1523.13" y1="718.36" x2="1548.63" y2="718.36"/><line class="cls-4" x1="1561.63" y1="718.36" x2="1587.13" y2="718.36"/><line class="cls-4" x1="1600.13" y1="718.36" x2="1625.63" y2="718.36"/><line class="cls-4" x1="1638.63" y1="718.36" x2="1664.13" y2="718.36"/></g><g id="Text-3" data-name="Text"><text class="cls-5" transform="translate(361.19 823.01)">input signal<tspan x="18.4" y="72">(example)</tspan></text><text class="cls-6" transform="translate(904.8 746.59)">0.0</text><text class="cls-6" transform="translate(898.64 301.01)">1.0</text></g></g></svg>