<?xml version="1.0" encoding="utf-8"?>
<!-- Generator: Adobe Illustrator 22.0.1, SVG Export Plug-In . SVG Version: 6.00 Build 0)  -->
<svg version="1.1" id="Layer_1" xmlns="http://www.w3.org/2000/svg" xmlns:xlink="http://www.w3.org/1999/xlink" x="0px" y="0px"
	 viewBox="0 0 1920 1080" style="enable-background:new 0 0 1920 1080;" xml:space="preserve">
<style type="text/css">
	.st0{fill:#FFFFFF;}
	.st1{fill:none;stroke:#000000;stroke-width:10;stroke-miterlimit:10;}
	.st2{fill:none;stroke:#0071BC;stroke-width:4;stroke-miterlimit:10;}
	.st3{fill:none;stroke:#0071BC;stroke-width:7;stroke-miterlimit:10;}
</style>
<title>Plaquette Diagrams</title>
<g id="Smoother">
	<rect x="190.6" y="108.6" class="st0" width="1536.2" height="866.6"/>
	<path d="M289.1,435.6v221.5l309,0.2l309,0.3l-18.4,10l-18.4,9.9l2.1,4.3c1.2,2.4,2.6,4.3,3.1,4.3c1.8-0.1,61-32.4,61-33.3
		s-59.3-38.7-60.9-38.7c-1,0-6,7.9-5.3,8.4c0.2,0.2,8.4,5.4,18.3,11.6s18.4,11.6,19,12.1s-125.7,0.9-303.3,0.9H300.1V491.6l3.6,6.3
		c2,3.5,4,6,4.4,5.5s3.5-5.8,6.7-12l5.9-11.2l6.8,12c3.7,6.7,7.2,11.7,7.6,11.2s3.9-6.4,7.6-13.3s6.8-12.6,6.9-12.8s2.6,5.7,5.5,13
		s5.6,13.6,5.9,14s3.9-5.6,7.9-13.2s7.7-13.8,8.2-13.5s5,7.7,10.1,16.5s9.7,16,10,16s5.5-10.1,11.4-22.5s11.1-22.5,11.4-22.5
		s3.3,6.3,6.6,14s6.3,13.6,6.6,13.2s2.8-9.7,5.4-20.7s5.1-20.3,5.4-20.7s2.2,5,4,12s3.7,13.3,4.1,14s3.4-14.2,6.9-33
		s6.4-34.4,6.5-34.6s4.2,8,9,18c8.7,18.1,8.8,18.3,10,15.3c0.7-1.7,4.8-13.5,9.2-26.2s8.2-23.3,8.5-23.3s3.4,7.2,6.9,16.1
		c3.5,8.9,6.7,16.2,7,16.4s3.9-10.2,7.9-23.3c8.8-29,8-26.7,9-25.6c0.4,0.5,4.9,7.6,10.1,15.7s9.6,14.5,10,14s4.5-7.5,9-15.6
		s8.6-14.5,9-14s5.6,13.1,11.5,28.2l10.8,27.5l2.6-3c1.4-1.6,4.1-4.7,5.9-6.8s3.5-3.7,3.7-3.5s10.3,25.2,13.6,33.8
		c1,2.4,1,2.4,6.3-2.8l5.4-5.3l2.5,10.8c1.4,6,3.3,14.1,4.2,18.1l1.6,7.2l4.7-2.9c2.6-1.6,5-2.6,5.3-2.2s4.5,10.5,9.4,22.4l8.7,21.8
		l6.9-6.1l6.9-6.1l7.2,5.6c2.4,2,5,3.9,7.7,5.6c0.4,0,4-7.2,8.1-16s7.7-15.9,8-15.9s2.6,2.9,5.3,6.4s5.1,6.5,5.5,6.5
		s5-9.8,10.1-21.8s9.5-21.8,9.6-21.9s5,1.1,10.8,2.7c3.9,1.2,7.9,2.2,12,3c0.7,0,3.2-4.5,5.6-10s4.7-10.3,5.2-10.5s4.7,6,9.5,14
		s8.9,14.5,9.3,14.4s6-6.3,12.6-13.9s12.2-13.9,12.5-14s5.2,6.7,10.8,15s10.4,15,10.6,15s2.9-0.9,6.1-2c2.3-0.8,4.6-1.5,7-2
		c0.7,0,4.8,7.4,9.1,16.5s8.2,16.5,8.7,16.5s3.2-1.8,6.2-4l5.4-4l8.7,14.5c8.1,13.5,10.3,16.1,11.9,13.5c0.6-0.9-6.8-13.9-16.2-28.8
		l-3.4-5.2l-5.4,4c-1.9,1.4-3.8,2.8-5.8,4c-0.2,0-3.9-7.2-8.1-16s-8.3-16-9-16c-2.6,0.5-5.1,1.2-7.5,2.1c-3.4,1.2-6.3,2-6.5,1.8
		s-4.9-7.3-10.6-15.7s-10.6-15.5-11-15.7s-6.3,5.9-13.1,13.6c-10.3,11.8-12.5,13.8-13.4,12.5c-0.6-0.8-4.9-7.8-9.6-15.5
		s-8.7-14.1-9-14.1s-3.1,5.5-6,12.1s-5.9,12.3-6.5,12.6c-0.9,0.3-10.2-2-21.5-5.3c-1.3-0.3-3.5,4-10.5,20.1
		c-4.9,11.2-9.2,20.5-9.6,20.5s-2.8-2.9-5.4-6.5c-1.5-2.3-3.2-4.5-5.1-6.5c-0.2,0-4.1,7.7-8.6,17l-8.2,17.1l-6.2-5.1
		c-3.4-2.7-6.7-5-7.3-5s-3.3,2-5.9,4.5s-5.2,4.5-5.8,4.5s-4-7.8-7.8-17.3s-7.7-19.2-8.7-21.5l-1.8-4.4l-4.5,2.6l-4.4,2.6l-1-3.7
		c-0.6-2.1-2.4-10.3-4.2-18.3s-3.4-14.7-3.6-14.9s-2.9,2.1-6.1,5.2l-5.7,5.6l-7.4-18.6l-7.4-18.6l-2.6,2.9c-1.4,1.6-4.1,4.7-5.9,6.8
		s-3.5,3.7-3.6,3.5s-5.4-13.3-11.7-29.1s-11.6-28.5-12-28s-4.7,7.7-9.4,16.2s-8.7,15.6-8.9,15.8s-5-7.1-10.7-16.2
		s-10.6-16.6-10.9-16.6s-2.7,7.3-5.4,16.3s-6,19.8-7.4,24.2l-2.4,7.9l-6.2-15.4c-3.4-8.5-6.6-16.4-7-17.5c-0.6-1.5-3.1,4.8-10,24.7
		c-5.1,14.7-9.5,27-9.7,27.3s-4.7-8.2-9.8-18.8s-9.5-18.8-9.7-18.2s-2.9,14.7-5.9,31.5s-5.8,30.6-5.9,30.8s-1.8-5.3-3.6-12
		s-3.5-12.6-3.9-13s-3,9.5-6,22s-5.7,23-6.1,23.4s-3-4.8-6-11.7s-5.6-12.5-5.9-12.5s-5.5,10.3-11.6,23s-11.3,23-11.6,23
		s-5.1-7.4-10.4-16.5s-9.8-16.5-10-16.5s-3.6,6.2-7.6,13.7l-7.2,13.6l-5.7-14.3l-5.7-14.3l-7.8,14.4c-4.2,7.9-7.8,14.5-7.9,14.6
		s-3.3-5.2-7-11.8s-7.2-11.7-7.6-11.2s-3.5,5.8-6.7,12l-5.9,11.2l-3-5.4c-1.6-3-3.2-5.5-3.6-5.5s-0.8-61-0.8-135.5V214.1h-11V435.6z
		"/>
	<path d="M1005.1,435.6v221.5l308.2,0.2l308.1,0.3l-17.6,9.5c-9.7,5.2-17.7,9.8-17.7,10.3c0,1.6,4.1,8.8,4.8,8.4
		c0.4-0.2,14.3-7.7,31-16.7s30.2-16.5,30.2-16.9s-58.7-38-61-38.9c-1.1-0.4-6.3,7.9-5.3,8.8c0.4,0.4,9.2,6,19.6,12.4
		s18.7,12,18.7,12.2s-137,0.4-304.5,0.4h-304.5v-148l6.8,4.6c17.4,11.7,35.4,17.4,55.1,17.4c30.1,0,60.1-16.4,80.7-44
		c10-13.4,29.3-32.6,41.4-41.2s25.3-15.2,35.9-17.9c10.9-2.7,27.3-2.3,36.6,1c22.2,7.8,44,30.9,61.1,64.4
		c14.9,29.4,29.1,44.5,46.7,49.8c22,6.8,43.8-5.5,67.9-38.1c11.6-15.8,20.7-23.8,34.2-30.1c22.3-10.4,47.5-6.6,73.4,11.4
		c6.1,4.2,31.7,26.6,47.3,41.4l3.5,3.3l2.2-2.9l2.1-2.9l-19.9-18.2c-11-10-23-20.6-26.7-23.5c-27.2-21-56.7-26.9-82-16.3
		c-15.6,6.4-26.7,15.7-39.8,33.3c-14.6,19.6-23.2,27.6-36.2,33.8c-5.9,2.7-7.9,3.2-14.8,3.2c-7.1,0-8.8-0.4-14.9-3.4
		c-8-3.9-18-13.3-24.4-22.8c-2.3-3.4-7.1-11.9-10.8-19c-21.1-41.1-44.6-64.4-72.5-71.9c-9.1-2.5-25-2.2-35.4,0.5
		c-10.7,2.8-28,11.6-39,19.8c-11.6,8.6-33,30.3-42,42.4c-15.2,20.5-37.9,35.2-61,39.6c-10.2,2-26.3,1.2-36-1.6
		c-9.2-2.7-25.4-10.9-33.2-16.7l-6.3-4.7V214.1h-10L1005.1,435.6z"/>
	<path d="M1354.1,713.6v21.5h2.5c2.5,0,2.5-0.1,2.5-8.8c0-9.3,1.2-15.3,3.4-17.1c2.8-2.3,7.3-2.4,9.5-0.2c1.9,1.9,2.1,3.2,2.1,14.1
		v12h6v-10.9c0-13.4-0.6-16.4-3.8-19.6s-10.6-3.5-14.6-0.4l-2.6,2v-7c0-6.9-0.1-7.1-2.5-7.1h-2.5V713.6z"/>
	<path d="M1440.1,699.1v7.1l-2.2-2.1c-1.7-1.4-4-2.1-6.2-2c-8.7,0-14.1,6.7-14,17.5c0.1,6.7,1.9,11.2,6,14.4
		c3.6,2.8,10.2,2.8,13.8,0c2.1-1.7,2.6-1.8,2.6-0.5c0,1.1,0.9,1.6,3,1.6h3v-43h-6L1440.1,699.1z M1437.2,710
		c2.5,2.6,2.9,3.7,2.9,8.8c0,8.6-3.9,13.1-10.1,11.8c-3.8-0.9-5.9-4.9-5.9-11.4c0-5.9,1.4-9.5,4.4-10.9
		C1432,706.5,1434.1,707,1437.2,710L1437.2,710z"/>
	<path d="M449.1,695.6c0,2.1,0.5,2.5,3,2.5s3-0.4,3-2.5s-0.5-2.5-3-2.5S449.1,693.5,449.1,695.6z"/>
	<path d="M626.1,695.6c0,2.1,0.5,2.5,3,2.5s3-0.4,3-2.5s-0.5-2.5-3-2.5S626.1,693.5,626.1,695.6z"/>
	<path d="M739.1,714.6v21.5h6v-43h-6V714.6z"/>
	<path d="M1338.1,699.1c0,3.6-0.2,4-2.5,4c-2,0-2.5,0.5-2.5,2.5s0.5,2.5,2.5,2.5h2.5v12.3c0,14.5,0.6,16,6.5,15.5
		c3.5-0.3,4-0.6,4.3-3c0.3-2.1-0.1-2.7-2-3c-2.2-0.3-2.3-0.7-2.6-11.1l-0.3-10.7h2.6c2,0,2.5-0.5,2.5-2.5s-0.5-2.5-2.5-2.5
		c-2.2,0-2.5-0.4-2.5-4c0-3.8-0.2-4-3-4S1338.1,695.3,1338.1,699.1z"/>
	<path d="M563.1,700.1c0,3.6-0.2,4-2.5,4c-2,0-2.5,0.5-2.5,2.5s0.5,2.5,2.5,2.5h2.5v12.3c0,14.5,0.6,16,6.5,15.5
		c3.5-0.3,4-0.6,4.3-3c0.3-2.1-0.1-2.7-2-3c-2.2-0.3-2.3-0.7-2.6-11.1l-0.3-10.7h2.6c2,0,2.5-0.5,2.5-2.5s-0.5-2.5-2.5-2.5
		c-2.2,0-2.5-0.4-2.5-4c0-3.8-0.2-4-3-4S563.1,696.3,563.1,700.1z"/>
	<path d="M1194.5,703.1c-3.2,1.3-5.4,5-5.4,9.1c0,4.7,2.9,7.2,10.3,8.9c7.1,1.7,8.7,2.7,8.7,5.4c0,2.4-3.4,4.6-7,4.6
		c-3,0-6.9-2.1-7.5-4.2c-0.8-2.3-5.5-2.5-5.5-0.2c0,2.6,3.1,7.1,5.7,8.3c1.3,0.6,4.9,1.1,7.9,1.1c5,0,5.9-0.3,9-3.4
		c4-4,4.7-9.3,1.5-12.5c-1.8-1.8-10.7-5.1-13.6-5.1c-0.7,0-2-0.9-3.1-2.1c-1.9-2.1-1.8-2.1,0.5-4c1.2-1,2.6-1.6,4.1-1.9
		c3.2,0,7,1.9,7,3.5c0,1,1,1.5,3,1.5c1.7,0,3-0.4,3-1c0-2.4-2.6-6.3-5.1-7.6C1204.9,702,1197.8,701.7,1194.5,703.1z"/>
	<path d="M1227.9,704.2c-2.4,1.7-2.8,1.8-2.8,0.5c0-1-0.9-1.6-2.5-1.6h-2.5v32h6v-11.9c0-11.7,0.1-12,2.6-14
		c3.2-2.5,5.7-2.7,7.8-0.5c1.3,1.2,1.6,4,1.6,14v12.4h6v-11.5c0-11,0.1-11.7,2.5-14c2.6-2.7,4.6-3.1,7.6-1.5c1.7,1,1.9,2.2,1.9,14
		v13h6v-13c0-17.5-1.3-20-9.9-20c-2.3,0-4.6,0.7-6.5,2.1l-2.7,2.1l-2.3-2.1C1237.8,701.4,1231.6,701.4,1227.9,704.2z"/>
	<path d="M1277.1,702.8c-5.6,2.2-9.3,8.9-9.3,16.8c0,11.3,5.3,16.9,15.6,16.2c4.6-0.3,6.3-0.9,8.7-3.2c3.7-3.6,5.3-9.2,4.8-16.8
		c-0.4-5.1-0.9-6.3-4-9.4s-4.4-3.7-9-3.9C1281,702.3,1277.9,702.4,1277.1,702.8z M1286.4,708.2c6.6,3,6.2,18.4-0.4,22
		c-3.4,1.8-8.7,0.2-10.4-3.1s-2-11.9-0.4-15.4C1277.1,707.6,1281.9,706.1,1286.4,708.2L1286.4,708.2z"/>
	<path d="M1310.1,702.8c-5.6,2.2-9.3,8.9-9.3,16.8c0,11.3,5.3,16.9,15.6,16.2c4.6-0.3,6.3-0.9,8.7-3.2c3.7-3.6,5.3-9.2,4.8-16.8
		c-0.4-5.1-0.9-6.3-4-9.4s-4.4-3.7-9-3.9C1314,702.3,1310.9,702.4,1310.1,702.8z M1319.4,708.2c6.6,3,6.2,18.4-0.4,22
		c-3.4,1.8-8.7,0.2-10.4-3.1s-2-11.9-0.4-15.4C1310.1,707.6,1314.9,706.1,1319.4,708.2L1319.4,708.2z"/>
	<path d="M1392.3,704.1c-4.1,2.5-7.1,8.9-7.2,15.3c0,10.1,5.6,16.7,14.2,16.7c6.2,0,9.9-2.1,12.8-7.2l2.1-3.8h-3.1
		c-1.8,0-3.3,0.6-3.7,1.5c-0.7,1.9-5.5,4.5-8.2,4.5s-6.9-3.9-7.7-7.3l-0.6-2.7h23.2v-3.5c0-5.4-2.8-11.2-6.5-13.5
		C1403.4,701.5,1396.6,701.5,1392.3,704.1z M1403.4,708.2c2.3,1,4.7,4.6,4.7,6.9c0,0.6-3.8,1-8.6,1c-8.4,0-8.5,0-7.8-2.3
		C1393.4,708.2,1398.3,705.9,1403.4,708.2z"/>
	<path d="M470.4,705.1c-2.7,1.6-3.3,1.7-3.3,0.5c0-1-1-1.5-3-1.5h-3v32h6v-9.5c0-6.1,0.5-10.8,1.5-13c2.4-6,10.5-7.2,12.5-1.9
		c0.6,1.4,1,7.5,1,13.5v10.9h6v-11.3c0-12.7-1.1-18-4.3-20.2C480.8,702.5,474.2,702.7,470.4,705.1z"/>
	<path d="M503.7,705.2c-2.1,1.7-2.6,1.8-2.6,0.5c0-1.1-0.9-1.6-3-1.6h-3v45h6v-16.3l2.3,2.1c2.8,2.6,8.4,2.9,12.8,0.6
		c6-3,9-16.5,5.5-24.8C518.7,703.5,509.5,700.6,503.7,705.2z M511.9,708.7c3.2,0.9,5.2,5.4,5.2,11.9c0,4.9-0.4,6-2.9,8.6
		c-3.2,3.2-4.7,3.5-8.5,1.8c-3.4-1.6-4.9-5.9-4.4-12.6c0.4-4.6,1-6.1,3.2-8C507.4,708,508.2,707.8,511.9,708.7L511.9,708.7z"/>
	<path d="M600.5,704.1c-3.2,1.3-5.4,5-5.4,9.1c0,4.7,2.9,7.2,10.3,8.9c7.1,1.7,8.7,2.7,8.7,5.4c0,2.4-3.4,4.6-7,4.6
		c-3,0-6.9-2.1-7.5-4.2c-0.8-2.3-5.5-2.5-5.5-0.2c0,2.6,3.1,7.1,5.7,8.3c1.3,0.6,4.9,1.1,7.9,1.1c5,0,5.9-0.3,9-3.4
		c4-4,4.7-9.3,1.5-12.5c-1.8-1.8-10.7-5.1-13.6-5.1c-0.7,0-2-0.9-3.1-2.1c-1.9-2.1-1.8-2.1,0.5-4c1.2-1,2.6-1.6,4.1-1.9
		c3.2,0,7,1.9,7,3.5c0,1,1,1.5,3,1.5c1.7,0,3-0.4,3-1c0-2.4-2.6-6.3-5.1-7.6C610.9,703,603.8,702.7,600.5,704.1z"/>
	<path d="M643.5,705c-4.3,2.6-6.6,8.1-6.6,15.6c0,7.1,1.9,11.3,6.2,13.9c3.9,2.3,10.1,2.1,13.4-0.5l2.6-2v2.4
		c-0.1,1.8-0.5,3.6-1,5.4c-1.8,5.2-9.3,7-13,3.3c-2.6-2.6-7-2.7-7-0.2c0,5.8,12.7,9.4,19.6,5.7c5.8-3.1,6.8-6.8,7.2-26.8l0.4-17.7
		h-3.1c-2.2,0-3.1,0.5-3.1,1.6c0,1.3-0.5,1.2-2.6-0.5C653.2,702.6,647.6,702.5,643.5,705z M656.2,711c2.4,2.5,2.9,3.8,2.9,7.8
		c0,5.9-1.7,9.4-5.4,11.1c-6.2,3-10.9-1.4-10.8-10.2c0-6.2,1.4-9.3,4.5-10.6C651.2,707.6,653.2,708,656.2,711z"/>
	<path d="M681.4,705.1c-2.7,1.6-3.3,1.7-3.3,0.5c0-1-1-1.5-3-1.5h-3v32h6v-9.5c0-6.1,0.5-10.8,1.5-13c2.4-6,10.5-7.2,12.5-1.9
		c0.6,1.4,1,7.5,1,13.5v10.9h6v-11.3c0-12.7-1.1-18-4.3-20.2C691.8,702.5,685.2,702.7,681.4,705.1z"/>
	<path d="M710.9,704.7c-4.8,2.5-6.6,8.4-2.7,8.4c1.2,0,3.2-1.1,4.5-2.5c3.8-4.1,12.4-2.8,12.4,1.9c0,2.7-0.8,3.1-8.4,4.1
		c-2.5,0.3-4.9,0.9-7.3,1.8c-2.7,1.2-5.3,5.5-5.3,8.7c0,2.9,2.7,7.7,4.9,9c3.2,1.6,9.3,1.1,13-1.1l3.3-2l1.5,2
		c1,1.4,2.7,2.2,4.4,2.1c2.4,0,2.9-0.4,2.9-2.5c0-1.6-0.6-2.5-1.5-2.5c-1.2,0-1.5-1.9-1.5-11.1c0-6.1-0.5-11.9-1-13
		C727.6,703.4,716.7,701.5,710.9,704.7z M725.1,723.4c0,6.1-7.6,10.5-12.5,7.3c-2.8-1.8-3.2-4.7-1-6.6c1.2-1,8.9-3.3,12.8-3.9
		C724.8,720.1,725.1,721.6,725.1,723.4L725.1,723.4z"/>
	<path d="M449.1,720.1v16h6v-32h-6V720.1z"/>
	<path d="M528.1,714.3c0,13.2,0.7,17.2,3.6,20.3c3,3.3,10.2,3.5,14.5,0.4c2.4-1.7,2.9-1.8,2.9-0.5c0,1,0.9,1.6,2.5,1.6h2.5v-32h-6
		v11.4c0,9.4-0.3,11.8-1.7,13.5c-2.4,2.8-7.2,3.7-9.8,1.7c-1.8-1.3-2-2.8-2.3-14l-0.4-12.6h-5.8V714.3z"/>
	<path d="M626.1,720.1v16h6v-32h-6V720.1z"/>
	<path d="M1282.1,766.6c0,2.1,0.5,2.5,3,2.5s3-0.4,3-2.5s-0.5-2.5-3-2.5S1282.1,764.5,1282.1,766.6z"/>
	<path d="M1395.1,785.6v21.5h6v-43h-6V785.6z"/>
	<path d="M475.1,768c-1.8,2.8-3.4,5.8-4.8,8.8c-2.4,5.1-2.7,7-2.7,15.8s0.4,10.7,2.7,15.8c3.7,8,6.6,11.7,8.9,11.7
		c1.8,0,1.8-0.2-0.6-5c-1.7-3.4-3-7-4-10.7c-2.9-11-1.4-23.6,4-34.3c2.4-4.8,2.4-5,0.6-5C478.1,765.1,476.3,766.4,475.1,768z"/>
	<path d="M667.1,786.6v21.5h6v-43h-6V786.6z"/>
	<path d="M712.3,765.8c9.2,19.1,10.1,31,3.4,46.5c-3.3,7.6-3.3,7.9-1.3,7.6c1.3-0.2,3.3-2.4,5.5-6c6.3-10.6,7.7-21.7,4.3-32.7
		c-2.5-8-7.7-16.1-10.3-16.1C712.8,765.1,712.1,765.4,712.3,765.8z"/>
	<path d="M1256.5,775.1c-3.2,1.3-5.4,5-5.4,9.1c0,4.7,2.9,7.2,10.3,8.9c7.1,1.7,8.7,2.7,8.7,5.4c0,2.4-3.4,4.6-7,4.6
		c-3,0-6.9-2.1-7.5-4.2c-0.8-2.3-5.5-2.5-5.5-0.2c0,2.6,3.1,7.1,5.7,8.3c1.3,0.6,4.9,1.1,7.9,1.1c5,0,5.9-0.3,9-3.4
		c4-4,4.7-9.3,1.5-12.5c-1.8-1.8-10.7-5.1-13.6-5.1c-0.7,0-2-0.9-3.1-2.1c-1.9-2.1-1.8-2.1,0.5-4c1.2-1,2.6-1.6,4.1-1.9
		c3.2,0,7,1.9,7,3.5c0,1,1,1.5,3,1.5c1.7,0,3-0.4,3-1c0-2.4-2.6-6.3-5.1-7.6C1266.9,774,1259.8,773.7,1256.5,775.1z"/>
	<path d="M1299.5,776c-4.3,2.6-6.6,8.1-6.6,15.6c0,7.1,1.9,11.3,6.2,13.9c3.9,2.3,10.1,2.1,13.4-0.5l2.6-2v2.4
		c-0.1,1.8-0.5,3.6-1,5.4c-1.8,5.2-9.3,7-13,3.3c-2.6-2.6-7-2.7-7-0.2c0,5.8,12.7,9.4,19.6,5.7c5.8-3.1,6.8-6.8,7.2-26.8l0.4-17.7
		h-3.1c-2.2,0-3.1,0.5-3.1,1.6c0,1.3-0.5,1.2-2.6-0.5C1309.2,773.6,1303.6,773.5,1299.5,776z M1312.2,782c2.4,2.5,2.9,3.8,2.9,7.8
		c0,5.9-1.7,9.4-5.4,11.1c-6.2,3-10.9-1.4-10.8-10.2c0-6.2,1.4-9.3,4.5-10.6C1307.2,778.6,1309.2,779,1312.2,782z"/>
	<path d="M1337.4,776.1c-2.7,1.6-3.3,1.7-3.3,0.5c0-1-1-1.5-3-1.5h-3v32h6v-9.5c0-6.1,0.5-10.8,1.5-13c2.4-6,10.5-7.2,12.5-1.9
		c0.6,1.4,1,7.5,1,13.5v10.9h6v-11.3c0-12.7-1.1-18-4.3-20.2C1347.8,773.5,1341.2,773.7,1337.4,776.1z"/>
	<path d="M1366.9,775.7c-4.8,2.5-6.6,8.4-2.7,8.4c1.2,0,3.2-1.1,4.5-2.5c3.8-4.1,12.4-2.8,12.4,1.9c0,2.7-0.8,3.1-8.4,4.1
		c-2.5,0.3-4.9,0.9-7.3,1.8c-2.7,1.2-5.3,5.5-5.3,8.7c0,2.9,2.7,7.7,4.9,9c3.2,1.6,9.3,1.1,13-1.1l3.3-2l1.5,2
		c1,1.4,2.7,2.2,4.4,2.1c2.4,0,2.9-0.4,2.9-2.5c0-1.6-0.6-2.5-1.5-2.5c-1.2,0-1.5-1.9-1.5-11.1c0-6.1-0.5-11.9-1-13
		C1383.6,774.4,1372.7,772.5,1366.9,775.7z M1381.1,794.4c0,6.1-7.6,10.5-12.5,7.3c-2.8-1.8-3.2-4.7-1-6.6c1.2-1,8.9-3.3,12.8-3.9
		C1380.8,791.1,1381.1,792.6,1381.1,794.4z"/>
	<path d="M492.3,777.1c-4.1,2.5-7.1,8.9-7.2,15.3c0,10.1,5.6,16.7,14.2,16.7c6.2,0,9.9-2.1,12.8-7.2l2.1-3.8h-3.1
		c-1.8,0-3.3,0.6-3.7,1.5c-0.7,1.9-5.5,4.5-8.2,4.5s-6.9-3.9-7.7-7.3l-0.6-2.7h23.2v-3.5c0-5.4-2.8-11.2-6.5-13.5
		C503.4,774.5,496.6,774.5,492.3,777.1z M503.4,781.2c2.3,1,4.7,4.6,4.7,6.9c0,0.6-3.8,1-8.6,1c-8.4,0-8.5,0-7.8-2.3
		C493.4,781.2,498.3,778.9,503.4,781.2z"/>
	<path d="M555.9,776.7c-4.8,2.5-6.6,8.4-2.7,8.4c1.2,0,3.2-1.1,4.5-2.5c3.8-4.1,12.4-2.8,12.4,1.9c0,2.7-0.8,3.1-8.4,4.1
		c-2.5,0.3-4.9,0.9-7.3,1.8c-2.7,1.2-5.3,5.5-5.3,8.7c0,2.9,2.7,7.7,4.9,9c3.2,1.6,9.3,1.1,13-1.1l3.3-2l1.5,2
		c1,1.4,2.7,2.2,4.4,2.1c2.4,0,2.9-0.4,2.9-2.5c0-1.6-0.6-2.5-1.5-2.5c-1.2,0-1.5-1.9-1.5-11.1c0-6.1-0.5-11.9-1-13
		C572.6,775.4,561.7,773.5,555.9,776.7z M570.1,795.4c0,6.1-7.6,10.5-12.5,7.3c-2.8-1.8-3.2-4.7-1-6.6c1.2-1,8.9-3.3,12.8-3.9
		C569.8,792.1,570.1,793.6,570.1,795.4L570.1,795.4z"/>
	<path d="M591.9,777.2c-2.4,1.7-2.8,1.8-2.8,0.5c0-1-0.9-1.6-2.5-1.6h-2.5v32h6v-11.9c0-11.7,0.1-12,2.6-14c3.2-2.5,5.7-2.7,7.8-0.5
		c1.3,1.2,1.6,4,1.6,14v12.4h6v-11.5c0-11,0.1-11.7,2.5-14c2.6-2.7,4.6-3.1,7.6-1.5c1.7,1,1.9,2.2,1.9,14v13h6v-13
		c0-17.5-1.3-20-9.9-20c-2.3,0-4.6,0.7-6.5,2.1l-2.7,2.1l-2.3-2.1C601.8,774.4,595.6,774.4,591.9,777.2z"/>
	<path d="M641.7,777.2c-2.1,1.7-2.6,1.8-2.6,0.5c0-1.1-0.9-1.6-3-1.6h-3v45h6v-16.3l2.3,2.1c2.8,2.6,8.4,2.9,12.8,0.6
		c6-3,9-16.5,5.5-24.8C656.7,775.5,647.5,772.6,641.7,777.2z M649.9,780.7c3.2,0.9,5.2,5.4,5.2,11.9c0,4.9-0.4,6-2.9,8.6
		c-3.2,3.2-4.7,3.5-8.5,1.8c-3.4-1.6-4.9-5.9-4.4-12.6c0.4-4.6,1-6.1,3.2-8C645.4,780,646.2,779.8,649.9,780.7z"/>
	<path d="M686.3,777.1c-4.1,2.5-7.1,8.9-7.2,15.3c0,10.1,5.6,16.7,14.2,16.7c6.2,0,9.9-2.1,12.8-7.2l2.1-3.8h-3.1
		c-1.8,0-3.3,0.6-3.7,1.5c-0.7,1.9-5.5,4.5-8.2,4.5s-6.9-3.9-7.7-7.3l-0.6-2.7h23.2v-3.5c0-5.4-2.8-11.2-6.5-13.5
		C697.4,774.5,690.6,774.5,686.3,777.1z M697.4,781.2c2.3,1,4.7,4.6,4.7,6.9c0,0.6-3.8,1-8.6,1c-8.4,0-8.5,0-7.8-2.3
		C687.4,781.2,692.3,778.9,697.4,781.2L697.4,781.2z"/>
	<path d="M1282.1,791.1v16h6v-32h-6V791.1z"/>
	<path d="M518.7,777.3c0.4,0.7,2.5,4,4.7,7.2s4,6.5,4,7.1s-2.3,4.6-5.2,8.8l-5.2,7.7h3.8c3.3,0,4.1-0.5,5.6-3.3
		c1-1.7,2.6-4.3,3.6-5.6l1.9-2.5l3.6,5.7c3.3,5.2,4,5.7,7.2,5.7c4,0,4.1,0.3-2.9-10l-4.4-6.5l5.4-7.8l5.4-7.7h-3.5
		c-3.2,0-3.9,0.5-6.8,5c-1.8,2.7-3.6,5-4,5s-2-2.3-3.7-5c-2.8-4.5-3.4-5-6.6-5C519,776.1,518.2,776.4,518.7,777.3z"/>
	<g id="White_Box_blocking_black_line">
		<rect x="301.5" y="229.3" class="st0" width="611.3" height="363.7"/>
		<rect x="1015.6" y="239.9" class="st0" width="611.3" height="363.7"/>
		<line class="st1" x1="1012.1" y1="214.1" x2="1012.2" y2="651.8"/>
	</g>
	<polyline class="st2" points="299.9,492.4 307.9,506.9 320.9,481.9 334.9,506.9 350.4,478.1 361.9,506.9 376.9,478.1 397.4,512.9 
		420.4,465.4 432.9,493.9 444.4,446.6 452.4,476 464.9,407.9 483.4,446.6 502.4,391.9 516.4,427.4 531.9,376.6 552.9,409.9 
		571.4,376.6 594.4,434.9 606.4,420.9 621.4,458.4 632.4,446.6 640.9,483.9 650.4,478.1 668.4,522.9 681.4,511.4 695.8,522.9 
		711.9,488.9 722.9,503.4 741.9,459.9 765.4,466.4 776.4,441.9 795.4,473.4 820.9,444.4 842.4,476 856.9,471.4 873.1,504.9 
		884.9,496.4 903.9,527.9 	"/>
	<path class="st3" d="M1008.1,485.7c0,0,64.7,67.2,137.9-4.7c0,0,107.5-163.3,190.1,0c0,0,42.9,102.3,109.2,4.7c0,0,50-76.2,129.4,0
		l31.4,28.8"/>
	<line class="st1" x1="1010.1" y1="214.1" x2="1010.2" y2="651.8"/>
	<line class="st1" x1="294.5" y1="219.5" x2="294.6" y2="657.2"/>
</g>
</svg>
