<?xml version="1.0" standalone="no"?>
<!DOCTYPE svg PUBLIC "-//W3C//DTD SVG 20010904//EN"
 "http://www.w3.org/TR/2001/REC-SVG-20010904/DTD/svg10.dtd">
<svg version="1.0" xmlns="http://www.w3.org/2000/svg"
 width="1920.000000pt" height="1080.000000pt" viewBox="0 0 1920.000000 1080.000000"
 preserveAspectRatio="xMidYMid meet">

<g transform="translate(0.000000,1080.000000) scale(0.100000,-0.100000)"
fill="#000000" stroke="none">
<path d="M812 8146 c-7 -16 -22 -26 -46 -30 -51 -10 -48 -36 4 -36 l40 0 0
-125 0 -125 25 0 25 0 0 170 c0 158 -1 170 -18 170 -11 0 -24 -11 -30 -24z"/>
<path d="M1162 8154 c-40 -28 -56 -73 -56 -159 0 -120 37 -175 117 -175 89 0
143 132 107 262 -21 74 -110 113 -168 72z m88 -34 c53 -28 52 -222 -1 -251
-12 -6 -31 -8 -44 -5 -56 14 -72 179 -23 241 21 27 39 31 68 15z"/>
<path d="M1680 5505 l0 -2415 7662 -2 7662 -3 -195 -105 -196 -105 21 -43 c16
-33 25 -42 39 -38 27 7 607 320 607 327 0 7 -604 389 -614 389 -8 0 -60 -80
-55 -84 2 -2 87 -56 188 -120 l185 -116 -743 0 -743 0 45 50 c192 220 464 940
730 1938 l25 93 -26 10 c-14 5 -30 8 -37 6 -6 -3 -21 -47 -34 -98 -50 -197
-173 -617 -247 -841 -218 -665 -390 -1025 -538 -1127 -42 -29 -50 -31 -139
-31 -94 0 -95 0 -153 39 -119 80 -238 225 -361 440 -193 335 -590 1260 -998
2325 -199 520 -521 1115 -699 1292 -200 199 -357 225 -512 82 -62 -57 -203
-246 -253 -339 -135 -252 -371 -972 -630 -1926 -163 -599 -335 -1113 -481
-1434 -105 -231 -194 -364 -281 -420 -142 -91 -295 -22 -490 221 -112 139
-229 359 -451 850 -187 411 -376 873 -720 1760 -133 343 -362 795 -542 1070
-97 147 -221 266 -331 316 -114 53 -217 31 -321 -68 -58 -55 -168 -196 -224
-287 -137 -222 -371 -927 -656 -1976 -258 -947 -521 -1622 -704 -1805 -48 -48
-130 -90 -177 -90 -95 0 -219 79 -327 210 -156 187 -240 340 -494 901 -191
421 -364 844 -724 1769 -133 342 -360 789 -543 1070 -79 122 -216 255 -312
302 -56 27 -79 33 -133 33 -78 -1 -128 -24 -203 -93 -75 -70 -219 -269 -270
-375 -123 -253 -283 -731 -512 -1527 -216 -751 -516 -1644 -646 -1919 -27 -58
-66 -127 -87 -155 -21 -28 -51 -69 -67 -91 -56 -77 -121 -125 -167 -125 l-28
0 0 2340 0 2340 -50 0 -50 0 0 -2415z m2187 1919 c82 -40 200 -158 281 -282
193 -297 395 -695 540 -1067 386 -989 522 -1320 714 -1745 121 -268 247 -530
296 -618 135 -239 309 -439 436 -502 l41 -20 -2139 0 -2139 0 45 35 c60 45
175 200 228 305 52 103 140 323 218 545 137 391 377 1141 458 1435 180 650
393 1286 509 1521 61 125 207 319 281 375 76 59 137 63 231 18z m4517 -44 c85
-51 191 -161 263 -272 185 -285 398 -705 531 -1048 383 -983 530 -1343 728
-1778 211 -464 321 -677 420 -811 60 -81 185 -214 238 -253 l39 -28 -2098 0
-2097 0 59 44 c81 60 150 155 237 328 169 335 347 852 551 1598 256 933 448
1526 590 1825 43 89 163 263 234 339 20 21 56 52 81 68 40 26 52 29 106 26 48
-3 73 -11 118 -38z m4468 -19 c65 -31 179 -131 235 -206 172 -230 449 -768
608 -1180 482 -1255 909 -2226 1098 -2500 38 -54 110 -139 181 -213 l70 -72
-2041 0 -2041 0 58 59 c123 126 256 397 419 853 103 288 194 590 366 1213 207
747 407 1358 530 1620 48 103 170 278 249 360 94 96 169 114 268 66z"/>
<path d="M1000 7850 c0 -15 7 -20 25 -20 18 0 25 5 25 20 0 15 -7 20 -25 20
-18 0 -25 -5 -25 -20z"/>
<path d="M859 6735 c-57 -15 -167 -74 -174 -93 -11 -29 8 -30 68 -1 133 62
282 64 418 5 72 -31 79 -32 79 -15 0 25 -77 73 -159 99 -71 23 -162 25 -232 5z"/>
<path d="M985 6571 c-34 -15 -56 -47 -62 -90 -5 -36 -2 -44 30 -76 27 -27 43
-35 72 -35 29 0 45 8 72 35 32 32 35 40 30 77 -3 24 -15 51 -29 65 -26 26 -81
38 -113 24z m77 -58 c20 -18 24 -63 6 -81 -7 -7 -26 -12 -43 -12 -37 0 -55 16
-55 49 0 52 54 78 92 44z"/>
<path d="M710 6443 c0 -13 60 -50 203 -128 111 -60 207 -111 214 -113 7 -2 13
3 13 11 0 9 -85 62 -211 131 -116 64 -212 116 -215 116 -2 0 -4 -8 -4 -17z"/>
<path d="M755 6257 c-27 -27 -35 -43 -35 -72 0 -29 8 -45 35 -72 32 -32 40
-35 77 -30 59 8 93 45 93 102 0 57 -34 94 -93 102 -37 5 -45 2 -77 -30z m107
-34 c22 -20 23 -51 1 -75 -18 -20 -63 -24 -81 -6 -16 16 -16 70 0 86 17 17 58
15 80 -5z"/>
<path d="M685 6030 c-12 -20 11 -41 89 -80 107 -55 206 -64 312 -31 86 26 164
74 164 100 0 19 -4 18 -62 -8 -149 -67 -294 -67 -435 -1 -35 16 -65 25 -68 20z"/>
<path d="M881 5652 c-52 -26 -76 -65 -76 -122 0 -52 19 -87 68 -124 41 -30
151 -34 195 -7 88 56 96 177 16 240 -37 29 -64 28 -64 -4 0 -17 9 -29 29 -39
31 -16 41 -34 41 -71 0 -37 -10 -55 -41 -70 -57 -30 -59 -26 -59 100 l0 115
-37 0 c-21 0 -53 -8 -72 -18z m59 -127 c0 -71 -3 -85 -16 -85 -22 0 -74 55
-74 79 0 31 20 68 44 79 43 21 46 17 46 -73z"/>
<path d="M810 5291 l0 -29 121 -4 c113 -3 122 -5 140 -27 26 -32 25 -76 -3
-95 -17 -12 -50 -16 -141 -16 l-118 0 3 -27 3 -28 133 0 134 0 29 33 c36 40
39 96 8 136 -17 21 -18 26 -5 26 11 0 16 9 16 30 l0 30 -160 0 -160 0 0 -29z"/>
<path d="M692 4953 l3 -28 215 0 215 0 3 28 3 27 -221 0 -221 0 3 -27z"/>
<path d="M1090 4865 c0 -12 -19 -15 -115 -15 -109 0 -117 -1 -140 -24 -48 -48
-42 -164 12 -206 59 -47 89 -2 33 50 -32 29 -36 52 -20 94 7 20 17 26 39 26
28 0 30 -3 36 -47 11 -84 16 -102 36 -127 39 -50 125 -41 154 15 20 38 19 78
-5 124 -20 38 -20 38 0 52 12 9 20 26 20 44 0 24 -4 29 -25 29 -16 0 -25 -6
-25 -15z m-30 -95 c24 -24 34 -62 26 -94 -12 -50 -81 -40 -91 12 -3 15 -9 44
-14 65 l-8 37 33 0 c21 0 42 -8 54 -20z"/>
<path d="M810 4522 c0 -26 6 -29 115 -66 64 -21 118 -42 120 -46 2 -3 -50 -24
-116 -45 l-119 -39 0 -33 0 -32 98 35 c53 20 124 46 157 57 54 20 60 25 63 53
l3 31 -151 57 c-83 31 -155 56 -160 56 -6 0 -10 -12 -10 -28z"/>
<path d="M1730 2870 l0 -120 25 0 c23 0 25 4 25 40 l0 40 2225 0 2225 0 0 -45
c0 -43 1 -45 30 -45 l31 0 -3 118 -3 117 -25 0 c-23 0 -25 -4 -28 -47 l-3 -48
-2225 0 -2224 0 0 55 c0 52 -1 55 -25 55 l-25 0 0 -120z"/>
<path d="M1022 2934 c-40 -28 -56 -73 -56 -159 0 -120 37 -175 117 -175 89 0
143 132 107 262 -21 74 -110 113 -168 72z m88 -34 c53 -28 52 -222 -1 -251
-12 -6 -31 -8 -44 -5 -56 14 -72 179 -23 241 21 27 39 31 68 15z"/>
<path d="M1422 2934 c-40 -28 -56 -73 -56 -159 0 -120 37 -175 117 -175 89 0
143 132 107 262 -21 74 -110 113 -168 72z m88 -34 c53 -28 52 -222 -1 -251
-12 -6 -31 -8 -44 -5 -56 14 -72 179 -23 241 21 27 39 31 68 15z"/>
<path d="M1260 2630 c0 -15 7 -20 25 -20 18 0 25 5 25 20 0 15 -7 20 -25 20
-18 0 -25 -5 -25 -20z"/>
<path d="M3680 2495 c0 -21 5 -25 30 -25 25 0 30 4 30 25 0 21 -5 25 -30 25
-25 0 -30 -4 -30 -25z"/>
<path d="M4350 2450 l0 -71 -22 21 c-14 13 -35 20 -62 20 -87 0 -141 -67 -140
-175 1 -67 19 -112 60 -144 36 -28 102 -28 138 0 21 17 26 18 26 5 0 -11 9
-16 30 -16 l30 0 0 215 0 215 -30 0 -30 0 0 -70z m-29 -109 c25 -26 29 -37 29
-88 0 -86 -39 -131 -101 -118 -38 9 -59 49 -59 114 0 59 14 95 44 109 35 18
56 13 87 -17z"/>
<path d="M4730 2491 c-11 -17 -33 -56 -48 -88 -24 -51 -27 -70 -27 -158 0 -88
4 -107 27 -158 37 -80 66 -117 89 -117 18 0 18 2 -6 50 -14 27 -32 75 -40 107
-29 110 -14 236 40 343 24 48 24 50 6 50 -11 0 -29 -13 -41 -29z"/>
<path d="M5132 2513 c92 -191 101 -310 34 -465 -33 -76 -33 -79 -13 -76 13 2
33 24 55 60 63 106 77 217 43 327 -25 80 -77 161 -103 161 -11 0 -18 -3 -16
-7z"/>
<path d="M15700 2495 c0 -21 5 -25 30 -25 25 0 30 4 30 25 0 21 -5 25 -30 25
-25 0 -30 -4 -30 -25z"/>
<path d="M16910 2491 c-11 -17 -33 -56 -48 -88 -24 -51 -27 -70 -27 -158 0
-88 4 -107 27 -158 37 -80 66 -117 89 -117 18 0 18 2 -6 50 -14 27 -32 75 -40
107 -29 110 -14 236 40 343 24 48 24 50 6 50 -11 0 -29 -13 -41 -29z"/>
<path d="M17312 2513 c92 -191 101 -310 34 -465 -33 -76 -33 -79 -13 -76 13 2
33 24 55 60 63 106 77 217 43 327 -25 80 -77 161 -103 161 -11 0 -18 -3 -16
-7z"/>
<path d="M15540 2450 c0 -36 -2 -40 -25 -40 -20 0 -25 -5 -25 -25 0 -20 5 -25
25 -25 l25 0 0 -123 c0 -145 6 -160 65 -155 35 3 40 6 43 30 3 21 -1 27 -20
30 -22 3 -23 7 -26 111 l-3 107 26 0 c20 0 25 5 25 25 0 20 -5 25 -25 25 -22
0 -25 4 -25 40 0 38 -2 40 -30 40 -28 0 -30 -2 -30 -40z"/>
<path d="M2886 2399 c-21 -17 -26 -18 -26 -5 0 11 -9 16 -30 16 l-30 0 0 -225
0 -225 30 0 30 0 0 82 0 81 23 -21 c28 -26 84 -29 128 -6 60 30 90 165 55 248
-30 72 -122 101 -180 55z m82 -35 c32 -9 52 -54 52 -119 0 -49 -4 -60 -29 -86
-32 -32 -47 -35 -85 -18 -34 16 -49 59 -44 126 4 46 10 61 32 80 29 24 37 26
74 17z"/>
<path d="M3202 2400 c-41 -25 -71 -89 -72 -153 0 -101 56 -167 142 -167 62 0
99 21 128 72 l21 38 -31 0 c-18 0 -33 -6 -37 -15 -7 -19 -55 -45 -82 -45 -27
0 -69 39 -77 73 l-6 27 116 0 116 0 0 35 c0 54 -28 112 -65 135 -42 26 -110
26 -153 0z m111 -41 c23 -10 47 -46 47 -69 0 -6 -38 -10 -86 -10 -84 0 -85 0
-78 23 17 56 66 79 117 56z"/>
<path d="M3556 2399 c-21 -17 -26 -18 -26 -5 0 10 -9 16 -25 16 l-25 0 0 -160
0 -160 30 0 30 0 0 119 c0 117 1 120 26 140 15 12 37 21 50 21 19 0 24 5 24
25 0 21 -5 25 -29 25 -15 0 -40 -9 -55 -21z"/>
<path d="M3880 2413 c-56 -22 -93 -89 -93 -168 0 -113 53 -169 156 -162 46 3
63 9 87 32 37 36 53 92 48 168 -4 51 -9 63 -40 94 -31 31 -44 37 -90 39 -29 2
-60 1 -68 -3z m93 -54 c66 -30 62 -184 -4 -220 -34 -18 -87 -2 -104 31 -18 34
-20 119 -4 154 19 41 67 56 112 35z"/>
<path d="M4894 2410 c-32 -13 -54 -50 -54 -91 0 -47 29 -72 103 -89 71 -17 87
-27 87 -54 0 -24 -34 -46 -70 -46 -30 0 -69 21 -75 42 -8 23 -55 25 -55 2 0
-26 31 -71 57 -83 13 -6 49 -11 79 -11 50 0 59 3 90 34 40 40 47 93 15 125
-18 18 -107 51 -136 51 -7 0 -20 9 -31 21 -19 21 -18 21 5 40 13 10 31 19 41
19 32 0 70 -19 70 -35 0 -10 10 -15 30 -15 17 0 30 4 30 10 0 24 -26 63 -51
76 -31 15 -102 18 -135 4z"/>
<path d="M15908 2399 c-24 -17 -28 -18 -28 -5 0 10 -9 16 -25 16 l-25 0 0
-160 0 -160 30 0 30 0 0 119 c0 117 1 120 26 140 32 25 57 27 78 5 13 -12 16
-40 16 -140 l0 -124 30 0 30 0 0 115 c0 110 1 117 25 140 26 27 46 31 76 15
17 -10 19 -22 19 -140 l0 -130 30 0 30 0 0 130 c0 175 -13 200 -99 200 -24 0
-49 -8 -65 -21 l-27 -21 -23 21 c-29 28 -91 28 -128 0z"/>
<path d="M16382 2400 c-41 -25 -71 -89 -72 -153 0 -101 56 -167 142 -167 62 0
99 21 128 72 l21 38 -31 0 c-18 0 -33 -6 -37 -15 -7 -19 -55 -45 -82 -45 -27
0 -69 39 -77 73 l-6 27 116 0 116 0 0 35 c0 54 -28 112 -65 135 -42 26 -110
26 -153 0z m111 -41 c23 -10 47 -46 47 -69 0 -6 -38 -10 -86 -10 -84 0 -85 0
-78 23 17 56 66 79 117 56z"/>
<path d="M17074 2410 c-32 -13 -54 -50 -54 -91 0 -47 29 -72 103 -89 71 -17
87 -27 87 -54 0 -24 -34 -46 -70 -46 -30 0 -69 21 -75 42 -8 23 -55 25 -55 2
0 -26 31 -71 57 -83 13 -6 49 -11 79 -11 50 0 59 3 90 34 40 40 47 93 15 125
-18 18 -107 51 -136 51 -7 0 -20 9 -31 21 -19 21 -18 21 5 40 13 10 31 19 41
19 32 0 70 -19 70 -35 0 -10 10 -15 30 -15 17 0 30 4 30 10 0 24 -26 63 -51
76 -31 15 -102 18 -135 4z"/>
<path d="M3680 2250 l0 -160 30 0 30 0 0 160 0 160 -30 0 -30 0 0 -160z"/>
<path d="M15700 2250 l0 -160 30 0 30 0 0 160 0 160 -30 0 -30 0 0 -160z"/>
</g>
</svg>
