<?xml version="1.0" standalone="no"?>
<!DOCTYPE svg PUBLIC "-//W3C//DTD SVG 20010904//EN"
 "http://www.w3.org/TR/2001/REC-SVG-20010904/DTD/svg10.dtd">
<svg version="1.0" xmlns="http://www.w3.org/2000/svg"
 width="1920.000000pt" height="1080.000000pt" viewBox="0 0 1920.000000 1080.000000"
 preserveAspectRatio="xMidYMid meet">

<g transform="translate(0.000000,1080.000000) scale(0.100000,-0.100000)"
fill="#000000" stroke="none">
<path d="M3528 9924 c-32 -17 -49 -45 -58 -96 -7 -38 -7 -38 26 -38 29 0 34 3
34 24 0 33 29 65 66 72 63 12 114 -72 73 -122 -8 -10 -43 -36 -79 -59 -96 -62
-130 -107 -130 -171 l0 -24 145 0 145 0 0 25 0 25 -115 0 -115 0 12 25 c6 14
48 49 97 80 48 30 94 67 104 83 35 60 14 148 -43 177 -37 19 -127 19 -162 -1z"/>
<path d="M5050 9874 l0 -65 -22 15 c-37 26 -111 21 -147 -10 -58 -48 -75 -168
-35 -246 34 -67 123 -90 178 -47 21 17 26 18 26 5 0 -11 9 -16 30 -16 l30 0 0
215 0 215 -30 0 -30 0 0 -66z m-29 -113 c25 -26 29 -37 29 -88 0 -86 -39 -131
-101 -118 -39 9 -59 49 -59 120 0 49 4 60 29 86 16 16 39 29 51 29 12 0 35
-13 51 -29z"/>
<path d="M7050 9725 l0 -215 30 0 30 0 0 215 0 215 -30 0 -30 0 0 -215z"/>
<path d="M3830 9843 c-6 -49 -14 -100 -16 -115 -5 -25 -3 -28 22 -28 15 0 36
8 47 17 11 11 35 18 59 18 56 0 92 -42 85 -98 -6 -47 -29 -74 -69 -82 -36 -8
-85 11 -93 36 -9 27 -65 27 -65 0 0 -26 34 -66 70 -81 47 -19 135 -8 166 21
75 69 71 191 -9 239 -34 21 -106 27 -136 10 -17 -8 -17 -6 -10 33 4 23 8 48 9
55 0 9 25 12 90 12 89 0 90 0 90 25 l0 25 -114 0 -114 0 -12 -87z"/>
<path d="M4424 9843 c-50 -94 -174 -323 -181 -335 -2 -5 4 -8 15 -8 13 0 37
34 89 128 39 70 92 164 117 210 25 45 46 84 46 87 0 3 -9 5 -19 5 -15 0 -33
-24 -67 -87z"/>
<path d="M4159 9892 c-26 -24 -32 -36 -32 -72 0 -36 6 -48 32 -72 85 -76 221
16 170 115 -32 63 -116 77 -170 29z m111 -42 c11 -11 20 -24 20 -30 0 -14 -38
-50 -53 -50 -22 0 -57 30 -57 50 0 20 35 50 57 50 7 0 22 -9 33 -20z"/>
<path d="M5520 9870 c0 -33 -3 -40 -20 -40 -15 0 -20 -7 -20 -25 0 -18 5 -25
19 -25 25 0 31 -26 31 -146 0 -120 8 -137 65 -132 35 3 40 6 43 30 3 21 -1 27
-20 30 -22 3 -23 7 -26 111 l-3 107 26 0 c19 0 25 5 25 23 1 25 16 -12 81
-190 l41 -113 -19 -32 c-15 -25 -26 -33 -46 -31 -24 2 -27 -2 -27 -28 0 -27 2
-29 39 -29 62 0 65 6 189 340 l39 105 -30 3 c-16 2 -33 0 -37 -5 -4 -4 -23
-56 -40 -115 -18 -60 -36 -108 -40 -108 -4 0 -22 51 -41 113 l-35 112 -62 3
-62 3 0 39 c0 39 -1 40 -35 40 -34 0 -35 -1 -35 -40z"/>
<path d="M6192 9820 c-42 -26 -64 -79 -65 -155 -1 -102 41 -156 126 -162 74
-5 122 27 142 95 5 19 3 22 -22 22 -21 0 -32 -8 -45 -30 -30 -53 -107 -50
-128 6 -6 14 -10 50 -10 80 0 48 4 60 29 85 16 16 38 29 49 29 24 0 72 -37 72
-56 0 -9 11 -14 30 -14 28 0 30 2 24 28 -10 41 -32 72 -60 82 -42 16 -106 11
-142 -10z"/>
<path d="M6792 9820 c-42 -26 -64 -79 -65 -155 -1 -102 41 -156 126 -162 74
-5 122 27 142 95 5 19 3 22 -22 22 -21 0 -32 -8 -45 -30 -30 -53 -107 -50
-128 6 -6 14 -10 50 -10 80 0 48 4 60 29 85 16 16 38 29 49 29 24 0 72 -37 72
-56 0 -9 11 -14 30 -14 28 0 30 2 24 28 -10 41 -32 72 -60 82 -42 16 -106 11
-142 -10z"/>
<path d="M7245 9830 c-52 -21 -85 -86 -85 -168 0 -96 58 -162 142 -162 62 0
99 21 128 72 l21 38 -31 0 c-18 0 -33 -6 -37 -15 -7 -19 -55 -45 -82 -45 -27
0 -69 39 -77 73 l-6 27 116 0 116 0 -1 38 c-1 95 -53 153 -138 151 -25 0 -55
-4 -66 -9z m116 -69 c51 -51 41 -61 -57 -61 -74 0 -85 2 -80 16 3 9 6 20 6 25
0 13 61 49 83 49 10 0 32 -13 48 -29z"/>
<path d="M5170 9728 c0 -132 7 -172 36 -203 30 -33 102 -35 145 -4 24 17 29
18 29 5 0 -10 9 -16 25 -16 l25 0 0 160 0 160 -30 0 -30 0 0 -114 c0 -94 -3
-118 -17 -135 -24 -28 -72 -37 -98 -17 -18 13 -20 25 -19 140 l2 126 -34 0
-34 0 0 -102z"/>
<path d="M6436 9763 c14 -37 41 -112 61 -166 l35 -97 -20 -33 c-14 -24 -25
-32 -45 -30 -24 2 -27 -2 -27 -28 0 -27 2 -29 39 -29 62 0 65 6 189 340 l39
105 -30 3 c-16 2 -33 0 -37 -5 -4 -4 -23 -56 -40 -115 -18 -60 -36 -108 -40
-108 -4 0 -22 51 -41 113 l-35 112 -37 3 -37 3 26 -68z"/>
<path d="M4448 9681 c-70 -62 -24 -171 73 -171 57 0 99 42 99 100 0 91 -102
133 -172 71z m112 -41 c11 -11 20 -24 20 -30 0 -16 -39 -50 -58 -50 -26 0 -62
29 -62 50 0 21 36 50 62 50 10 0 27 -9 38 -20z"/>
<path d="M3450 9200 l0 -120 35 0 c34 0 35 1 35 40 l0 40 505 0 505 0 0 -40
c0 -39 1 -40 35 -40 l35 0 0 120 0 120 -35 0 c-34 0 -35 -1 -35 -40 l0 -40
-505 0 -505 0 0 40 c0 39 -1 40 -35 40 l-35 0 0 -120z"/>
<path d="M3986 8992 l-559 -2 6 -113 c4 -61 7 -475 7 -919 l0 -808 6361 0
6361 0 -203 -146 c-112 -81 -208 -150 -213 -155 -5 -5 3 -24 19 -46 16 -21 29
-39 31 -41 4 -6 604 431 599 437 -6 10 -590 451 -597 451 -7 0 -62 -80 -57
-84 2 -1 90 -67 194 -146 105 -79 197 -149 205 -157 12 -11 -30 -13 -263 -13
l-277 0 0 30 0 30 -1275 0 -1275 0 0 840 0 840 -585 0 -585 0 0 -840 0 -840
-1530 0 -1530 0 0 840 0 840 -585 0 -585 0 0 -840 0 -840 -1522 2 -1523 3 2
836 2 837 -32 3 c-18 2 -284 3 -591 1z m544 -907 l0 -835 -495 0 -495 0 0 835
0 835 495 0 495 0 0 -835z m4219 0 l-4 -835 -512 0 -513 0 0 835 0 835 516 0
516 0 -3 -835z m4230 0 l-2 -835 -514 0 -513 0 0 835 0 835 516 0 515 0 -2
-835z"/>
<path d="M3885 6921 c-55 -23 -84 -93 -85 -206 0 -102 14 -151 55 -192 29 -29
40 -33 84 -33 102 0 158 94 149 249 -5 90 -29 146 -72 172 -32 20 -95 24 -131
10z m104 -58 c29 -23 47 -126 37 -207 -12 -93 -69 -139 -123 -101 -64 45 -55
289 11 315 33 13 52 11 75 -7z"/>
<path d="M5050 6860 l0 -71 -22 21 c-14 13 -35 20 -62 20 -87 0 -141 -67 -140
-175 1 -67 19 -112 60 -144 36 -28 102 -28 138 0 21 17 26 18 26 5 0 -11 9
-16 30 -16 l30 0 0 215 0 215 -30 0 -30 0 0 -70z m-29 -109 c25 -26 29 -37 29
-88 0 -86 -39 -131 -101 -118 -38 9 -59 49 -59 114 0 59 14 95 44 109 35 18
56 13 87 -17z"/>
<path d="M7050 6715 l0 -215 30 0 30 0 0 215 0 215 -30 0 -30 0 0 -215z"/>
<path d="M3491 6828 c-7 -51 -15 -103 -18 -115 -4 -20 -1 -23 23 -23 15 0 36
8 47 17 11 11 35 18 59 18 56 0 92 -42 85 -98 -6 -47 -29 -74 -69 -82 -36 -8
-85 11 -93 36 -9 27 -65 27 -65 0 0 -26 34 -66 70 -81 47 -19 135 -8 166 21
75 69 71 191 -9 239 -35 22 -106 26 -139 9 -17 -9 -19 -8 -15 8 3 10 8 35 12
56 l6 37 89 0 c89 0 90 0 90 25 l0 25 -114 0 -113 0 -12 -92z"/>
<path d="M4385 6758 c-48 -90 -101 -187 -118 -215 -27 -49 -27 -53 -10 -53 19
0 28 15 221 368 31 56 32 62 15 62 -15 0 -41 -40 -108 -162z"/>
<path d="M4159 6881 c-64 -64 -20 -171 70 -171 60 0 106 43 106 100 0 90 -112
135 -176 71z m109 -37 c12 -8 22 -24 22 -34 0 -21 -36 -50 -62 -50 -19 0 -58
34 -58 50 0 16 39 50 58 50 10 0 28 -7 40 -16z"/>
<path d="M5530 6860 c0 -36 -2 -40 -25 -40 -20 0 -25 -5 -25 -25 0 -20 5 -25
25 -25 l25 0 0 -123 c0 -145 6 -160 65 -155 35 3 40 6 43 30 3 21 -1 27 -20
30 -22 3 -23 7 -26 111 l-3 107 26 0 c20 0 25 5 25 25 0 20 -5 25 -25 25 -22
0 -25 4 -25 40 0 38 -2 40 -30 40 -28 0 -30 -2 -30 -40z"/>
<path d="M6190 6804 c-45 -38 -62 -79 -63 -148 -1 -103 41 -157 126 -163 74
-5 122 27 142 95 5 19 3 22 -22 22 -21 0 -32 -8 -45 -30 -30 -53 -107 -50
-128 6 -6 14 -10 50 -10 80 0 48 4 60 29 85 16 16 36 29 45 29 33 0 66 -20 72
-45 5 -20 12 -25 36 -25 26 0 29 3 23 23 -20 70 -56 97 -129 97 -33 0 -52 -6
-76 -26z"/>
<path d="M6790 6804 c-45 -38 -62 -79 -63 -148 -1 -103 41 -157 126 -163 74
-5 122 27 142 95 5 19 3 22 -22 22 -21 0 -32 -8 -45 -30 -30 -53 -107 -50
-128 6 -6 14 -10 50 -10 80 0 48 4 60 29 85 16 16 36 29 45 29 33 0 66 -20 72
-45 5 -20 12 -25 36 -25 26 0 29 3 23 23 -20 70 -56 97 -129 97 -33 0 -52 -6
-76 -26z"/>
<path d="M7232 6810 c-41 -25 -71 -89 -72 -153 0 -101 56 -167 142 -167 62 0
99 21 128 72 l21 38 -31 0 c-18 0 -33 -6 -37 -15 -7 -19 -55 -45 -82 -45 -27
0 -69 39 -77 73 l-6 27 116 0 116 0 0 35 c0 54 -28 112 -65 135 -42 26 -110
26 -153 0z m111 -41 c23 -10 47 -46 47 -69 0 -6 -38 -10 -86 -10 -84 0 -85 0
-78 23 17 56 66 79 117 56z"/>
<path d="M5170 6718 c0 -132 7 -172 36 -203 30 -33 102 -35 145 -4 24 17 29
18 29 5 0 -10 9 -16 25 -16 l25 0 0 160 0 160 -30 0 -30 0 0 -114 c0 -94 -3
-118 -17 -135 -24 -28 -72 -37 -98 -17 -18 13 -20 28 -23 140 l-4 126 -29 0
-29 0 0 -102z"/>
<path d="M5650 6811 c0 -5 25 -80 56 -165 l56 -156 -19 -33 c-15 -24 -26 -32
-46 -30 -24 2 -27 -2 -27 -28 0 -27 3 -29 38 -29 41 0 59 13 85 65 18 35 137
362 137 376 0 5 -13 9 -29 9 -29 0 -31 -3 -68 -115 -20 -63 -40 -115 -43 -115
-3 0 -23 52 -43 115 -37 112 -39 115 -68 115 -16 0 -29 -4 -29 -9z"/>
<path d="M6420 6811 c0 -5 25 -80 56 -165 l56 -156 -19 -33 c-15 -24 -26 -32
-46 -30 -24 2 -27 -2 -27 -28 0 -27 3 -29 38 -29 41 0 59 13 85 65 18 35 137
362 137 376 0 5 -13 9 -29 9 -29 0 -31 -3 -68 -115 -20 -63 -40 -115 -43 -115
-3 0 -23 52 -43 115 -37 112 -39 115 -68 115 -16 0 -29 -4 -29 -9z"/>
<path d="M4448 6671 c-70 -62 -24 -171 73 -171 57 0 99 42 99 100 0 91 -102
133 -172 71z m112 -41 c11 -11 20 -24 20 -30 0 -16 -39 -50 -58 -50 -26 0 -62
29 -62 50 0 21 36 50 62 50 10 0 27 -9 38 -20z"/>
<path d="M3440 6225 l0 -125 35 0 c35 0 35 0 35 45 l0 45 1015 0 1015 0 0 -45
c0 -45 0 -45 35 -45 l35 0 0 125 0 125 -35 0 c-35 0 -35 0 -35 -45 l0 -45
-1015 0 -1015 0 0 45 c0 45 0 45 -35 45 l-35 0 0 -125z"/>
<path d="M7660 5225 l0 -845 -637 0 c-351 0 -810 -3 -1020 -7 l-383 -6 0 755
c0 415 -3 789 -6 831 l-7 77 -1083 0 -1084 0 0 -900 0 -900 4253 0 c2338 0
5216 0 6395 0 1178 0 2142 -2 2142 -4 0 -2 -101 -77 -225 -166 -142 -102 -222
-166 -218 -173 19 -32 48 -67 55 -67 14 0 593 420 593 429 0 10 -581 451 -594
451 -6 0 -36 -36 -54 -67 -5 -8 56 -59 175 -149 101 -75 187 -141 192 -145 6
-5 -14 -9 -47 -9 l-57 0 0 36 0 37 -1025 -8 -1025 -7 0 749 c0 413 -3 791 -6
841 l-7 92 -1073 0 -1074 0 0 -127 c1 -71 9 -445 19 -833 11 -388 18 -706 18
-706 -1 -1 -464 -5 -1029 -9 l-1028 -7 -2 838 -3 839 -1077 3 -1078 2 0 -845z
m2080 18 c0 -412 3 -785 7 -830 l6 -83 -1012 0 -1011 0 0 830 0 830 1005 0
1005 0 0 -747z m4180 -6 c0 -415 3 -788 6 -830 l7 -77 -992 0 -991 0 0 63 c0
34 -9 395 -20 802 -11 407 -20 752 -20 768 l0 27 1005 0 1005 0 0 -753z
m-8380 -97 l0 -810 -1000 0 -1000 0 0 810 0 810 1000 0 1000 0 0 -810z"/>
<path d="M5050 3910 l0 -71 -22 21 c-14 13 -35 20 -62 20 -87 0 -141 -67 -140
-175 1 -67 19 -112 60 -144 36 -28 102 -28 138 0 21 17 26 18 26 5 0 -11 9
-16 30 -16 l30 0 0 215 0 215 -30 0 -30 0 0 -70z m-29 -109 c25 -26 29 -37 29
-88 0 -86 -39 -131 -101 -118 -38 9 -59 49 -59 114 0 59 14 95 44 109 35 18
56 13 87 -17z"/>
<path d="M7050 3765 l0 -215 30 0 30 0 0 215 0 215 -30 0 -30 0 0 -215z"/>
<path d="M3460 3945 l0 -25 115 0 115 0 -34 -47 c-58 -82 -111 -200 -131 -291
-7 -33 -6 -33 26 -30 31 3 33 6 46 61 16 74 71 191 122 265 65 93 66 92 -109
92 l-150 0 0 -25z"/>
<path d="M3831 3878 c-7 -51 -15 -103 -18 -115 -4 -20 -1 -23 23 -23 15 0 36
8 47 17 11 11 35 18 59 18 56 0 92 -42 85 -98 -6 -47 -29 -74 -69 -82 -36 -8
-85 11 -93 36 -9 27 -65 27 -65 0 0 -26 34 -66 70 -81 47 -19 135 -8 166 21
75 69 71 191 -9 239 -35 22 -106 26 -139 9 -17 -9 -19 -8 -15 8 3 10 8 35 12
56 l6 37 89 0 c89 0 90 0 90 25 l0 25 -114 0 -113 0 -12 -92z"/>
<path d="M4385 3808 c-48 -90 -101 -187 -118 -215 -27 -49 -27 -53 -10 -53 19
0 28 15 221 368 31 56 32 62 15 62 -15 0 -41 -40 -108 -162z"/>
<path d="M4159 3931 c-64 -64 -20 -171 70 -171 60 0 106 43 106 100 0 90 -112
135 -176 71z m109 -37 c12 -8 22 -24 22 -34 0 -21 -36 -50 -62 -50 -19 0 -58
34 -58 50 0 16 39 50 58 50 10 0 28 -7 40 -16z"/>
<path d="M5530 3910 c0 -36 -2 -40 -25 -40 -20 0 -25 -5 -25 -25 0 -20 5 -25
25 -25 l25 0 0 -123 c0 -145 6 -160 65 -155 35 3 40 6 43 30 3 21 -1 27 -20
30 -22 3 -23 7 -26 111 l-3 107 26 0 c20 0 25 5 25 25 0 20 -5 25 -25 25 -22
0 -25 4 -25 40 0 38 -2 40 -30 40 -28 0 -30 -2 -30 -40z"/>
<path d="M6190 3854 c-45 -38 -62 -79 -63 -148 -1 -103 41 -157 126 -163 74
-5 122 27 142 95 5 19 3 22 -22 22 -21 0 -32 -8 -45 -30 -30 -53 -107 -50
-128 6 -6 14 -10 50 -10 80 0 48 4 60 29 85 16 16 36 29 45 29 33 0 66 -20 72
-45 5 -20 12 -25 36 -25 26 0 29 3 23 23 -20 70 -56 97 -129 97 -33 0 -52 -6
-76 -26z"/>
<path d="M6790 3854 c-45 -38 -62 -79 -63 -148 -1 -103 41 -157 126 -163 74
-5 122 27 142 95 5 19 3 22 -22 22 -21 0 -32 -8 -45 -30 -30 -53 -107 -50
-128 6 -6 14 -10 50 -10 80 0 48 4 60 29 85 16 16 36 29 45 29 33 0 66 -20 72
-45 5 -20 12 -25 36 -25 26 0 29 3 23 23 -20 70 -56 97 -129 97 -33 0 -52 -6
-76 -26z"/>
<path d="M7232 3860 c-41 -25 -71 -89 -72 -153 0 -101 56 -167 142 -167 62 0
99 21 128 72 l21 38 -31 0 c-18 0 -33 -6 -37 -15 -7 -19 -55 -45 -82 -45 -27
0 -69 39 -77 73 l-6 27 116 0 116 0 0 35 c0 54 -28 112 -65 135 -42 26 -110
26 -153 0z m111 -41 c23 -10 47 -46 47 -69 0 -6 -38 -10 -86 -10 -84 0 -85 0
-78 23 17 56 66 79 117 56z"/>
<path d="M5170 3768 c0 -132 7 -172 36 -203 30 -33 102 -35 145 -4 24 17 29
18 29 5 0 -10 9 -16 25 -16 l25 0 0 160 0 160 -30 0 -30 0 0 -114 c0 -94 -3
-118 -17 -135 -24 -28 -72 -37 -98 -17 -18 13 -20 28 -23 140 l-4 126 -29 0
-29 0 0 -102z"/>
<path d="M5650 3861 c0 -5 25 -80 56 -165 l56 -156 -19 -33 c-15 -24 -26 -32
-46 -30 -24 2 -27 -2 -27 -28 0 -27 3 -29 38 -29 41 0 59 13 85 65 18 35 137
362 137 376 0 5 -13 9 -29 9 -29 0 -31 -3 -68 -115 -20 -63 -40 -115 -43 -115
-3 0 -23 52 -43 115 -37 112 -39 115 -68 115 -16 0 -29 -4 -29 -9z"/>
<path d="M6420 3861 c0 -5 25 -80 56 -165 l56 -156 -19 -33 c-15 -24 -26 -32
-46 -30 -24 2 -27 -2 -27 -28 0 -27 3 -29 38 -29 41 0 59 13 85 65 18 35 137
362 137 376 0 5 -13 9 -29 9 -29 0 -31 -3 -68 -115 -20 -63 -40 -115 -43 -115
-3 0 -23 52 -43 115 -37 112 -39 115 -68 115 -16 0 -29 -4 -29 -9z"/>
<path d="M4448 3721 c-70 -62 -24 -171 73 -171 57 0 99 42 99 100 0 91 -102
133 -172 71z m112 -41 c11 -11 20 -24 20 -30 0 -16 -39 -50 -58 -50 -26 0 -62
29 -62 50 0 21 36 50 62 50 10 0 27 -9 38 -20z"/>
<path d="M3450 3270 l0 -120 35 0 c34 0 35 1 35 40 l0 40 1515 0 1515 0 0 -55
0 -55 35 0 35 0 0 120 0 120 -35 0 c-31 0 -35 -3 -35 -25 l0 -25 -1515 0
-1515 0 0 40 c0 39 -1 40 -35 40 l-35 0 0 -120z"/>
<path d="M3440 2190 l0 -880 6400 -2 6400 -3 -162 -116 c-90 -64 -184 -130
-210 -148 -26 -17 -50 -36 -53 -41 -6 -9 44 -89 55 -90 3 0 55 36 115 80 61
44 195 142 298 217 103 75 186 139 185 143 -4 11 -586 450 -595 450 -5 0 -20
-18 -36 -39 l-27 -39 206 -156 206 -156 -255 0 -256 0 -3 28 -3 27 -312 3
-313 2 -2 783 -3 782 -182 0 c-101 0 -823 -1 -1605 -3 l-1421 -2 5 -768 6
-769 -157 -6 c-86 -4 -314 -7 -507 -7 l-351 0 -6 527 c-4 289 -7 636 -7 770
l0 243 -1582 0 c-871 0 -1593 -3 -1605 -6 l-22 -6 6 -769 6 -769 -511 0 c-282
0 -513 1 -514 3 -1 1 -5 353 -8 782 l-5 780 -1537 -4 -1538 -3 0 21 c0 19 -6
21 -50 21 l-50 0 0 -880z m3103 238 c4 -293 7 -642 7 -775 l0 -243 -1505 0
-1505 0 0 775 0 775 1498 0 1499 0 6 -532z m8460 425 c4 -58 7 -407 7 -775 l0
-668 -1532 0 -1533 0 -3 775 -3 775 1529 0 1529 0 6 -107z m-4233 -673 l0
-770 -1525 0 -1525 0 0 765 0 765 1413 3 c776 1 1463 3 1525 5 l112 2 0 -770z"/>
</g>
</svg>
