<?xml version="1.0" standalone="no"?>
<!DOCTYPE svg PUBLIC "-//W3C//DTD SVG 20010904//EN"
 "http://www.w3.org/TR/2001/REC-SVG-20010904/DTD/svg10.dtd">
<svg version="1.0" xmlns="http://www.w3.org/2000/svg"
 width="1920.000000pt" height="1080.000000pt" viewBox="0 0 1920.000000 1080.000000"
 preserveAspectRatio="xMidYMid meet">

<g transform="translate(0.000000,1080.000000) scale(0.100000,-0.100000)"
fill="#000000" stroke="none">
<path d="M4600 9880 c0 -15 7 -20 25 -20 18 0 25 5 25 20 0 15 -7 20 -25 20
-18 0 -25 -5 -25 -20z"/>
<path d="M4860 9845 c0 -52 -1 -55 -19 -45 -11 5 -36 10 -56 10 -74 0 -124
-99 -96 -190 21 -70 95 -102 149 -64 12 8 22 10 22 5 0 -6 11 -11 25 -11 l25
0 0 175 0 175 -25 0 c-24 0 -25 -3 -25 -55z m-20 -95 c31 -31 28 -119 -5 -150
-21 -20 -30 -22 -52 -14 -37 13 -55 50 -49 104 7 71 63 103 106 60z"/>
<path d="M5100 9725 l0 -175 25 0 c25 0 25 1 25 90 0 77 3 93 20 110 24 24 53
26 74 4 12 -12 16 -37 16 -110 l0 -94 26 0 26 0 -4 111 c-3 102 -5 112 -27
130 -25 21 -81 25 -112 9 -18 -10 -19 -7 -19 45 0 52 -1 55 -25 55 l-25 0 0
-175z"/>
<path d="M3462 9874 c-40 -28 -56 -73 -56 -159 0 -120 37 -175 117 -175 89 0
143 132 107 262 -21 74 -110 113 -168 72z m88 -34 c53 -28 52 -222 -1 -251
-12 -6 -31 -8 -44 -5 -56 14 -72 179 -23 241 21 27 39 31 68 15z"/>
<path d="M3917 9828 c-64 -116 -147 -275 -147 -281 0 -4 6 -7 13 -7 6 0 53 75
102 166 106 195 101 184 82 184 -9 0 -31 -28 -50 -62z"/>
<path d="M3709 9867 c-44 -34 -47 -89 -7 -127 49 -46 138 -7 138 60 0 61 -83
104 -131 67z m72 -37 c35 -19 14 -70 -30 -70 -12 0 -41 28 -41 40 0 12 29 40
41 40 6 0 19 -5 30 -10z"/>
<path d="M4980 9840 c0 -23 -4 -30 -20 -30 -13 0 -20 -7 -20 -20 0 -13 7 -20
20 -20 19 0 20 -7 20 -98 0 -109 6 -122 57 -122 26 0 33 4 33 19 0 13 -8 21
-22 23 -22 3 -23 8 -26 91 l-3 87 26 0 c18 0 25 5 25 20 0 15 -7 20 -25 20
-21 0 -25 5 -25 30 0 23 -4 30 -20 30 -16 0 -20 -7 -20 -30z"/>
<path d="M4246 9723 c13 -48 29 -107 36 -131 9 -38 14 -43 37 -40 23 3 27 10
45 86 11 45 23 82 26 82 3 0 15 -37 26 -82 18 -75 22 -83 45 -86 25 -3 27 2
58 110 18 62 34 121 37 131 4 13 -1 17 -19 17 -23 0 -27 -7 -49 -97 l-24 -98
-23 98 c-22 94 -23 97 -50 97 -27 0 -29 -3 -46 -82 -9 -46 -20 -87 -23 -93 -4
-5 -15 31 -27 80 -19 84 -22 90 -47 93 l-26 3 24 -88z"/>
<path d="M4600 9680 l0 -130 25 0 25 0 0 130 0 130 -25 0 -25 0 0 -130z"/>
<path d="M3939 9697 c-44 -34 -47 -89 -7 -127 49 -46 138 -7 138 60 0 61 -83
104 -131 67z m72 -37 c35 -19 14 -70 -30 -70 -12 0 -41 28 -41 40 0 12 29 40
41 40 6 0 19 -5 30 -10z"/>
<path d="M3450 9200 l0 -120 35 0 35 0 0 120 0 120 -35 0 -35 0 0 -120z"/>
<path d="M3440 8070 l0 -920 6361 0 6361 0 -203 -146 c-112 -81 -208 -150
-213 -155 -5 -5 3 -24 19 -46 16 -21 29 -39 31 -41 4 -6 604 431 599 437 -6
10 -590 451 -597 451 -13 0 -61 -82 -51 -88 5 -4 99 -74 208 -157 l198 -150
-464 -3 -464 -2 -873 872 -872 873 0 -835 0 -835 -835 835 -835 835 0 -835 0
-835 -835 835 -835 835 0 -835 0 -835 -835 835 -835 835 0 -835 0 -835 -835
835 -835 835 0 -835 0 -835 -835 835 -835 835 0 -823 c0 -452 -3 -822 -6 -822
-3 0 -361 352 -795 782 -773 765 -789 782 -789 820 l0 38 -50 0 -50 0 0 -920z
m2550 -35 l785 -785 -788 0 -787 0 0 785 c0 432 1 785 3 785 1 0 355 -353 787
-785z m1670 0 l785 -785 -788 0 -787 0 0 785 c0 432 1 785 3 785 1 0 355 -353
787 -785z m1670 0 l785 -785 -788 0 -787 0 0 785 c0 432 1 785 3 785 1 0 355
-353 787 -785z m1670 0 l785 -785 -788 0 -787 0 0 785 c0 432 1 785 3 785 1 0
355 -353 787 -785z m1670 0 l785 -785 -788 0 -787 0 0 785 c0 432 1 785 3 785
1 0 355 -353 787 -785z m1670 0 l785 -785 -788 0 -787 0 0 785 c0 432 1 785 3
785 1 0 355 -353 787 -785z m-10005 -10 l780 -774 -787 -1 -788 0 0 775 c0
426 3 775 8 775 4 0 358 -349 787 -775z"/>
<path d="M910 8115 l0 -215 30 0 30 0 0 215 0 215 -30 0 -30 0 0 -215z"/>
<path d="M2920 8260 l0 -71 -22 21 c-14 13 -35 20 -62 20 -87 0 -141 -67 -140
-175 1 -67 19 -112 60 -144 36 -28 102 -28 138 0 21 17 26 18 26 5 0 -11 9
-16 30 -16 l30 0 0 215 0 215 -30 0 -30 0 0 -70z m-29 -109 c25 -26 29 -37 29
-88 0 -86 -39 -131 -101 -118 -38 9 -59 49 -59 114 0 59 14 95 44 109 35 18
56 13 87 -17z"/>
<path d="M2230 8259 l0 -40 -53 6 c-44 6 -56 3 -80 -15 -22 -18 -27 -19 -27
-6 0 10 -9 16 -25 16 l-25 0 0 -160 0 -160 30 0 29 0 3 121 c3 118 4 122 29
141 21 16 35 18 73 13 l46 -7 0 -122 c0 -144 6 -159 65 -154 35 3 40 6 43 30
3 21 -1 27 -20 30 -22 3 -23 7 -26 111 l-3 107 26 0 c20 0 25 5 25 25 0 20 -5
25 -25 25 -22 0 -25 4 -25 40 0 38 -2 40 -30 40 -28 0 -30 -2 -30 -41z"/>
<path d="M1143 8210 c-27 -16 -33 -17 -33 -5 0 10 -10 15 -30 15 l-30 0 0
-160 0 -160 30 0 30 0 0 95 c0 61 5 108 15 130 24 60 105 72 125 19 6 -14 10
-75 10 -135 l0 -109 30 0 30 0 0 113 c0 127 -11 180 -43 202 -30 21 -96 19
-134 -5z"/>
<path d="M1742 8210 c-41 -25 -71 -89 -72 -153 0 -101 56 -167 142 -167 62 0
99 21 128 72 l21 38 -31 0 c-18 0 -33 -6 -37 -15 -7 -19 -55 -45 -82 -45 -27
0 -69 39 -77 73 l-6 27 116 0 116 0 0 35 c0 54 -28 112 -65 135 -42 26 -110
26 -153 0z m111 -41 c23 -10 47 -46 47 -69 0 -6 -38 -10 -86 -10 -84 0 -85 0
-78 23 17 56 66 79 117 56z"/>
<path d="M2442 8210 c-41 -25 -71 -89 -72 -153 0 -101 56 -167 142 -167 62 0
99 21 128 72 l21 38 -31 0 c-18 0 -33 -6 -37 -15 -7 -19 -55 -45 -82 -45 -27
0 -69 39 -77 73 l-6 27 116 0 116 0 0 35 c0 54 -28 112 -65 135 -42 26 -110
26 -153 0z m111 -41 c23 -10 47 -46 47 -69 0 -6 -38 -10 -86 -10 -84 0 -85 0
-78 23 17 56 66 79 117 56z"/>
<path d="M1391 8108 c23 -62 48 -134 57 -160 14 -44 19 -48 48 -48 l32 0 56
153 c31 83 56 155 56 160 0 4 -12 7 -28 7 -26 0 -29 -6 -66 -112 -21 -62 -42
-116 -46 -121 -3 -4 -24 47 -45 113 l-38 120 -33 0 -33 0 40 -112z"/>
<path d="M795 7606 c-57 -25 -88 -101 -65 -156 15 -37 48 -55 135 -75 88 -21
114 -34 122 -62 14 -59 -54 -103 -135 -88 -40 7 -82 45 -82 75 0 16 -6 20 -30
20 -26 0 -30 -3 -30 -29 0 -36 42 -89 87 -107 74 -31 199 -6 237 47 23 34 21
110 -5 143 -20 25 -36 31 -172 67 -86 22 -99 93 -22 119 66 22 123 -2 139 -57
10 -32 66 -33 66 -3 0 37 -30 79 -70 100 -46 23 -129 26 -175 6z"/>
<path d="M2890 7395 l0 -215 25 0 c25 0 25 1 25 88 0 93 12 153 34 171 28 23
73 24 95 2 19 -19 21 -32 21 -141 l0 -120 30 0 30 0 0 109 c0 134 -6 164 -38
196 -33 33 -106 35 -146 4 l-26 -20 0 70 c0 69 -1 71 -25 71 l-25 0 0 -215z"/>
<path d="M1900 7540 c0 -36 -2 -40 -25 -40 -20 0 -25 -5 -25 -25 0 -20 5 -25
25 -25 l25 0 0 -123 c0 -145 6 -160 65 -155 35 3 40 6 43 30 3 21 -1 27 -20
30 -22 3 -23 7 -26 111 l-3 107 26 0 c20 0 25 5 25 25 0 20 -5 25 -25 25 -22
0 -25 4 -25 40 0 38 -2 40 -30 40 -28 0 -30 -2 -30 -40z"/>
<path d="M2730 7540 c0 -36 -2 -40 -25 -40 -20 0 -25 -5 -25 -25 0 -20 5 -25
25 -25 l25 0 0 -123 c0 -145 6 -160 65 -155 35 3 40 6 43 30 3 21 -1 27 -20
30 -22 3 -23 7 -26 111 l-3 107 26 0 c20 0 25 5 25 25 0 20 -5 25 -25 25 -22
0 -25 4 -25 40 0 38 -2 40 -30 40 -28 0 -30 -2 -30 -40z"/>
<path d="M1168 7494 c-48 -25 -66 -84 -27 -84 12 0 32 11 45 25 38 41 124 28
124 -19 0 -27 -8 -31 -84 -41 -27 -4 -60 -12 -73 -18 -27 -12 -53 -55 -53 -87
0 -29 27 -77 49 -90 32 -16 93 -11 130 11 l33 20 15 -20 c9 -13 25 -21 44 -21
24 0 29 4 29 25 0 16 -6 25 -15 25 -12 0 -15 19 -15 111 0 61 -5 119 -10 130
-25 46 -134 65 -192 33z m142 -187 c0 -61 -76 -105 -125 -73 -28 18 -32 47
-10 66 12 10 89 33 128 39 4 1 7 -14 7 -32z"/>
<path d="M2130 7503 c-56 -22 -93 -89 -93 -168 0 -113 53 -169 156 -162 46 3
63 9 87 32 37 36 53 92 48 168 -4 51 -9 63 -40 94 -31 31 -44 37 -90 39 -29 2
-60 1 -68 -3z m93 -54 c66 -30 62 -184 -4 -220 -34 -18 -87 -2 -104 31 -18 34
-20 119 -4 154 19 41 67 56 112 35z"/>
<path d="M2460 7503 c-56 -22 -93 -89 -93 -168 0 -113 53 -169 156 -162 46 3
63 9 87 32 37 36 53 92 48 168 -4 51 -9 63 -40 94 -31 31 -44 37 -90 39 -29 2
-60 1 -68 -3z m93 -54 c66 -30 62 -184 -4 -220 -34 -18 -87 -2 -104 31 -18 34
-20 119 -4 154 19 41 67 56 112 35z"/>
<path d="M1446 7418 c14 -46 34 -118 45 -161 21 -77 22 -78 52 -75 30 3 31 5
58 111 15 60 29 110 31 112 2 3 17 -47 32 -111 l28 -115 31 3 c31 3 31 4 74
148 23 80 42 151 43 158 0 9 -10 12 -27 10 -25 -3 -28 -10 -58 -121 l-31 -118
-29 120 -29 121 -32 0 -32 0 -28 -115 c-16 -63 -31 -109 -35 -103 -3 7 -17 59
-29 116 l-23 102 -32 0 -33 0 24 -82z"/>
<path d="M4950 6830 c0 -15 7 -20 25 -20 18 0 25 5 25 20 0 15 -7 20 -25 20
-18 0 -25 -5 -25 -20z"/>
<path d="M5210 6795 c0 -52 -1 -55 -19 -45 -11 5 -36 10 -56 10 -74 0 -124
-99 -96 -190 21 -70 95 -102 149 -64 12 8 22 10 22 5 0 -6 11 -11 25 -11 l25
0 0 175 0 175 -25 0 c-24 0 -25 -3 -25 -55z m-20 -95 c31 -31 28 -119 -5 -150
-21 -20 -30 -22 -52 -14 -37 13 -55 50 -49 104 7 71 63 103 106 60z"/>
<path d="M5450 6675 l0 -175 25 0 c25 0 25 1 25 90 0 77 3 93 20 110 24 24 53
26 74 4 12 -12 16 -37 16 -110 l0 -94 26 0 26 0 -4 111 c-3 102 -5 112 -27
130 -25 21 -81 25 -112 9 -18 -10 -19 -7 -19 45 0 52 -1 55 -25 55 l-25 0 0
-175z"/>
<path d="M3526 6808 c-23 -139 -23 -158 -6 -158 10 0 31 7 46 15 41 21 61 19
89 -10 32 -31 32 -69 -1 -102 -20 -20 -31 -24 -57 -19 -18 3 -38 15 -46 26 -7
11 -24 20 -37 20 -21 0 -22 -2 -12 -30 14 -42 59 -63 120 -58 56 6 83 26 99
75 16 49 4 97 -33 128 -26 22 -39 26 -80 23 -46 -3 -48 -2 -48 24 0 53 7 58
81 58 62 0 69 2 69 20 0 19 -7 20 -90 20 l-89 0 -5 -32z"/>
<path d="M3812 6824 c-40 -28 -56 -73 -56 -159 0 -120 37 -175 117 -175 89 0
143 132 107 262 -21 74 -110 113 -168 72z m88 -34 c53 -28 52 -222 -1 -251
-12 -6 -31 -8 -44 -5 -56 14 -72 179 -23 241 21 27 39 31 68 15z"/>
<path d="M4267 6778 c-64 -116 -147 -275 -147 -281 0 -4 6 -7 13 -7 6 0 53 75
102 166 106 195 101 184 82 184 -9 0 -31 -28 -50 -62z"/>
<path d="M4059 6817 c-44 -34 -47 -89 -7 -127 49 -46 138 -7 138 60 0 61 -83
104 -131 67z m72 -37 c35 -19 14 -70 -30 -70 -12 0 -41 28 -41 40 0 12 29 40
41 40 6 0 19 -5 30 -10z"/>
<path d="M5330 6790 c0 -23 -4 -30 -20 -30 -13 0 -20 -7 -20 -20 0 -13 7 -20
20 -20 19 0 20 -7 20 -98 0 -109 6 -122 57 -122 26 0 33 4 33 19 0 13 -8 21
-22 23 -22 3 -23 8 -26 91 l-3 87 26 0 c18 0 25 5 25 20 0 15 -7 20 -25 20
-21 0 -25 5 -25 30 0 23 -4 30 -20 30 -16 0 -20 -7 -20 -30z"/>
<path d="M4596 6673 c13 -48 29 -107 36 -131 9 -38 14 -43 37 -40 23 3 27 10
45 86 11 45 23 82 26 82 3 0 15 -37 26 -82 18 -75 22 -83 45 -86 25 -3 27 2
58 110 18 62 34 121 37 131 4 13 -1 17 -19 17 -23 0 -27 -7 -49 -97 l-24 -98
-23 98 c-22 94 -23 97 -50 97 -27 0 -29 -3 -46 -82 -9 -46 -20 -87 -23 -93 -4
-5 -15 31 -27 80 -19 84 -22 90 -47 93 l-26 3 24 -88z"/>
<path d="M4950 6630 l0 -130 25 0 25 0 0 130 0 130 -25 0 -25 0 0 -130z"/>
<path d="M4289 6647 c-44 -34 -47 -89 -7 -127 49 -46 138 -7 138 60 0 61 -83
104 -131 67z m72 -37 c35 -19 14 -70 -30 -70 -12 0 -41 28 -41 40 0 12 29 40
41 40 6 0 19 -5 30 -10z"/>
<path d="M3440 6225 l0 -125 35 0 c35 0 35 0 35 45 l0 45 390 0 390 0 0 -45
c0 -45 0 -45 35 -45 l35 0 0 125 0 125 -35 0 c-35 0 -35 0 -35 -45 l0 -45
-390 0 -390 0 0 45 c0 45 0 45 -35 45 l-35 0 0 -125z"/>
<path d="M5580 5234 l-415 -835 -415 831 c-228 456 -418 830 -421 830 -3 0
-179 -354 -390 -786 -211 -432 -387 -788 -391 -790 -4 -3 -8 344 -8 770 l0
776 -50 0 -50 0 0 -900 0 -900 2524 0 c1750 0 2527 -3 2531 -10 5 -8 11 -8 19
0 9 7 1187 9 3867 8 l3853 -3 -227 -163 c-143 -103 -224 -168 -220 -175 19
-32 48 -67 55 -67 14 0 593 420 593 429 0 10 -581 451 -594 451 -6 0 -36 -36
-54 -67 -5 -8 56 -59 175 -149 101 -75 187 -141 192 -145 6 -5 -196 -9 -460
-9 l-469 0 -433 865 c-238 476 -436 865 -440 865 -4 0 -191 -372 -416 -825
-225 -454 -412 -825 -415 -825 -3 0 -193 371 -421 825 -228 454 -418 825 -421
825 -3 0 -192 -375 -419 -832 l-413 -832 -416 832 c-229 457 -418 832 -421
832 -3 0 -192 -373 -420 -830 l-415 -829 -380 737 c-209 405 -403 781 -431
835 l-50 98 -404 -848 c-221 -466 -404 -849 -405 -850 -1 -2 -188 377 -415
842 -228 465 -416 845 -419 845 -4 0 -193 -374 -421 -830 l-415 -830 -417 835
c-230 459 -419 835 -421 835 -1 -1 -189 -377 -417 -836z m-852 -119 l392 -785
-780 0 -781 0 14 28 c7 15 180 368 383 785 203 416 371 757 374 757 3 0 182
-353 398 -785z m1670 0 l392 -785 -790 0 -790 0 392 785 c216 432 395 785 398
785 3 0 182 -353 398 -785z m1657 9 c209 -427 382 -781 383 -785 2 -5 -343 -9
-777 -9 l-781 0 392 785 c216 432 395 785 398 785 3 0 176 -349 385 -776z
m1674 -14 l399 -775 -776 -3 c-426 -1 -777 0 -779 2 -3 2 163 356 368 786 205
429 376 777 380 773 4 -4 188 -357 408 -783z m1679 5 l392 -785 -785 0 c-432
0 -785 3 -785 8 -1 11 774 1562 780 1562 3 0 182 -353 398 -785z m1667 9 c215
-427 392 -780 393 -785 2 -5 -316 -9 -783 -9 -459 0 -785 4 -783 9 13 35 773
1561 777 1561 4 0 182 -350 396 -776z m1806 -266 c142 -285 259 -520 259 -523
0 -3 -353 -5 -785 -5 -432 0 -785 2 -785 5 0 3 176 357 391 787 l391 782 135
-265 c74 -145 251 -497 394 -781z"/>
<path d="M970 4685 c0 -24 2 -25 70 -25 l70 0 0 -190 0 -190 35 0 35 0 0 190
0 190 70 0 c68 0 70 1 70 25 l0 25 -175 0 -175 0 0 -25z"/>
<path d="M1540 4685 c0 -21 5 -25 30 -25 25 0 30 4 30 25 0 21 -5 25 -30 25
-25 0 -30 -4 -30 -25z"/>
<path d="M2680 4495 l0 -215 30 0 30 0 0 215 0 215 -30 0 -30 0 0 -215z"/>
<path d="M1416 4589 c-21 -17 -26 -18 -26 -5 0 10 -9 16 -25 16 l-25 0 0 -160
0 -160 30 0 30 0 0 119 c0 117 1 120 26 140 15 12 37 21 50 21 19 0 24 5 24
25 0 21 -5 25 -29 25 -15 0 -40 -9 -55 -21z"/>
<path d="M1728 4594 c-48 -25 -66 -84 -27 -84 12 0 32 11 45 25 38 41 124 28
124 -19 0 -27 -8 -31 -84 -41 -27 -4 -60 -12 -73 -18 -27 -12 -53 -55 -53 -87
0 -29 27 -77 49 -90 32 -16 93 -11 130 11 l33 20 15 -20 c9 -13 25 -21 44 -21
24 0 29 4 29 25 0 16 -6 25 -15 25 -12 0 -15 19 -15 111 0 61 -5 119 -10 130
-25 46 -134 65 -192 33z m142 -187 c0 -61 -76 -105 -125 -73 -28 18 -32 47
-10 66 12 10 89 33 128 39 4 1 7 -14 7 -32z"/>
<path d="M2093 4590 c-27 -16 -33 -17 -33 -5 0 10 -10 15 -30 15 l-30 0 0
-160 0 -160 30 0 30 0 0 95 c0 61 5 108 15 130 24 60 105 72 125 19 6 -14 10
-75 10 -135 l0 -109 30 0 30 0 0 113 c0 127 -11 180 -43 202 -30 21 -96 19
-134 -5z"/>
<path d="M2384 4591 c-43 -26 -66 -81 -66 -156 0 -71 19 -113 62 -139 39 -23
101 -21 134 5 l26 20 0 -24 c0 -13 -5 -38 -10 -54 -18 -52 -93 -70 -130 -33
-26 26 -70 27 -70 2 0 -58 127 -94 196 -57 58 31 68 68 72 268 l4 177 -31 0
c-22 0 -31 -5 -31 -16 0 -13 -5 -12 -26 5 -33 26 -89 27 -130 2z m127 -60 c24
-25 29 -38 29 -78 0 -59 -17 -94 -54 -111 -62 -30 -109 14 -108 102 0 62 14
93 45 106 38 15 58 11 88 -19z"/>
<path d="M2862 4590 c-41 -25 -71 -89 -72 -153 0 -101 56 -167 142 -167 62 0
99 21 128 72 l21 38 -31 0 c-18 0 -33 -6 -37 -15 -7 -19 -55 -45 -82 -45 -27
0 -69 39 -77 73 l-6 27 116 0 116 0 0 35 c0 54 -28 112 -65 135 -42 26 -110
26 -153 0z m111 -41 c23 -10 47 -46 47 -69 0 -6 -38 -10 -86 -10 -84 0 -85 0
-78 23 17 56 66 79 117 56z"/>
<path d="M1540 4440 l0 -160 30 0 30 0 0 160 0 160 -30 0 -30 0 0 -160z"/>
<path d="M5130 3890 c0 -15 7 -20 25 -20 18 0 25 5 25 20 0 15 -7 20 -25 20
-18 0 -25 -5 -25 -20z"/>
<path d="M5400 3855 c0 -52 -1 -55 -19 -45 -11 5 -36 10 -56 10 -74 0 -124
-99 -96 -190 21 -70 95 -102 149 -64 12 8 22 10 22 5 0 -6 11 -11 25 -11 l25
0 0 175 0 175 -25 0 c-24 0 -25 -3 -25 -55z m-20 -95 c31 -31 28 -119 -5 -150
-21 -20 -30 -22 -52 -14 -37 13 -55 50 -49 104 7 71 63 103 106 60z"/>
<path d="M5640 3735 l0 -175 25 0 c25 0 25 1 25 90 0 77 3 93 20 110 24 24 53
26 74 4 12 -12 16 -37 16 -110 l0 -94 26 0 26 0 -4 111 c-3 102 -5 112 -27
130 -25 21 -81 25 -112 9 -18 -10 -19 -7 -19 45 0 52 -1 55 -25 55 l-25 0 0
-175z"/>
<path d="M3512 3876 c-7 -16 -22 -26 -46 -30 -51 -10 -48 -36 4 -36 l40 0 0
-125 0 -125 25 0 25 0 0 170 c0 158 -1 170 -18 170 -11 0 -24 -11 -30 -24z"/>
<path d="M3732 3884 c-40 -28 -56 -73 -56 -159 0 -120 37 -175 117 -175 89 0
143 132 107 262 -21 74 -110 113 -168 72z m88 -34 c53 -28 52 -222 -1 -251
-12 -6 -31 -8 -44 -5 -56 14 -72 179 -23 241 21 27 39 31 68 15z"/>
<path d="M4002 3884 c-40 -28 -56 -73 -56 -159 0 -120 37 -175 117 -175 89 0
143 132 107 262 -21 74 -110 113 -168 72z m88 -34 c53 -28 52 -222 -1 -251
-12 -6 -31 -8 -44 -5 -56 14 -72 179 -23 241 21 27 39 31 68 15z"/>
<path d="M4447 3838 c-64 -116 -147 -275 -147 -281 0 -4 6 -7 13 -7 6 0 53 75
102 166 106 195 101 184 82 184 -9 0 -31 -28 -50 -62z"/>
<path d="M4239 3877 c-44 -34 -47 -89 -7 -127 49 -46 138 -7 138 60 0 61 -83
104 -131 67z m72 -37 c35 -19 14 -70 -30 -70 -12 0 -41 28 -41 40 0 12 29 40
41 40 6 0 19 -5 30 -10z"/>
<path d="M5510 3850 c0 -23 -4 -30 -20 -30 -13 0 -20 -7 -20 -20 0 -13 7 -20
20 -20 19 0 20 -7 20 -98 0 -109 6 -122 57 -122 26 0 33 4 33 19 0 13 -8 21
-22 23 -22 3 -23 8 -26 91 l-3 87 26 0 c18 0 25 5 25 20 0 15 -7 20 -25 20
-21 0 -25 5 -25 30 0 23 -4 30 -20 30 -16 0 -20 -7 -20 -30z"/>
<path d="M4776 3733 c13 -48 29 -107 36 -131 9 -38 14 -43 37 -40 23 3 27 10
45 86 11 45 23 82 26 82 3 0 15 -37 26 -82 18 -75 22 -83 45 -86 25 -3 27 2
58 110 18 62 34 121 37 131 4 13 -1 17 -19 17 -23 0 -27 -7 -49 -97 l-24 -98
-23 98 c-22 94 -23 97 -50 97 -27 0 -29 -3 -46 -82 -9 -46 -20 -87 -23 -93 -4
-5 -15 31 -27 80 -19 84 -22 90 -47 93 l-26 3 24 -88z"/>
<path d="M5130 3690 l0 -130 25 0 25 0 0 130 0 130 -25 0 -25 0 0 -130z"/>
<path d="M4469 3707 c-44 -34 -47 -89 -7 -127 49 -46 138 -7 138 60 0 61 -83
104 -131 67z m72 -37 c35 -19 14 -70 -30 -70 -12 0 -41 28 -41 40 0 12 29 40
41 40 6 0 19 -5 30 -10z"/>
<path d="M3450 3270 l0 -120 35 0 c34 0 35 1 35 40 l0 40 805 0 805 0 0 -40 0
-40 40 0 40 0 0 120 0 120 -40 0 -40 0 0 -40 0 -40 -805 0 -805 0 0 40 c0 39
-1 40 -35 40 l-35 0 0 -120z"/>
<path d="M4377 2304 c-451 -456 -823 -830 -828 -832 -5 -2 -9 321 -9 797 l0
801 -50 0 -50 0 0 -880 0 -880 3353 0 c1843 0 4724 0 6402 0 1677 0 3045 -4
3040 -8 -6 -5 -103 -76 -217 -157 -223 -160 -215 -150 -166 -207 l23 -26 295
213 c162 118 295 218 295 223 0 10 -580 452 -592 452 -5 0 -20 -18 -36 -39
l-27 -39 206 -156 206 -156 -494 0 -495 0 -6 578 c-4 317 -7 705 -7 862 l0
285 -835 -835 -835 -835 -2 831 -3 832 -830 -811 -830 -811 -5 812 -5 812
-830 -830 -830 -830 -5 829 -5 830 -830 -814 -830 -814 -5 814 -5 815 -830
-814 -830 -814 -5 814 -5 815 -830 -814 -830 -815 -5 816 -5 816 -818 -830z
m750 -891 c-2 -2 -347 -2 -766 -1 l-762 3 763 774 763 774 3 -773 c1 -425 1
-775 -1 -777z m1670 0 c-2 -2 -358 -2 -791 -1 l-788 3 788 774 789 774 3 -773
c1 -425 1 -775 -1 -777z m1670 0 c-2 -2 -358 -2 -791 -1 l-788 3 789 773 788
774 3 -773 c1 -425 1 -774 -1 -776z m1670 0 c-2 -2 -358 -2 -791 -1 l-787 3
788 773 788 772 3 -771 c1 -425 1 -774 -1 -776z m1673 772 l0 -775 -777 0
-778 0 775 775 c426 426 776 775 777 775 2 0 3 -349 3 -775z m1667 -772 c-2
-2 -359 -2 -794 -1 l-789 3 790 772 791 772 3 -771 c1 -424 1 -773 -1 -775z
m1673 772 l0 -775 -777 0 -778 0 775 775 c426 426 776 775 777 775 2 0 3 -349
3 -775z"/>
<path d="M835 1786 c-57 -25 -88 -101 -65 -156 15 -37 48 -55 135 -75 88 -21
114 -34 122 -62 14 -59 -54 -103 -135 -88 -40 7 -82 45 -82 75 0 16 -6 20 -30
20 -26 0 -30 -3 -30 -29 0 -36 42 -89 87 -107 74 -31 199 -6 237 47 23 34 21
110 -5 143 -20 25 -36 31 -172 67 -86 22 -99 93 -22 119 66 22 123 -2 139 -57
10 -32 66 -33 66 -3 0 37 -30 79 -70 100 -46 23 -129 26 -175 6z"/>
<path d="M2930 1575 l0 -215 25 0 c25 0 25 1 25 88 0 93 12 153 34 171 28 23
73 24 95 2 19 -19 21 -32 21 -141 l0 -120 30 0 30 0 0 109 c0 134 -6 164 -38
196 -33 33 -106 35 -146 4 l-26 -20 0 70 c0 69 -1 71 -25 71 l-25 0 0 -215z"/>
<path d="M1940 1720 c0 -36 -2 -40 -25 -40 -20 0 -25 -5 -25 -25 0 -20 5 -25
25 -25 l25 0 0 -123 c0 -145 6 -160 65 -155 35 3 40 6 43 30 3 21 -1 27 -20
30 -22 3 -23 7 -26 111 l-3 107 26 0 c20 0 25 5 25 25 0 20 -5 25 -25 25 -22
0 -25 4 -25 40 0 38 -2 40 -30 40 -28 0 -30 -2 -30 -40z"/>
<path d="M2770 1720 c0 -36 -2 -40 -25 -40 -20 0 -25 -5 -25 -25 0 -20 5 -25
25 -25 l25 0 0 -123 c0 -145 6 -160 65 -155 35 3 40 6 43 30 3 21 -1 27 -20
30 -22 3 -23 7 -26 111 l-3 107 26 0 c20 0 25 5 25 25 0 20 -5 25 -25 25 -22
0 -25 4 -25 40 0 38 -2 40 -30 40 -28 0 -30 -2 -30 -40z"/>
<path d="M1208 1674 c-48 -25 -66 -84 -27 -84 12 0 32 11 45 25 38 41 124 28
124 -19 0 -27 -8 -31 -84 -41 -27 -4 -60 -12 -73 -18 -27 -12 -53 -55 -53 -87
0 -29 27 -77 49 -90 32 -16 93 -11 130 11 l33 20 15 -20 c9 -13 25 -21 44 -21
24 0 29 4 29 25 0 16 -6 25 -15 25 -12 0 -15 19 -15 111 0 61 -5 119 -10 130
-25 46 -134 65 -192 33z m142 -187 c0 -61 -76 -105 -125 -73 -28 18 -32 47
-10 66 12 10 89 33 128 39 4 1 7 -14 7 -32z"/>
<path d="M2160 1683 c-56 -22 -93 -89 -93 -168 0 -113 53 -169 156 -162 46 3
63 9 87 32 37 36 53 92 48 168 -4 51 -9 63 -40 94 -31 31 -44 37 -90 39 -29 2
-60 1 -68 -3z m93 -54 c66 -30 62 -184 -4 -220 -34 -18 -87 -2 -104 31 -18 34
-20 119 -4 154 19 41 67 56 112 35z"/>
<path d="M2500 1683 c-56 -22 -93 -89 -93 -168 0 -113 53 -169 156 -162 46 3
63 9 87 32 37 36 53 92 48 168 -4 51 -9 63 -40 94 -31 31 -44 37 -90 39 -29 2
-60 1 -68 -3z m93 -54 c66 -30 62 -184 -4 -220 -34 -18 -87 -2 -104 31 -18 34
-20 119 -4 154 19 41 67 56 112 35z"/>
<path d="M1476 1598 c14 -46 34 -118 45 -161 21 -77 22 -78 52 -75 30 3 31 5
58 111 15 60 29 110 31 112 2 3 17 -47 32 -111 l28 -115 31 3 c31 3 31 4 74
148 23 80 42 151 43 158 0 9 -10 12 -27 10 -25 -3 -28 -10 -58 -121 l-31 -118
-29 120 -29 121 -32 0 -32 0 -28 -115 c-16 -63 -31 -109 -35 -103 -3 7 -17 59
-29 116 l-23 102 -32 0 -33 0 24 -82z"/>
</g>
</svg>
