<?xml version="1.0" standalone="no"?>
<!DOCTYPE svg PUBLIC "-//W3C//DTD SVG 20010904//EN"
 "http://www.w3.org/TR/2001/REC-SVG-20010904/DTD/svg10.dtd">
<svg version="1.0" xmlns="http://www.w3.org/2000/svg"
 width="1920.000000pt" height="1080.000000pt" viewBox="0 0 1920.000000 1080.000000"
 preserveAspectRatio="xMidYMid meet">

<g transform="translate(0.000000,1080.000000) scale(0.100000,-0.100000)"
fill="#000000" stroke="none">
<path d="M9112 8106 c-7 -16 -22 -26 -46 -30 -51 -10 -48 -36 4 -36 l40 0 0
-125 0 -125 25 0 25 0 0 170 c0 158 -1 170 -18 170 -11 0 -24 -11 -30 -24z"/>
<path d="M9462 8114 c-40 -28 -56 -73 -56 -159 0 -120 37 -175 117 -175 89 0
143 132 107 262 -21 74 -110 113 -168 72z m88 -34 c53 -28 52 -222 -1 -251
-12 -6 -31 -8 -44 -5 -56 14 -72 179 -23 241 21 27 39 31 68 15z"/>
<path d="M9870 7987 l0 -104 -90 -49 c-49 -27 -90 -54 -90 -60 0 -7 8 -22 18
-34 l18 -22 72 40 72 41 0 -2050 0 -2049 -50 25 c-62 31 -66 31 -84 -3 l-15
-28 75 -37 74 -37 0 -400 0 -400 3038 -2 3037 -3 -150 -81 c-82 -45 -175 -94
-205 -109 -30 -15 -56 -29 -58 -30 -3 -3 35 -84 44 -94 4 -4 624 331 624 338
-1 3 -126 84 -278 179 -152 95 -291 182 -309 193 l-32 20 -27 -41 c-23 -35
-25 -43 -13 -54 8 -7 82 -55 164 -106 83 -51 154 -97 160 -102 5 -4 -1317 -8
-2938 -8 l-2947 0 0 1539 c0 847 3 1547 6 1556 4 8 19 22 35 30 63 33 123 11
215 -77 102 -97 215 -275 364 -567 72 -141 151 -236 234 -279 73 -38 170 -37
244 1 70 37 132 95 202 189 70 93 128 207 300 586 73 161 134 291 136 289 2
-2 85 -556 184 -1233 99 -676 183 -1246 187 -1266 l6 -38 -52 0 -51 0 0 -35 0
-35 130 0 130 0 0 35 0 35 -65 0 c-46 0 -65 4 -65 13 0 15 419 3675 423 3697
1 8 8 -73 15 -180 51 -786 135 -1503 213 -1819 52 -208 99 -291 167 -291 62 0
92 46 152 227 262 791 533 1333 666 1333 30 0 34 -6 179 -271 276 -504 511
-864 617 -942 16 -12 52 -24 86 -27 46 -6 82 -21 179 -77 156 -90 239 -117
332 -111 134 10 231 93 340 290 102 188 192 272 324 304 88 22 173 9 275 -42
70 -34 74 -35 93 -18 10 9 19 23 19 29 0 19 -129 83 -201 100 -87 20 -155 19
-231 -5 -146 -45 -238 -139 -371 -380 -128 -234 -274 -265 -527 -114 -130 77
-168 94 -220 94 -41 0 -48 4 -97 56 -63 67 -216 292 -345 509 -98 165 -276
481 -321 571 -54 107 -130 133 -219 74 -82 -55 -164 -177 -284 -425 -116 -240
-278 -657 -384 -991 -26 -82 -51 -121 -70 -109 -54 33 -128 353 -184 795 -57
445 -126 1273 -144 1735 l-7 170 -127 3 -128 3 0 -40 0 -40 88 -3 87 -3 -206
-1800 c-113 -990 -208 -1809 -210 -1819 -2 -11 -80 501 -174 1137 -93 636
-173 1153 -177 1149 -4 -4 -94 -198 -201 -432 -232 -508 -233 -511 -310 -623
-130 -191 -260 -254 -379 -184 -77 45 -130 115 -219 288 -93 183 -188 343
-252 427 -64 83 -169 179 -219 202 -46 21 -121 26 -162 10 l-26 -10 0 990 0
990 -55 0 -55 0 0 -103z"/>
<path d="M2390 5715 l0 -2215 2605 -2 2606 -3 -158 -84 c-87 -46 -168 -90
-181 -98 l-22 -14 21 -42 c12 -23 23 -44 25 -46 4 -4 624 331 624 338 0 5
-541 349 -596 379 -22 11 -25 10 -49 -28 -14 -22 -25 -42 -25 -44 0 -3 88 -60
195 -127 107 -67 195 -123 195 -125 0 -2 -1154 -4 -2565 -4 l-2565 0 0 630 0
630 40 0 40 0 0 40 0 40 -40 0 -40 0 0 340 0 340 28 11 c43 17 122 5 193 -28
56 -26 107 -62 267 -186 54 -41 160 -71 236 -64 134 11 224 62 395 222 l114
108 127 -369 127 -369 -54 -3 -53 -3 0 -40 0 -40 128 3 127 3 0 35 0 35 -52 3
c-29 2 -53 5 -53 7 0 2 63 238 140 524 77 286 140 524 141 528 0 4 15 -64 34
-152 64 -310 127 -456 212 -492 58 -24 90 -6 180 105 141 171 251 275 347 326
80 42 92 39 245 -78 244 -185 382 -266 455 -266 21 0 86 -12 145 -26 203 -50
330 -36 443 50 127 96 263 120 460 81 34 -7 36 -6 43 25 4 17 5 34 2 37 -3 2
-47 12 -99 20 -161 28 -332 -9 -431 -93 -94 -80 -212 -94 -403 -49 -58 14
-122 25 -142 25 -68 1 -183 68 -436 258 -145 109 -150 112 -201 112 -121 0
-306 -148 -506 -405 -56 -71 -78 -73 -119 -8 -73 114 -145 430 -188 820 l-8
72 55 3 56 3 0 35 0 35 -127 3 -128 3 0 -41 0 -40 65 0 c36 0 65 -4 65 -9 0
-28 -329 -1223 -334 -1211 -3 8 -55 159 -116 334 -60 175 -112 321 -115 324
-2 3 -43 -31 -90 -74 -259 -239 -312 -276 -425 -296 -46 -8 -71 -6 -119 6 -63
16 -92 34 -216 132 -38 30 -108 74 -154 97 -80 40 -89 42 -173 42 l-88 0 0
328 c0 284 2 327 15 327 11 0 15 11 15 40 0 29 -4 40 -15 40 -13 0 -15 89 -15
745 l0 745 -55 0 -55 0 0 -2215z"/>
<path d="M10030 7810 l0 -41 128 3 127 3 0 35 0 35 -127 3 -128 3 0 -41z"/>
<path d="M10410 7810 l0 -40 130 0 130 0 0 40 0 40 -130 0 -130 0 0 -40z"/>
<path d="M10800 7810 l0 -41 128 3 127 3 0 35 0 35 -127 3 -128 3 0 -41z"/>
<path d="M11180 7810 l0 -40 130 0 130 0 0 40 0 40 -130 0 -130 0 0 -40z"/>
<path d="M11570 7810 l0 -41 128 3 127 3 0 35 0 35 -127 3 -128 3 0 -41z"/>
<path d="M11950 7810 l0 -40 130 0 130 0 0 40 0 40 -130 0 -130 0 0 -40z"/>
<path d="M12720 7810 l0 -40 130 0 130 0 0 40 0 40 -130 0 -130 0 0 -40z"/>
<path d="M13150 7810 l0 -40 130 0 130 0 0 40 0 40 -130 0 -130 0 0 -40z"/>
<path d="M13540 7810 l0 -41 128 3 127 3 0 35 0 35 -127 3 -128 3 0 -41z"/>
<path d="M13920 7810 l0 -40 130 0 130 0 0 40 0 40 -130 0 -130 0 0 -40z"/>
<path d="M14310 7810 l0 -41 128 3 127 3 0 35 0 35 -127 3 -128 3 0 -41z"/>
<path d="M14730 7810 l0 -40 130 0 130 0 0 40 0 40 -130 0 -130 0 0 -40z"/>
<path d="M15160 7810 l0 -40 130 0 130 0 0 40 0 40 -130 0 -130 0 0 -40z"/>
<path d="M15550 7810 l0 -41 128 3 127 3 0 35 0 35 -127 3 -128 3 0 -41z"/>
<path d="M15930 7810 l0 -40 130 0 130 0 0 40 0 40 -130 0 -130 0 0 -40z"/>
<path d="M16320 7810 l0 -41 128 3 127 3 0 35 0 35 -127 3 -128 3 0 -41z"/>
<path d="M9290 7810 c0 -15 7 -20 25 -20 18 0 25 5 25 20 0 15 -7 20 -25 20
-18 0 -25 -5 -25 -20z"/>
<path d="M9473 7662 c-57 -32 -105 -61 -109 -64 -3 -3 2 -20 11 -38 15 -29 18
-30 38 -17 12 7 61 35 110 61 48 26 87 53 87 59 0 7 -8 22 -18 34 l-17 23
-102 -58z"/>
<path d="M9140 7475 c-52 -30 -99 -56 -104 -58 -8 -3 19 -67 29 -67 9 0 206
113 210 121 8 11 -16 59 -29 59 -6 0 -54 -25 -106 -55z"/>
<path d="M8807 7289 l-107 -60 15 -29 c9 -17 19 -30 24 -30 8 0 200 106 210
116 5 5 -20 64 -28 64 -3 0 -54 -27 -114 -61z"/>
<path d="M8455 7093 c-136 -77 -128 -69 -108 -101 9 -15 18 -29 19 -30 1 -2
52 24 113 58 l111 62 -15 29 c-9 16 -21 29 -28 28 -6 0 -48 -21 -92 -46z"/>
<path d="M8108 6898 l-108 -60 17 -29 c10 -16 21 -29 25 -29 6 0 200 104 216
116 6 4 -28 64 -36 64 -4 -1 -55 -28 -114 -62z"/>
<path d="M7788 6718 c-60 -33 -108 -66 -108 -73 0 -7 8 -22 18 -33 17 -21 17
-21 120 37 57 33 106 61 109 65 3 3 -3 18 -13 35 l-19 29 -107 -60z"/>
<path d="M7460 6535 c-52 -30 -99 -56 -104 -58 -12 -4 12 -67 25 -67 12 0 208
110 214 121 6 9 -23 59 -34 59 -3 0 -49 -25 -101 -55z"/>
<path d="M2660 6400 l0 -41 128 3 127 3 0 35 0 35 -127 3 -128 3 0 -41z"/>
<path d="M3040 6400 l0 -40 130 0 130 0 0 40 0 40 -130 0 -130 0 0 -40z"/>
<path d="M3430 6400 l0 -41 128 3 127 3 0 35 0 35 -127 3 -128 3 0 -41z"/>
<path d="M3810 6400 l0 -40 130 0 130 0 0 40 0 40 -130 0 -130 0 0 -40z"/>
<path d="M4580 6400 l0 -40 130 0 130 0 0 40 0 40 -130 0 -130 0 0 -40z"/>
<path d="M4970 6400 l0 -41 128 3 127 3 0 35 0 35 -127 3 -128 3 0 -41z"/>
<path d="M5350 6400 l0 -40 130 0 130 0 0 40 0 40 -130 0 -130 0 0 -40z"/>
<path d="M5780 6400 l0 -40 130 0 130 0 0 40 0 40 -130 0 -130 0 0 -40z"/>
<path d="M6170 6400 l0 -41 128 3 127 3 0 35 0 35 -127 3 -128 3 0 -41z"/>
<path d="M6550 6400 l0 -40 130 0 130 0 0 40 0 40 -130 0 -130 0 0 -40z"/>
<path d="M6940 6400 l0 -41 128 3 127 3 0 35 0 35 -127 3 -128 3 0 -41z"/>
<path d="M2720 4900 l0 -40 130 0 130 0 0 40 0 40 -130 0 -130 0 0 -40z"/>
<path d="M3110 4900 l0 -41 128 3 127 3 0 35 0 35 -127 3 -128 3 0 -41z"/>
<path d="M3490 4900 l0 -40 130 0 130 0 0 40 0 40 -130 0 -130 0 0 -40z"/>
<path d="M4260 4900 l0 -40 130 0 130 0 0 40 0 40 -130 0 -130 0 0 -40z"/>
<path d="M4650 4900 l0 -41 128 3 127 3 0 35 0 35 -127 3 -128 3 0 -41z"/>
<path d="M5030 4900 l0 -40 130 0 130 0 0 40 0 40 -130 0 -130 0 0 -40z"/>
<path d="M5420 4900 l0 -41 128 3 127 3 0 35 0 35 -127 3 -128 3 0 -41z"/>
<path d="M5850 4900 l0 -41 128 3 127 3 0 35 0 35 -127 3 -128 3 0 -41z"/>
<path d="M6230 4900 l0 -40 130 0 130 0 0 40 0 40 -130 0 -130 0 0 -40z"/>
<path d="M6620 4900 l0 -41 128 3 127 3 0 35 0 35 -127 3 -128 3 0 -41z"/>
<path d="M7000 4900 l0 -40 130 0 130 0 0 40 0 40 -130 0 -130 0 0 -40z"/>
<path d="M7435 4880 l-15 -30 110 -55 110 -55 15 30 c8 16 15 31 15 34 0 7
-196 106 -210 106 -5 0 -16 -13 -25 -30z"/>
<path d="M7760 4720 c-7 -17 -11 -32 -9 -34 9 -9 211 -107 214 -104 8 10 25
48 25 57 0 10 -190 111 -209 111 -5 0 -14 -14 -21 -30z"/>
<path d="M8085 4559 c-9 -17 -15 -32 -13 -34 6 -5 208 -105 213 -105 2 0 11
13 20 30 l15 30 -110 55 -110 55 -15 -31z"/>
<path d="M8408 4396 l-16 -32 104 -52 c57 -29 108 -52 113 -52 7 0 31 43 31
55 0 3 -49 29 -108 59 l-109 55 -15 -33z"/>
<path d="M8765 4210 l-15 -30 111 -55 c61 -31 112 -55 114 -53 8 10 25 48 25
57 0 11 -190 111 -210 111 -5 0 -16 -13 -25 -30z"/>
<path d="M9090 4050 c-7 -17 -11 -32 -9 -34 2 -2 51 -27 108 -56 82 -40 106
-49 113 -38 25 37 27 46 15 56 -17 14 -195 102 -206 102 -5 0 -14 -14 -21 -30z"/>
<path d="M9415 3889 c-9 -17 -15 -32 -13 -34 6 -5 208 -105 213 -105 2 0 11
13 20 29 l15 30 -104 55 c-57 31 -107 56 -110 56 -3 0 -13 -14 -21 -31z"/>
<path d="M9122 3654 c-40 -28 -56 -73 -56 -159 0 -120 37 -175 117 -175 89 0
143 132 107 262 -21 74 -110 113 -168 72z m88 -34 c53 -28 52 -222 -1 -251
-12 -6 -31 -8 -44 -5 -56 14 -72 179 -23 241 21 27 39 31 68 15z"/>
<path d="M9522 3654 c-40 -28 -56 -73 -56 -159 0 -120 37 -175 117 -175 89 0
143 132 107 262 -21 74 -110 113 -168 72z m88 -34 c53 -28 52 -222 -1 -251
-12 -6 -31 -8 -44 -5 -56 14 -72 179 -23 241 21 27 39 31 68 15z"/>
<path d="M10070 3615 l0 -35 130 0 130 0 0 35 0 35 -130 0 -130 0 0 -35z"/>
<path d="M10450 3615 l0 -35 130 0 130 0 0 35 0 35 -130 0 -130 0 0 -35z"/>
<path d="M10840 3615 l0 -35 130 0 130 0 0 35 0 35 -130 0 -130 0 0 -35z"/>
<path d="M11220 3615 l0 -35 130 0 130 0 0 35 0 35 -130 0 -130 0 0 -35z"/>
<path d="M11610 3615 l0 -35 130 0 130 0 0 35 0 35 -130 0 -130 0 0 -35z"/>
<path d="M12380 3615 l0 -35 130 0 130 0 0 35 0 35 -130 0 -130 0 0 -35z"/>
<path d="M12760 3615 l0 -35 130 0 130 0 0 35 0 35 -130 0 -130 0 0 -35z"/>
<path d="M13190 3615 l0 -35 130 0 130 0 0 35 0 35 -130 0 -130 0 0 -35z"/>
<path d="M13580 3615 l0 -35 130 0 130 0 0 35 0 35 -130 0 -130 0 0 -35z"/>
<path d="M13960 3615 l0 -35 130 0 130 0 0 35 0 35 -130 0 -130 0 0 -35z"/>
<path d="M14350 3615 l0 -35 130 0 130 0 0 35 0 35 -130 0 -130 0 0 -35z"/>
<path d="M14800 3615 l0 -35 130 0 130 0 0 35 0 35 -130 0 -130 0 0 -35z"/>
<path d="M15230 3615 l0 -35 130 0 130 0 0 35 0 35 -130 0 -130 0 0 -35z"/>
<path d="M15610 3615 l0 -35 130 0 130 0 0 35 0 35 -130 0 -130 0 0 -35z"/>
<path d="M16000 3615 l0 -35 130 0 130 0 0 35 0 35 -130 0 -130 0 0 -35z"/>
<path d="M16380 3615 l0 -35 130 0 130 0 0 35 0 35 -130 0 -130 0 0 -35z"/>
<path d="M9350 3350 c0 -15 7 -20 25 -20 18 0 25 5 25 20 0 15 -7 20 -25 20
-18 0 -25 -5 -25 -20z"/>
<path d="M3650 2975 c0 -21 5 -25 30 -25 25 0 30 4 30 25 0 21 -5 25 -30 25
-25 0 -30 -4 -30 -25z"/>
<path d="M5420 2975 c0 -21 5 -25 30 -25 25 0 30 4 30 25 0 21 -5 25 -30 25
-25 0 -30 -4 -30 -25z"/>
<path d="M6550 2785 l0 -215 30 0 30 0 0 215 0 215 -30 0 -30 0 0 -215z"/>
<path d="M4800 2930 c0 -36 -2 -40 -25 -40 -20 0 -25 -5 -25 -25 0 -20 5 -25
25 -25 l25 0 0 -123 c0 -145 6 -160 65 -155 35 3 40 6 43 30 3 21 -1 27 -20
30 -22 3 -23 7 -26 111 l-3 107 26 0 c20 0 25 5 25 25 0 20 -5 25 -25 25 -22
0 -25 4 -25 40 0 38 -2 40 -30 40 -28 0 -30 -2 -30 -40z"/>
<path d="M3873 2880 c-27 -16 -33 -17 -33 -5 0 10 -10 15 -30 15 l-30 0 0
-160 0 -160 30 0 30 0 0 95 c0 61 5 108 15 130 24 60 105 72 125 19 6 -14 10
-75 10 -135 l0 -109 30 0 30 0 0 113 c0 127 -11 180 -43 202 -30 21 -96 19
-134 -5z"/>
<path d="M4196 2879 c-21 -17 -26 -18 -26 -5 0 11 -9 16 -30 16 l-30 0 0 -225
0 -225 30 0 30 0 0 82 0 81 23 -21 c28 -26 84 -29 128 -6 60 30 90 165 55 248
-30 72 -122 101 -180 55z m82 -35 c32 -9 52 -54 52 -119 0 -49 -4 -60 -29 -86
-32 -32 -47 -35 -85 -18 -34 16 -49 59 -44 126 4 46 10 61 32 80 29 24 37 26
74 17z"/>
<path d="M5164 2890 c-32 -13 -54 -50 -54 -91 0 -47 29 -72 103 -89 71 -17 87
-27 87 -54 0 -24 -34 -46 -70 -46 -30 0 -69 21 -75 42 -8 23 -55 25 -55 2 0
-26 31 -71 57 -83 13 -6 49 -11 79 -11 50 0 59 3 90 34 40 40 47 93 15 125
-18 18 -107 51 -136 51 -7 0 -20 9 -31 21 -19 21 -18 21 5 40 13 10 31 19 41
19 32 0 70 -19 70 -35 0 -10 10 -15 30 -15 17 0 30 4 30 10 0 24 -26 63 -51
76 -31 15 -102 18 -135 4z"/>
<path d="M5594 2881 c-43 -26 -66 -81 -66 -156 0 -71 19 -113 62 -139 39 -23
101 -21 134 5 l26 20 0 -24 c0 -13 -5 -38 -10 -54 -18 -52 -93 -70 -130 -33
-26 26 -70 27 -70 2 0 -58 127 -94 196 -57 58 31 68 68 72 268 l4 177 -31 0
c-22 0 -31 -5 -31 -16 0 -13 -5 -12 -26 5 -33 26 -89 27 -130 2z m127 -60 c24
-25 29 -38 29 -78 0 -59 -17 -94 -54 -111 -62 -30 -109 14 -108 102 0 62 14
93 45 106 38 15 58 11 88 -19z"/>
<path d="M5973 2880 c-27 -16 -33 -17 -33 -5 0 10 -10 15 -30 15 l-30 0 0
-160 0 -160 30 0 30 0 0 95 c0 61 5 108 15 130 24 60 105 72 125 19 6 -14 10
-75 10 -135 l0 -109 30 0 30 0 0 113 c0 127 -11 180 -43 202 -30 21 -96 19
-134 -5z"/>
<path d="M6268 2884 c-48 -25 -66 -84 -27 -84 12 0 32 11 45 25 38 41 124 28
124 -19 0 -27 -8 -31 -84 -41 -27 -4 -60 -12 -73 -18 -27 -12 -53 -55 -53 -87
0 -29 27 -77 49 -90 32 -16 93 -11 130 11 l33 20 15 -20 c9 -13 25 -21 44 -21
24 0 29 4 29 25 0 16 -6 25 -15 25 -12 0 -15 19 -15 111 0 61 -5 119 -10 130
-25 46 -134 65 -192 33z m142 -187 c0 -61 -76 -105 -125 -73 -28 18 -32 47
-10 66 12 10 89 33 128 39 4 1 7 -14 7 -32z"/>
<path d="M3650 2730 l0 -160 30 0 30 0 0 160 0 160 -30 0 -30 0 0 -160z"/>
<path d="M4440 2788 c0 -132 7 -172 36 -203 30 -33 102 -35 145 -4 24 17 29
18 29 5 0 -10 9 -16 25 -16 l25 0 0 160 0 160 -30 0 -30 0 0 -114 c0 -94 -3
-118 -17 -135 -24 -28 -72 -37 -98 -17 -18 13 -20 28 -23 140 l-4 126 -29 0
-29 0 0 -102z"/>
<path d="M5420 2730 l0 -160 30 0 30 0 0 160 0 160 -30 0 -30 0 0 -160z"/>
<path d="M3920 2251 c-11 -17 -33 -56 -48 -88 -24 -51 -27 -70 -27 -158 0 -88
4 -107 27 -158 37 -80 66 -117 89 -117 18 0 18 2 -6 50 -14 27 -32 75 -40 107
-29 110 -14 236 40 343 24 48 24 50 6 50 -11 0 -29 -13 -41 -29z"/>
<path d="M5840 2065 l0 -215 30 0 30 0 0 215 0 215 -30 0 -30 0 0 -215z"/>
<path d="M6282 2273 c92 -191 101 -310 34 -465 -33 -76 -33 -79 -13 -76 13 2
33 24 55 60 63 106 77 217 43 327 -25 80 -77 161 -103 161 -11 0 -18 -3 -16
-7z"/>
<path d="M4092 2160 c-41 -25 -71 -89 -72 -153 0 -101 56 -167 142 -167 62 0
99 21 128 72 l21 38 -31 0 c-18 0 -33 -6 -37 -15 -7 -19 -55 -45 -82 -45 -27
0 -69 39 -77 73 l-6 27 116 0 116 0 0 35 c0 54 -28 112 -65 135 -42 26 -110
26 -153 0z m111 -41 c23 -10 47 -46 47 -69 0 -6 -38 -10 -86 -10 -84 0 -85 0
-78 23 17 56 66 79 117 56z"/>
<path d="M4718 2164 c-48 -25 -66 -84 -27 -84 12 0 32 11 45 25 38 41 124 28
124 -19 0 -27 -8 -31 -84 -41 -27 -4 -60 -12 -73 -18 -27 -12 -53 -55 -53 -87
0 -29 27 -77 49 -90 32 -16 93 -11 130 11 l33 20 15 -20 c9 -13 25 -21 44 -21
24 0 29 4 29 25 0 16 -6 25 -15 25 -12 0 -15 19 -15 111 0 61 -5 119 -10 130
-25 46 -134 65 -192 33z m142 -187 c0 -61 -76 -105 -125 -73 -28 18 -32 47
-10 66 12 10 89 33 128 39 4 1 7 -14 7 -32z"/>
<path d="M5078 2159 c-24 -17 -28 -18 -28 -5 0 10 -9 16 -25 16 l-25 0 0 -160
0 -160 30 0 30 0 0 119 c0 117 1 120 26 140 32 25 57 27 78 5 13 -12 16 -40
16 -140 l0 -124 30 0 30 0 0 115 c0 110 1 117 25 140 26 27 46 31 76 15 17
-10 19 -22 19 -140 l0 -130 30 0 30 0 0 130 c0 175 -13 200 -99 200 -24 0 -49
-8 -65 -21 l-27 -21 -23 21 c-29 28 -91 28 -128 0z"/>
<path d="M5576 2159 c-21 -17 -26 -18 -26 -5 0 11 -9 16 -30 16 l-30 0 0 -225
0 -225 30 0 30 0 0 82 0 81 23 -21 c28 -26 84 -29 128 -6 60 30 90 165 55 248
-30 72 -122 101 -180 55z m82 -35 c32 -9 52 -54 52 -119 0 -49 -4 -60 -29 -86
-32 -32 -47 -35 -85 -18 -34 16 -49 59 -44 126 4 46 10 61 32 80 29 24 37 26
74 17z"/>
<path d="M6022 2160 c-41 -25 -71 -89 -72 -153 0 -101 56 -167 142 -167 62 0
99 21 128 72 l21 38 -31 0 c-18 0 -33 -6 -37 -15 -7 -19 -55 -45 -82 -45 -27
0 -69 39 -77 73 l-6 27 116 0 116 0 0 35 c0 54 -28 112 -65 135 -42 26 -110
26 -153 0z m111 -41 c23 -10 47 -46 47 -69 0 -6 -38 -10 -86 -10 -84 0 -85 0
-78 23 17 56 66 79 117 56z"/>
<path d="M4346 2158 c4 -7 25 -40 47 -72 22 -33 40 -65 40 -71 0 -6 -23 -46
-52 -88 l-52 -77 38 0 c33 0 41 5 56 33 10 17 26 43 36 56 l19 25 36 -57 c33
-52 40 -57 72 -57 40 0 41 -3 -29 100 l-44 65 54 78 54 77 -35 0 c-32 0 -39
-5 -68 -50 -18 -27 -36 -50 -40 -50 -3 0 -20 23 -37 50 -28 45 -34 50 -66 50
-26 0 -34 -3 -29 -12z"/>
</g>
</svg>
