<?xml version="1.0" standalone="no"?>
<!DOCTYPE svg PUBLIC "-//W3C//DTD SVG 20010904//EN"
 "http://www.w3.org/TR/2001/REC-SVG-20010904/DTD/svg10.dtd">
<svg version="1.0" xmlns="http://www.w3.org/2000/svg"
 width="1920.000000pt" height="1080.000000pt" viewBox="0 0 1920.000000 1080.000000"
 preserveAspectRatio="xMidYMid meet">

<g transform="translate(0.000000,1080.000000) scale(0.100000,-0.100000)"
fill="#000000" stroke="none">
<path d="M1940 9140 l0 -71 -22 21 c-14 13 -35 20 -62 20 -87 0 -141 -67 -140
-175 1 -67 19 -112 60 -144 36 -28 102 -28 138 0 21 17 26 18 26 5 0 -11 9
-16 30 -16 l30 0 0 215 0 215 -30 0 -30 0 0 -70z m-29 -109 c25 -26 29 -37 29
-88 0 -86 -39 -131 -101 -118 -38 9 -59 49 -59 114 0 59 14 95 44 109 35 18
56 13 87 -17z"/>
<path d="M3940 8995 l0 -215 30 0 30 0 0 215 0 215 -30 0 -30 0 0 -215z"/>
<path d="M4660 9181 c-11 -17 -33 -56 -48 -88 -24 -51 -27 -70 -27 -158 0 -88
4 -107 27 -158 37 -80 66 -117 89 -117 18 0 18 2 -6 50 -14 27 -32 75 -40 107
-29 110 -14 236 40 343 24 48 24 50 6 50 -11 0 -29 -13 -41 -29z"/>
<path d="M5292 9203 c92 -191 101 -310 34 -465 -33 -76 -33 -79 -13 -76 13 2
33 24 55 60 63 106 77 217 43 327 -25 80 -77 161 -103 161 -11 0 -18 -3 -16
-7z"/>
<path d="M5015 9038 c-48 -90 -101 -187 -118 -215 -27 -49 -27 -53 -10 -53 19
0 28 15 221 368 31 56 32 62 15 62 -15 0 -41 -40 -108 -162z"/>
<path d="M4789 9161 c-64 -64 -20 -171 70 -171 60 0 106 43 106 100 0 90 -112
135 -176 71z m109 -37 c12 -8 22 -24 22 -34 0 -21 -36 -50 -62 -50 -19 0 -58
34 -58 50 0 16 39 50 58 50 10 0 28 -7 40 -16z"/>
<path d="M2420 9140 c0 -36 -2 -40 -25 -40 -20 0 -25 -5 -25 -25 0 -20 5 -25
25 -25 l25 0 0 -123 c0 -145 6 -160 65 -155 35 3 40 6 43 30 3 21 -1 27 -20
30 -22 3 -23 7 -26 111 l-3 107 26 0 c20 0 25 5 25 25 0 20 -5 25 -25 25 -22
0 -25 4 -25 40 0 38 -2 40 -30 40 -28 0 -30 -2 -30 -40z"/>
<path d="M3080 9084 c-45 -38 -62 -79 -63 -148 -1 -103 41 -157 126 -163 74
-5 122 27 142 95 5 19 3 22 -22 22 -21 0 -32 -8 -45 -30 -30 -53 -107 -50
-128 6 -6 14 -10 50 -10 80 0 48 4 60 29 85 16 16 36 29 45 29 33 0 66 -20 72
-45 5 -20 12 -25 36 -25 26 0 29 3 23 23 -20 70 -56 97 -129 97 -33 0 -52 -6
-76 -26z"/>
<path d="M3680 9084 c-45 -38 -62 -79 -63 -148 -1 -103 41 -157 126 -163 74
-5 122 27 142 95 5 19 3 22 -22 22 -21 0 -32 -8 -45 -30 -30 -53 -107 -50
-128 6 -6 14 -10 50 -10 80 0 48 4 60 29 85 16 16 36 29 45 29 33 0 66 -20 72
-45 5 -20 12 -25 36 -25 26 0 29 3 23 23 -20 70 -56 97 -129 97 -33 0 -52 -6
-76 -26z"/>
<path d="M4132 9090 c-41 -25 -71 -89 -72 -153 0 -101 56 -167 142 -167 62 0
99 21 128 72 l21 38 -31 0 c-18 0 -33 -6 -37 -15 -7 -19 -55 -45 -82 -45 -27
0 -69 39 -77 73 l-6 27 116 0 116 0 0 35 c0 54 -28 112 -65 135 -42 26 -110
26 -153 0z m111 -41 c23 -10 47 -46 47 -69 0 -6 -38 -10 -86 -10 -84 0 -85 0
-78 23 17 56 66 79 117 56z"/>
<path d="M2070 8998 c0 -132 7 -172 36 -203 30 -33 102 -35 145 -4 24 17 29
18 29 5 0 -10 9 -16 25 -16 l25 0 0 160 0 160 -30 0 -30 0 0 -114 c0 -94 -3
-118 -17 -135 -24 -28 -72 -37 -98 -17 -18 13 -20 28 -23 140 l-4 126 -29 0
-29 0 0 -102z"/>
<path d="M2550 9091 c0 -5 25 -80 56 -165 l56 -156 -19 -33 c-15 -24 -26 -32
-46 -30 -24 2 -27 -2 -27 -28 0 -27 3 -29 38 -29 41 0 59 13 85 65 18 35 137
362 137 376 0 5 -13 9 -29 9 -29 0 -31 -3 -68 -115 -20 -63 -40 -115 -43 -115
-3 0 -23 52 -43 115 -37 112 -39 115 -68 115 -16 0 -29 -4 -29 -9z"/>
<path d="M3310 9091 c0 -5 25 -80 56 -165 l56 -156 -19 -33 c-15 -24 -26 -32
-46 -30 -24 2 -27 -2 -27 -28 0 -27 3 -29 38 -29 41 0 59 13 85 65 18 35 137
362 137 376 0 5 -13 9 -29 9 -29 0 -31 -3 -68 -115 -20 -63 -40 -115 -43 -115
-3 0 -23 52 -43 115 -37 112 -39 115 -68 115 -16 0 -29 -4 -29 -9z"/>
<path d="M5078 8951 c-70 -62 -24 -171 73 -171 57 0 99 42 99 100 0 91 -102
133 -172 71z m112 -41 c11 -11 20 -24 20 -30 0 -16 -39 -50 -58 -50 -26 0 -62
29 -62 50 0 21 36 50 62 50 10 0 27 -9 38 -20z"/>
<path d="M1680 8240 l0 -120 25 0 c23 0 25 4 25 40 l0 40 810 0 810 0 0 -45
c0 -41 2 -45 25 -45 l25 0 0 120 0 120 -25 0 c-23 0 -25 -4 -25 -45 l0 -45
-810 0 -810 0 0 50 c0 47 -2 50 -25 50 l-25 0 0 -120z"/>
<path d="M866 7943 c-27 -87 -51 -166 -54 -175 -3 -13 1 -18 16 -18 18 0 27
18 62 133 23 72 47 151 55 175 13 41 13 42 -8 42 -20 0 -27 -17 -71 -157z"/>
<path d="M662 8066 c-7 -16 -22 -26 -46 -30 -51 -10 -48 -36 4 -36 l40 0 0
-125 0 -125 25 0 25 0 0 170 c0 158 -1 170 -18 170 -11 0 -24 -11 -30 -24z"/>
<path d="M995 7977 c-85 -85 -41 -237 67 -237 24 0 54 6 67 13 54 27 79 134
46 197 -21 42 -53 60 -103 60 -36 0 -50 -6 -77 -33z m122 -33 c22 -22 25 -32
20 -77 -7 -82 -63 -112 -114 -61 -22 22 -25 32 -20 77 7 82 63 112 114 61z"/>
<path d="M1240 7880 l0 -130 25 0 c25 0 25 0 25 94 0 87 2 96 22 110 29 20 52
20 72 0 12 -12 16 -37 16 -110 l0 -94 26 0 26 0 -4 111 c-3 102 -5 112 -27
130 -28 23 -83 25 -116 3 -23 -15 -25 -15 -25 0 0 9 -8 16 -20 16 -19 0 -20
-7 -20 -130z"/>
<path d="M1680 5506 l0 -2416 7662 -2 7662 -3 -195 -105 -196 -105 21 -43 c16
-33 25 -42 39 -38 27 7 607 320 607 327 0 7 -604 389 -614 389 -8 0 -60 -80
-55 -84 2 -2 87 -56 188 -120 l185 -116 -57 0 c-56 0 -56 0 -59 33 l-3 32
-1672 3 -1673 2 0 2325 0 2325 -870 0 -870 0 0 -667 c0 -368 -3 -1414 -7
-2325 l-6 -1658 -1649 0 -1648 0 0 2325 0 2325 -872 -2 -873 -3 -5 -2320 c-3
-1276 -6 -2321 -8 -2322 -1 -2 -744 -3 -1652 -3 l-1650 0 0 2325 0 2325 -788
0 c-434 0 -823 3 -865 6 l-77 7 0 -2417z m1660 9 l0 -2325 -780 0 -780 0 0
2325 0 2325 780 0 780 0 0 -2325z m5058 -2 l2 -2323 -805 0 -805 0 0 2318 c0
1275 3 2322 7 2325 3 4 365 6 802 5 l796 -3 3 -2322z m5052 2 l0 -2325 -807 0
-806 0 6 578 c4 317 7 1363 7 2325 l0 1747 800 0 800 0 0 -2325z"/>
<path d="M859 6735 c-57 -15 -167 -74 -174 -93 -11 -29 8 -30 68 -1 133 62
282 64 418 5 72 -31 79 -32 79 -15 0 25 -77 73 -159 99 -71 23 -162 25 -232 5z"/>
<path d="M985 6571 c-34 -15 -56 -47 -62 -90 -5 -36 -2 -44 30 -76 27 -27 43
-35 72 -35 29 0 45 8 72 35 32 32 35 40 30 77 -3 24 -15 51 -29 65 -26 26 -81
38 -113 24z m77 -58 c20 -18 24 -63 6 -81 -7 -7 -26 -12 -43 -12 -37 0 -55 16
-55 49 0 52 54 78 92 44z"/>
<path d="M710 6443 c0 -13 60 -50 203 -128 111 -60 207 -111 214 -113 7 -2 13
3 13 11 0 9 -85 62 -211 131 -116 64 -212 116 -215 116 -2 0 -4 -8 -4 -17z"/>
<path d="M755 6257 c-27 -27 -35 -43 -35 -72 0 -29 8 -45 35 -72 32 -32 40
-35 77 -30 59 8 93 45 93 102 0 57 -34 94 -93 102 -37 5 -45 2 -77 -30z m107
-34 c22 -20 23 -51 1 -75 -18 -20 -63 -24 -81 -6 -16 16 -16 70 0 86 17 17 58
15 80 -5z"/>
<path d="M685 6030 c-12 -20 11 -41 89 -80 107 -55 206 -64 312 -31 86 26 164
74 164 100 0 19 -4 18 -62 -8 -149 -67 -294 -67 -435 -1 -35 16 -65 25 -68 20z"/>
<path d="M881 5652 c-52 -26 -76 -65 -76 -122 0 -52 19 -87 68 -124 41 -30
151 -34 195 -7 88 56 96 177 16 240 -37 29 -64 28 -64 -4 0 -17 9 -29 29 -39
31 -16 41 -34 41 -71 0 -37 -10 -55 -41 -70 -57 -30 -59 -26 -59 100 l0 115
-37 0 c-21 0 -53 -8 -72 -18z m59 -127 c0 -71 -3 -85 -16 -85 -22 0 -74 55
-74 79 0 31 20 68 44 79 43 21 46 17 46 -73z"/>
<path d="M810 5291 l0 -29 121 -4 c113 -3 122 -5 140 -27 26 -32 25 -76 -3
-95 -17 -12 -50 -16 -141 -16 l-118 0 3 -27 3 -28 133 0 134 0 29 33 c36 40
39 96 8 136 -17 21 -18 26 -5 26 11 0 16 9 16 30 l0 30 -160 0 -160 0 0 -29z"/>
<path d="M692 4953 l3 -28 215 0 215 0 3 28 3 27 -221 0 -221 0 3 -27z"/>
<path d="M1090 4865 c0 -12 -19 -15 -115 -15 -109 0 -117 -1 -140 -24 -48 -48
-42 -164 12 -206 59 -47 89 -2 33 50 -32 29 -36 52 -20 94 7 20 17 26 39 26
28 0 30 -3 36 -47 11 -84 16 -102 36 -127 39 -50 125 -41 154 15 20 38 19 78
-5 124 -20 38 -20 38 0 52 12 9 20 26 20 44 0 24 -4 29 -25 29 -16 0 -25 -6
-25 -15z m-30 -95 c24 -24 34 -62 26 -94 -12 -50 -81 -40 -91 12 -3 15 -9 44
-14 65 l-8 37 33 0 c21 0 42 -8 54 -20z"/>
<path d="M810 4522 c0 -26 6 -29 115 -66 64 -21 118 -42 120 -46 2 -3 -50 -24
-116 -45 l-119 -39 0 -33 0 -32 98 35 c53 20 124 46 157 57 54 20 60 25 63 53
l3 31 -151 57 c-83 31 -155 56 -160 56 -6 0 -10 -12 -10 -28z"/>
<path d="M866 2943 c-27 -87 -51 -166 -54 -175 -3 -13 1 -18 16 -18 18 0 27
18 62 133 23 72 47 151 55 175 13 41 13 42 -8 42 -20 0 -27 -17 -71 -157z"/>
<path d="M1268 3089 c-12 -6 -18 -22 -18 -44 0 -28 -4 -35 -20 -35 -13 0 -20
-7 -20 -20 0 -13 7 -20 20 -20 19 0 20 -7 20 -110 l0 -110 25 0 25 0 0 110 0
110 35 0 35 0 0 -110 0 -110 25 0 25 0 0 110 c0 103 1 110 20 110 13 0 20 7
20 20 0 13 -7 20 -20 20 -15 0 -20 7 -20 25 0 18 5 25 20 25 13 0 20 7 20 20
0 15 -7 20 -26 20 -44 0 -64 -17 -64 -55 0 -33 -2 -35 -35 -35 -31 0 -35 3
-35 25 0 18 5 25 20 25 13 0 20 7 20 20 0 15 -7 20 -27 20 -16 0 -36 -5 -45
-11z"/>
<path d="M612 3074 c-40 -28 -56 -73 -56 -159 0 -120 37 -175 117 -175 89 0
143 132 107 262 -21 74 -110 113 -168 72z m88 -34 c53 -28 52 -222 -1 -251
-12 -6 -31 -8 -44 -5 -56 14 -72 179 -23 241 21 27 39 31 68 15z"/>
<path d="M995 2977 c-85 -85 -41 -237 67 -237 24 0 54 6 67 13 54 27 79 134
46 197 -21 42 -53 60 -103 60 -36 0 -50 -6 -77 -33z m122 -33 c22 -22 25 -32
20 -77 -7 -82 -63 -112 -114 -61 -22 22 -25 32 -20 77 7 82 63 112 114 61z"/>
<path d="M1730 2870 l0 -120 25 0 c23 0 25 4 25 40 l0 40 775 0 775 0 0 -40
c0 -38 2 -40 30 -40 l31 0 -3 118 -3 117 -25 0 c-23 0 -25 -4 -28 -52 l-3 -53
-775 0 -774 0 0 55 c0 52 -1 55 -25 55 l-25 0 0 -120z"/>
<path d="M2660 2495 c0 -21 5 -25 30 -25 25 0 30 4 30 25 0 21 -5 25 -30 25
-25 0 -30 -4 -30 -25z"/>
<path d="M3320 2450 l0 -71 -22 21 c-14 13 -35 20 -62 20 -87 0 -141 -67 -140
-175 1 -67 19 -112 60 -144 36 -28 102 -28 138 0 21 17 26 18 26 5 0 -11 9
-16 30 -16 l30 0 0 215 0 215 -30 0 -30 0 0 -70z m-29 -109 c25 -26 29 -37 29
-88 0 -86 -39 -131 -101 -118 -38 9 -59 49 -59 114 0 59 14 95 44 109 35 18
56 13 87 -17z"/>
<path d="M3700 2491 c-11 -17 -33 -56 -48 -88 -24 -51 -27 -70 -27 -158 0 -88
4 -107 27 -158 37 -80 66 -117 89 -117 18 0 18 2 -6 50 -14 27 -32 75 -40 107
-29 110 -14 236 40 343 24 48 24 50 6 50 -11 0 -29 -13 -41 -29z"/>
<path d="M4102 2513 c92 -191 101 -310 34 -465 -33 -76 -33 -79 -13 -76 13 2
33 24 55 60 63 106 77 217 43 327 -25 80 -77 161 -103 161 -11 0 -18 -3 -16
-7z"/>
<path d="M15700 2495 c0 -21 5 -25 30 -25 25 0 30 4 30 25 0 21 -5 25 -30 25
-25 0 -30 -4 -30 -25z"/>
<path d="M16910 2491 c-11 -17 -33 -56 -48 -88 -24 -51 -27 -70 -27 -158 0
-88 4 -107 27 -158 37 -80 66 -117 89 -117 18 0 18 2 -6 50 -14 27 -32 75 -40
107 -29 110 -14 236 40 343 24 48 24 50 6 50 -11 0 -29 -13 -41 -29z"/>
<path d="M17312 2513 c92 -191 101 -310 34 -465 -33 -76 -33 -79 -13 -76 13 2
33 24 55 60 63 106 77 217 43 327 -25 80 -77 161 -103 161 -11 0 -18 -3 -16
-7z"/>
<path d="M15540 2450 c0 -36 -2 -40 -25 -40 -20 0 -25 -5 -25 -25 0 -20 5 -25
25 -25 l25 0 0 -123 c0 -145 6 -160 65 -155 35 3 40 6 43 30 3 21 -1 27 -20
30 -22 3 -23 7 -26 111 l-3 107 26 0 c20 0 25 5 25 25 0 20 -5 25 -25 25 -22
0 -25 4 -25 40 0 38 -2 40 -30 40 -28 0 -30 -2 -30 -40z"/>
<path d="M1866 2399 c-21 -17 -26 -18 -26 -5 0 11 -9 16 -30 16 l-30 0 0 -225
0 -225 30 0 30 0 0 82 0 81 23 -21 c28 -26 84 -29 128 -6 60 30 90 165 55 248
-30 72 -122 101 -180 55z m82 -35 c32 -9 52 -54 52 -119 0 -49 -4 -60 -29 -86
-32 -32 -47 -35 -85 -18 -34 16 -49 59 -44 126 4 46 10 61 32 80 29 24 37 26
74 17z"/>
<path d="M2172 2400 c-41 -25 -71 -89 -72 -153 0 -101 56 -167 142 -167 62 0
99 21 128 72 l21 38 -31 0 c-18 0 -33 -6 -37 -15 -7 -19 -55 -45 -82 -45 -27
0 -69 39 -77 73 l-6 27 116 0 116 0 0 35 c0 54 -28 112 -65 135 -42 26 -110
26 -153 0z m111 -41 c23 -10 47 -46 47 -69 0 -6 -38 -10 -86 -10 -84 0 -85 0
-78 23 17 56 66 79 117 56z"/>
<path d="M2536 2399 c-21 -17 -26 -18 -26 -5 0 10 -9 16 -25 16 l-25 0 0 -160
0 -160 30 0 30 0 0 119 c0 117 1 120 26 140 15 12 37 21 50 21 19 0 24 5 24
25 0 21 -5 25 -29 25 -15 0 -40 -9 -55 -21z"/>
<path d="M2860 2413 c-56 -22 -93 -89 -93 -168 0 -113 53 -169 156 -162 46 3
63 9 87 32 37 36 53 92 48 168 -4 51 -9 63 -40 94 -31 31 -44 37 -90 39 -29 2
-60 1 -68 -3z m93 -54 c66 -30 62 -184 -4 -220 -34 -18 -87 -2 -104 31 -18 34
-20 119 -4 154 19 41 67 56 112 35z"/>
<path d="M3864 2410 c-32 -13 -54 -50 -54 -91 0 -47 29 -72 103 -89 71 -17 87
-27 87 -54 0 -24 -34 -46 -70 -46 -30 0 -69 21 -75 42 -8 23 -55 25 -55 2 0
-26 31 -71 57 -83 13 -6 49 -11 79 -11 50 0 59 3 90 34 40 40 47 93 15 125
-18 18 -107 51 -136 51 -7 0 -20 9 -31 21 -19 21 -18 21 5 40 13 10 31 19 41
19 32 0 70 -19 70 -35 0 -10 10 -15 30 -15 17 0 30 4 30 10 0 24 -26 63 -51
76 -31 15 -102 18 -135 4z"/>
<path d="M15908 2399 c-24 -17 -28 -18 -28 -5 0 10 -9 16 -25 16 l-25 0 0
-160 0 -160 30 0 30 0 0 119 c0 117 1 120 26 140 32 25 57 27 78 5 13 -12 16
-40 16 -140 l0 -124 30 0 30 0 0 115 c0 110 1 117 25 140 26 27 46 31 76 15
17 -10 19 -22 19 -140 l0 -130 30 0 30 0 0 130 c0 175 -13 200 -99 200 -24 0
-49 -8 -65 -21 l-27 -21 -23 21 c-29 28 -91 28 -128 0z"/>
<path d="M16382 2400 c-41 -25 -71 -89 -72 -153 0 -101 56 -167 142 -167 62 0
99 21 128 72 l21 38 -31 0 c-18 0 -33 -6 -37 -15 -7 -19 -55 -45 -82 -45 -27
0 -69 39 -77 73 l-6 27 116 0 116 0 0 35 c0 54 -28 112 -65 135 -42 26 -110
26 -153 0z m111 -41 c23 -10 47 -46 47 -69 0 -6 -38 -10 -86 -10 -84 0 -85 0
-78 23 17 56 66 79 117 56z"/>
<path d="M17074 2410 c-32 -13 -54 -50 -54 -91 0 -47 29 -72 103 -89 71 -17
87 -27 87 -54 0 -24 -34 -46 -70 -46 -30 0 -69 21 -75 42 -8 23 -55 25 -55 2
0 -26 31 -71 57 -83 13 -6 49 -11 79 -11 50 0 59 3 90 34 40 40 47 93 15 125
-18 18 -107 51 -136 51 -7 0 -20 9 -31 21 -19 21 -18 21 5 40 13 10 31 19 41
19 32 0 70 -19 70 -35 0 -10 10 -15 30 -15 17 0 30 4 30 10 0 24 -26 63 -51
76 -31 15 -102 18 -135 4z"/>
<path d="M2660 2250 l0 -160 30 0 30 0 0 160 0 160 -30 0 -30 0 0 -160z"/>
<path d="M15700 2250 l0 -160 30 0 30 0 0 160 0 160 -30 0 -30 0 0 -160z"/>
</g>
</svg>
