<?xml version="1.0" standalone="no"?>
<!DOCTYPE svg PUBLIC "-//W3C//DTD SVG 20010904//EN"
 "http://www.w3.org/TR/2001/REC-SVG-20010904/DTD/svg10.dtd">
<svg version="1.0" xmlns="http://www.w3.org/2000/svg"
 width="1920.000000pt" height="1080.000000pt" viewBox="0 0 1920.000000 1080.000000"
 preserveAspectRatio="xMidYMid meet">

<g transform="translate(0.000000,1080.000000) scale(0.100000,-0.100000)"
fill="#000000" stroke="none">
<path d="M2930 5755 l0 -2215 3090 -2 3090 -3 -184 -100 -184 -99 21 -43 c12
-24 26 -43 31 -43 18 1 610 324 610 333 1 10 -593 387 -609 387 -10 0 -60 -79
-53 -84 2 -2 84 -54 183 -116 99 -62 184 -116 190 -121 5 -5 -1257 -9 -3033
-9 l-3042 0 0 778 0 777 36 -63 c20 -35 40 -60 44 -55 4 4 35 58 67 120 l59
112 68 -120 c37 -67 72 -117 76 -112 5 4 39 64 76 133 37 69 68 126 69 128 1
2 26 -57 55 -130 29 -73 56 -136 59 -140 4 -4 39 56 79 132 41 77 77 138 82
135 4 -3 50 -77 101 -165 52 -88 97 -160 100 -160 3 0 55 101 114 225 60 124
111 225 114 225 3 0 33 -63 66 -140 33 -76 63 -136 66 -132 4 4 28 97 54 207
27 110 51 203 54 207 4 4 22 -50 40 -120 19 -70 37 -133 41 -140 3 -7 34 142
69 330 34 189 64 344 65 346 2 1 42 -80 90 -180 87 -181 88 -183 100 -153 7
17 48 135 92 262 43 128 82 233 85 233 3 0 34 -72 69 -161 35 -88 67 -162 70
-164 4 -3 39 102 79 233 88 290 80 267 90 256 4 -5 49 -76 101 -157 51 -82 96
-145 100 -140 5 4 45 75 90 156 46 82 86 145 90 140 4 -4 56 -131 115 -282
l108 -275 26 30 c14 16 41 47 59 68 18 21 35 37 37 35 3 -3 103 -252 136 -338
10 -24 10 -24 63 28 l54 53 25 -108 c14 -60 33 -141 42 -181 l16 -72 47 29
c26 16 50 26 53 22 3 -4 45 -105 94 -224 l87 -218 69 61 69 61 72 -56 c39 -31
74 -56 77 -56 4 0 40 72 81 160 41 88 77 159 80 159 3 0 26 -29 53 -64 26 -36
51 -65 55 -65 4 0 50 98 101 218 52 119 95 218 96 219 1 2 50 -11 108 -27 59
-17 113 -30 120 -30 7 0 32 45 56 100 24 55 47 103 52 105 4 3 47 -60 95 -140
48 -80 89 -145 93 -144 3 0 60 63 126 139 66 77 122 139 125 140 3 0 52 -67
108 -150 57 -82 104 -150 106 -150 1 0 29 9 61 20 32 11 64 20 70 20 7 0 48
-74 91 -165 43 -91 82 -165 87 -165 4 0 32 18 62 40 l54 40 87 -145 c81 -135
103 -161 119 -135 6 9 -68 139 -162 288 l-34 52 -54 -40 c-30 -22 -56 -40 -58
-40 -2 0 -39 72 -81 160 -43 88 -83 160 -90 160 -7 0 -40 -9 -75 -21 -34 -12
-63 -20 -65 -18 -1 2 -49 73 -106 157 -56 84 -106 155 -110 157 -4 2 -63 -59
-131 -136 -103 -118 -125 -138 -134 -125 -6 8 -49 78 -96 155 -46 78 -87 141
-90 141 -4 0 -31 -55 -60 -121 -30 -67 -59 -123 -65 -126 -9 -3 -102 20 -215
53 -13 3 -35 -40 -105 -201 -49 -112 -92 -205 -96 -205 -3 0 -28 29 -54 65
-26 36 -49 65 -51 65 -2 0 -41 -77 -86 -170 l-82 -171 -62 51 c-34 27 -67 50
-73 50 -6 0 -33 -20 -59 -45 -26 -25 -52 -45 -58 -45 -5 0 -40 78 -78 173 -38
94 -77 192 -87 215 l-18 44 -45 -26 -44 -26 -10 37 c-6 21 -24 103 -42 183
-18 80 -34 147 -36 149 -2 3 -29 -21 -61 -52 l-57 -56 -74 186 -74 186 -26
-29 c-14 -16 -41 -47 -59 -68 -18 -21 -35 -37 -36 -35 -2 2 -54 133 -117 291
-62 159 -116 285 -120 280 -4 -4 -47 -77 -94 -162 -47 -85 -87 -156 -89 -158
-2 -1 -50 71 -107 162 -57 91 -106 166 -109 166 -3 0 -27 -73 -54 -163 -27
-89 -60 -198 -74 -242 l-24 -79 -62 154 c-34 85 -66 164 -70 175 -6 15 -31
-48 -100 -247 -51 -147 -95 -270 -97 -273 -3 -2 -47 82 -98 188 -51 105 -95
188 -97 182 -2 -5 -29 -147 -59 -315 -31 -168 -58 -306 -59 -308 -2 -1 -18 53
-36 120 -18 68 -35 126 -39 130 -3 4 -30 -95 -60 -220 -30 -125 -57 -230 -61
-234 -3 -5 -30 48 -60 117 -29 69 -56 125 -59 125 -3 0 -55 -103 -116 -230
-60 -126 -113 -230 -116 -230 -4 0 -51 74 -104 165 -53 91 -98 165 -100 165
-2 0 -36 -62 -76 -137 l-72 -136 -57 143 -57 143 -78 -144 c-42 -79 -78 -145
-79 -146 -1 -1 -33 52 -70 118 -37 67 -72 117 -76 112 -4 -4 -35 -58 -67 -120
l-59 -112 -30 54 c-16 30 -32 55 -36 55 -5 0 -8 610 -8 1355 l0 1355 -55 0
-55 0 0 -2215z"/>
<path d="M10090 5755 l0 -2215 3082 -2 3081 -3 -176 -95 c-97 -52 -177 -98
-177 -103 0 -16 41 -88 48 -84 4 2 143 77 310 167 166 89 302 165 302 169 0 5
-587 380 -610 389 -11 4 -63 -79 -53 -88 4 -4 92 -60 196 -124 103 -65 187
-120 187 -122 0 -2 -1370 -4 -3045 -4 l-3045 0 0 740 0 740 68 -46 c174 -117
354 -174 551 -174 301 0 601 164 807 440 100 134 293 326 414 412 122 87 253
152 359 179 109 27 273 23 366 -10 222 -78 440 -309 611 -644 149 -294 291
-445 467 -498 220 -68 438 55 679 381 116 158 207 238 342 301 223 104 475 66
734 -114 61 -42 317 -266 473 -414 l35 -33 22 29 21 29 -199 182 c-110 100
-230 206 -267 235 -272 210 -567 269 -820 163 -156 -64 -267 -157 -398 -333
-146 -196 -232 -276 -362 -338 -59 -27 -79 -32 -148 -32 -71 0 -88 4 -149 34
-80 39 -180 133 -244 228 -23 34 -71 119 -108 190 -211 411 -446 644 -725 719
-91 25 -250 22 -354 -5 -107 -28 -280 -116 -390 -198 -116 -86 -330 -303 -420
-424 -152 -205 -379 -352 -610 -396 -102 -20 -263 -12 -360 16 -92 27 -254
109 -332 167 l-63 47 0 1379 0 1378 -50 0 -50 0 0 -2215z"/>
<path d="M13580 2975 l0 -215 25 0 c25 0 25 1 25 88 0 93 12 153 34 171 28 23
73 24 95 2 19 -19 21 -32 21 -141 l0 -120 30 0 30 0 0 109 c0 134 -6 164 -38
196 -33 33 -106 35 -146 4 l-26 -20 0 70 c0 69 -1 71 -25 71 l-25 0 0 -215z"/>
<path d="M14440 3120 l0 -71 -22 21 c-14 13 -35 20 -62 20 -87 0 -141 -67
-140 -175 1 -67 19 -112 60 -144 36 -28 102 -28 138 0 21 17 26 18 26 5 0 -11
9 -16 30 -16 l30 0 0 215 0 215 -30 0 -30 0 0 -70z m-29 -109 c25 -26 29 -37
29 -88 0 -86 -39 -131 -101 -118 -38 9 -59 49 -59 114 0 59 14 95 44 109 35
18 56 13 87 -17z"/>
<path d="M4530 3155 c0 -21 5 -25 30 -25 25 0 30 4 30 25 0 21 -5 25 -30 25
-25 0 -30 -4 -30 -25z"/>
<path d="M6300 3155 c0 -21 5 -25 30 -25 25 0 30 4 30 25 0 21 -5 25 -30 25
-25 0 -30 -4 -30 -25z"/>
<path d="M7430 2965 l0 -215 30 0 30 0 0 215 0 215 -30 0 -30 0 0 -215z"/>
<path d="M13420 3120 c0 -36 -2 -40 -25 -40 -20 0 -25 -5 -25 -25 0 -20 5 -25
25 -25 l25 0 0 -123 c0 -145 6 -160 65 -155 35 3 40 6 43 30 3 21 -1 27 -20
30 -22 3 -23 7 -26 111 l-3 107 26 0 c20 0 25 5 25 25 0 20 -5 25 -25 25 -22
0 -25 4 -25 40 0 38 -2 40 -30 40 -28 0 -30 -2 -30 -40z"/>
<path d="M5670 3110 c0 -36 -2 -40 -25 -40 -20 0 -25 -5 -25 -25 0 -20 5 -25
25 -25 l25 0 0 -123 c0 -145 6 -160 65 -155 35 3 40 6 43 30 3 21 -1 27 -20
30 -22 3 -23 7 -26 111 l-3 107 26 0 c20 0 25 5 25 25 0 20 -5 25 -25 25 -22
0 -25 4 -25 40 0 38 -2 40 -30 40 -28 0 -30 -2 -30 -40z"/>
<path d="M11984 3080 c-32 -13 -54 -50 -54 -91 0 -47 29 -72 103 -89 71 -17
87 -27 87 -54 0 -24 -34 -46 -70 -46 -30 0 -69 21 -75 42 -8 23 -55 25 -55 2
0 -26 31 -71 57 -83 13 -6 49 -11 79 -11 50 0 59 3 90 34 40 40 47 93 15 125
-18 18 -107 51 -136 51 -7 0 -20 9 -31 21 -19 21 -18 21 5 40 13 10 31 19 41
19 32 0 70 -19 70 -35 0 -10 10 -15 30 -15 17 0 30 4 30 10 0 24 -26 63 -51
76 -31 15 -102 18 -135 4z"/>
<path d="M12318 3069 c-24 -17 -28 -18 -28 -5 0 10 -9 16 -25 16 l-25 0 0
-160 0 -160 30 0 30 0 0 119 c0 117 1 120 26 140 32 25 57 27 78 5 13 -12 16
-40 16 -140 l0 -124 30 0 30 0 0 115 c0 110 1 117 25 140 26 27 46 31 76 15
17 -10 19 -22 19 -140 l0 -130 30 0 30 0 0 130 c0 175 -13 200 -99 200 -24 0
-49 -8 -65 -21 l-27 -21 -23 21 c-29 28 -91 28 -128 0z"/>
<path d="M12810 3083 c-56 -22 -93 -89 -93 -168 0 -113 53 -169 156 -162 46 3
63 9 87 32 37 36 53 92 48 168 -4 51 -9 63 -40 94 -31 31 -44 37 -90 39 -29 2
-60 1 -68 -3z m93 -54 c66 -30 62 -184 -4 -220 -34 -18 -87 -2 -104 31 -18 34
-20 119 -4 154 19 41 67 56 112 35z"/>
<path d="M13140 3083 c-56 -22 -93 -89 -93 -168 0 -113 53 -169 156 -162 46 3
63 9 87 32 37 36 53 92 48 168 -4 51 -9 63 -40 94 -31 31 -44 37 -90 39 -29 2
-60 1 -68 -3z m93 -54 c66 -30 62 -184 -4 -220 -34 -18 -87 -2 -104 31 -18 34
-20 119 -4 154 19 41 67 56 112 35z"/>
<path d="M13962 3070 c-41 -25 -71 -89 -72 -153 0 -101 56 -167 142 -167 62 0
99 21 128 72 l21 38 -31 0 c-18 0 -33 -6 -37 -15 -7 -19 -55 -45 -82 -45 -27
0 -69 39 -77 73 l-6 27 116 0 116 0 0 35 c0 54 -28 112 -65 135 -42 26 -110
26 -153 0z m111 -41 c23 -10 47 -46 47 -69 0 -6 -38 -10 -86 -10 -84 0 -85 0
-78 23 17 56 66 79 117 56z"/>
<path d="M4743 3060 c-27 -16 -33 -17 -33 -5 0 10 -10 15 -30 15 l-30 0 0
-160 0 -160 30 0 30 0 0 95 c0 61 5 108 15 130 24 60 105 72 125 19 6 -14 10
-75 10 -135 l0 -109 30 0 30 0 0 113 c0 127 -11 180 -43 202 -30 21 -96 19
-134 -5z"/>
<path d="M5076 3059 c-21 -17 -26 -18 -26 -5 0 11 -9 16 -30 16 l-30 0 0 -225
0 -225 30 0 30 0 0 82 0 81 23 -21 c28 -26 84 -29 128 -6 60 30 90 165 55 248
-30 72 -122 101 -180 55z m82 -35 c32 -9 52 -54 52 -119 0 -49 -4 -60 -29 -86
-32 -32 -47 -35 -85 -18 -34 16 -49 59 -44 126 4 46 10 61 32 80 29 24 37 26
74 17z"/>
<path d="M6044 3070 c-32 -13 -54 -50 -54 -91 0 -47 29 -72 103 -89 71 -17 87
-27 87 -54 0 -24 -34 -46 -70 -46 -30 0 -69 21 -75 42 -8 23 -55 25 -55 2 0
-26 31 -71 57 -83 13 -6 49 -11 79 -11 50 0 59 3 90 34 40 40 47 93 15 125
-18 18 -107 51 -136 51 -7 0 -20 9 -31 21 -19 21 -18 21 5 40 13 10 31 19 41
19 32 0 70 -19 70 -35 0 -10 10 -15 30 -15 17 0 30 4 30 10 0 24 -26 63 -51
76 -31 15 -102 18 -135 4z"/>
<path d="M6474 3061 c-43 -26 -66 -81 -66 -156 0 -71 19 -113 62 -139 39 -23
101 -21 134 5 l26 20 0 -24 c0 -13 -5 -38 -10 -54 -18 -52 -93 -70 -130 -33
-26 26 -70 27 -70 2 0 -58 127 -94 196 -57 58 31 68 68 72 268 l4 177 -31 0
c-22 0 -31 -5 -31 -16 0 -13 -5 -12 -26 5 -33 26 -89 27 -130 2z m127 -60 c24
-25 29 -38 29 -78 0 -59 -17 -94 -54 -111 -62 -30 -109 14 -108 102 0 62 14
93 45 106 38 15 58 11 88 -19z"/>
<path d="M6853 3060 c-27 -16 -33 -17 -33 -5 0 10 -10 15 -30 15 l-30 0 0
-160 0 -160 30 0 30 0 0 95 c0 61 5 108 15 130 24 60 105 72 125 19 6 -14 10
-75 10 -135 l0 -109 30 0 30 0 0 113 c0 127 -11 180 -43 202 -30 21 -96 19
-134 -5z"/>
<path d="M7148 3064 c-48 -25 -66 -84 -27 -84 12 0 32 11 45 25 38 41 124 28
124 -19 0 -27 -8 -31 -84 -41 -27 -4 -60 -12 -73 -18 -27 -12 -53 -55 -53 -87
0 -29 27 -77 49 -90 32 -16 93 -11 130 11 l33 20 15 -20 c9 -13 25 -21 44 -21
24 0 29 4 29 25 0 16 -6 25 -15 25 -12 0 -15 19 -15 111 0 61 -5 119 -10 130
-25 46 -134 65 -192 33z m142 -187 c0 -61 -76 -105 -125 -73 -28 18 -32 47
-10 66 12 10 89 33 128 39 4 1 7 -14 7 -32z"/>
<path d="M4530 2910 l0 -160 30 0 30 0 0 160 0 160 -30 0 -30 0 0 -160z"/>
<path d="M5320 2968 c0 -132 7 -172 36 -203 30 -33 102 -35 145 -4 24 17 29
18 29 5 0 -10 9 -16 25 -16 l25 0 0 160 0 160 -30 0 -30 0 0 -114 c0 -94 -3
-118 -17 -135 -24 -28 -72 -37 -98 -17 -18 13 -20 28 -23 140 l-4 126 -29 0
-29 0 0 -102z"/>
<path d="M6300 2910 l0 -160 30 0 30 0 0 160 0 160 -30 0 -30 0 0 -160z"/>
<path d="M12860 2445 c0 -21 5 -25 30 -25 25 0 30 4 30 25 0 21 -5 25 -30 25
-25 0 -30 -4 -30 -25z"/>
<path d="M13990 2255 l0 -215 30 0 30 0 0 215 0 215 -30 0 -30 0 0 -215z"/>
<path d="M4790 2431 c-11 -17 -33 -56 -48 -88 -24 -51 -27 -70 -27 -158 0 -88
4 -107 27 -158 37 -80 66 -117 89 -117 18 0 18 2 -6 50 -14 27 -32 75 -40 107
-29 110 -14 236 40 343 24 48 24 50 6 50 -11 0 -29 -13 -41 -29z"/>
<path d="M6710 2245 l0 -215 30 0 30 0 0 215 0 215 -30 0 -30 0 0 -215z"/>
<path d="M7162 2453 c92 -191 101 -310 34 -465 -33 -76 -33 -79 -13 -76 13 2
33 24 55 60 63 106 77 217 43 327 -25 80 -77 161 -103 161 -11 0 -18 -3 -16
-7z"/>
<path d="M12604 2360 c-32 -13 -54 -50 -54 -91 0 -47 29 -72 103 -89 71 -17
87 -27 87 -54 0 -24 -34 -46 -70 -46 -30 0 -69 21 -75 42 -8 23 -55 25 -55 2
0 -26 31 -71 57 -83 13 -6 49 -11 79 -11 50 0 59 3 90 34 40 40 47 93 15 125
-18 18 -107 51 -136 51 -7 0 -20 9 -31 21 -19 21 -18 21 5 40 13 10 31 19 41
19 32 0 70 -19 70 -35 0 -10 10 -15 30 -15 17 0 30 4 30 10 0 24 -26 63 -51
76 -31 15 -102 18 -135 4z"/>
<path d="M13034 2351 c-43 -26 -66 -81 -66 -156 0 -71 19 -113 62 -139 39 -23
101 -21 134 5 l26 20 0 -24 c0 -13 -5 -38 -10 -54 -18 -52 -93 -70 -130 -33
-26 26 -70 27 -70 2 0 -58 127 -94 196 -57 58 31 68 68 72 268 l4 177 -31 0
c-22 0 -31 -5 -31 -16 0 -13 -5 -12 -26 5 -33 26 -89 27 -130 2z m127 -60 c24
-25 29 -38 29 -78 0 -59 -17 -94 -54 -111 -62 -30 -109 14 -108 102 0 62 14
93 45 106 38 15 58 11 88 -19z"/>
<path d="M13413 2350 c-27 -16 -33 -17 -33 -5 0 10 -10 15 -30 15 l-30 0 0
-160 0 -160 30 0 30 0 0 95 c0 61 5 108 15 130 24 60 105 72 125 19 6 -14 10
-75 10 -135 l0 -109 30 0 30 0 0 113 c0 127 -11 180 -43 202 -30 21 -96 19
-134 -5z"/>
<path d="M13708 2354 c-48 -25 -66 -84 -27 -84 12 0 32 11 45 25 38 41 124 28
124 -19 0 -27 -8 -31 -84 -41 -27 -4 -60 -12 -73 -18 -27 -12 -53 -55 -53 -87
0 -29 27 -77 49 -90 32 -16 93 -11 130 11 l33 20 15 -20 c9 -13 25 -21 44 -21
24 0 29 4 29 25 0 16 -6 25 -15 25 -12 0 -15 19 -15 111 0 61 -5 119 -10 130
-25 46 -134 65 -192 33z m142 -187 c0 -61 -76 -105 -125 -73 -28 18 -32 47
-10 66 12 10 89 33 128 39 4 1 7 -14 7 -32z"/>
<path d="M4962 2340 c-41 -25 -71 -89 -72 -153 0 -101 56 -167 142 -167 62 0
99 21 128 72 l21 38 -31 0 c-18 0 -33 -6 -37 -15 -7 -19 -55 -45 -82 -45 -27
0 -69 39 -77 73 l-6 27 116 0 116 0 0 35 c0 54 -28 112 -65 135 -42 26 -110
26 -153 0z m111 -41 c23 -10 47 -46 47 -69 0 -6 -38 -10 -86 -10 -84 0 -85 0
-78 23 17 56 66 79 117 56z"/>
<path d="M5598 2344 c-48 -25 -66 -84 -27 -84 12 0 32 11 45 25 38 41 124 28
124 -19 0 -27 -8 -31 -84 -41 -27 -4 -60 -12 -73 -18 -27 -12 -53 -55 -53 -87
0 -29 27 -77 49 -90 32 -16 93 -11 130 11 l33 20 15 -20 c9 -13 25 -21 44 -21
24 0 29 4 29 25 0 16 -6 25 -15 25 -12 0 -15 19 -15 111 0 61 -5 119 -10 130
-25 46 -134 65 -192 33z m142 -187 c0 -61 -76 -105 -125 -73 -28 18 -32 47
-10 66 12 10 89 33 128 39 4 1 7 -14 7 -32z"/>
<path d="M5958 2339 c-24 -17 -28 -18 -28 -5 0 10 -9 16 -25 16 l-25 0 0 -160
0 -160 30 0 30 0 0 119 c0 117 1 120 26 140 32 25 57 27 78 5 13 -12 16 -40
16 -140 l0 -124 30 0 30 0 0 115 c0 110 1 117 25 140 26 27 46 31 76 15 17
-10 19 -22 19 -140 l0 -130 30 0 30 0 0 130 c0 175 -13 200 -99 200 -24 0 -49
-8 -65 -21 l-27 -21 -23 21 c-29 28 -91 28 -128 0z"/>
<path d="M6456 2339 c-21 -17 -26 -18 -26 -5 0 11 -9 16 -30 16 l-30 0 0 -225
0 -225 30 0 30 0 0 82 0 81 23 -21 c28 -26 84 -29 128 -6 60 30 90 165 55 248
-30 72 -122 101 -180 55z m82 -35 c32 -9 52 -54 52 -119 0 -49 -4 -60 -29 -86
-32 -32 -47 -35 -85 -18 -34 16 -49 59 -44 126 4 46 10 61 32 80 29 24 37 26
74 17z"/>
<path d="M6902 2340 c-41 -25 -71 -89 -72 -153 0 -101 56 -167 142 -167 62 0
99 21 128 72 l21 38 -31 0 c-18 0 -33 -6 -37 -15 -7 -19 -55 -45 -82 -45 -27
0 -69 39 -77 73 l-6 27 116 0 116 0 0 35 c0 54 -28 112 -65 135 -42 26 -110
26 -153 0z m111 -41 c23 -10 47 -46 47 -69 0 -6 -38 -10 -86 -10 -84 0 -85 0
-78 23 17 56 66 79 117 56z"/>
<path d="M12860 2200 l0 -160 30 0 30 0 0 160 0 160 -30 0 -30 0 0 -160z"/>
<path d="M5226 2338 c4 -7 25 -40 47 -72 22 -33 40 -65 40 -71 0 -6 -23 -46
-52 -88 l-52 -77 38 0 c33 0 41 5 56 33 10 17 26 43 36 56 l19 25 36 -57 c33
-52 40 -57 72 -57 40 0 41 -3 -29 100 l-44 65 54 78 54 77 -35 0 c-32 0 -39
-5 -68 -50 -18 -27 -36 -50 -40 -50 -3 0 -20 23 -37 50 -28 45 -34 50 -66 50
-26 0 -34 -3 -29 -12z"/>
</g>
</svg>
