<?xml version="1.0" standalone="no"?>
<!DOCTYPE svg PUBLIC "-//W3C//DTD SVG 20010904//EN"
 "http://www.w3.org/TR/2001/REC-SVG-20010904/DTD/svg10.dtd">
<svg version="1.0" xmlns="http://www.w3.org/2000/svg"
 width="1920.000000pt" height="1080.000000pt" viewBox="0 0 1920.000000 1080.000000"
 preserveAspectRatio="xMidYMid meet">

<g transform="translate(0.000000,1080.000000) scale(0.100000,-0.100000)"
fill="#000000" stroke="none">
<path d="M2900 5515 l0 -2585 6691 0 c4010 0 6688 -4 6685 -9 -4 -5 -71 -46
-151 -91 l-145 -81 25 -42 c14 -23 31 -41 38 -39 18 5 509 283 526 297 13 13
-3 24 -515 362 -20 12 -23 10 -48 -27 -14 -22 -26 -42 -26 -45 0 -3 75 -55
167 -115 l168 -110 -3548 0 -3547 0 0 55 c0 52 -1 55 -25 55 -24 0 -25 -3 -25
-55 l0 -55 -439 0 -440 0 -3 53 c-3 48 -5 52 -28 52 -23 0 -25 -4 -28 -52 l-3
-53 -2615 0 -2614 0 0 2242 0 2241 43 -54 c23 -30 319 -412 657 -847 338 -436
616 -801 618 -812 2 -11 9 -20 16 -20 10 0 1366 -1736 1374 -1760 2 -6 -29
-10 -77 -10 -80 0 -81 0 -81 -26 l0 -25 105 3 c58 2 105 0 105 -4 0 -5 556 -8
1235 -8 l1235 0 0 -80 c0 -79 0 -80 25 -80 25 0 25 1 25 85 l0 84 399 858
c219 472 409 880 422 907 37 76 48 71 51 -26 3 -81 4 -83 28 -83 25 0 25 1 25
80 l0 80 3348 3 3347 2 0 35 0 35 -3411 -2 -3412 -3 -423 -910 -423 -910
-1214 -3 -1213 -2 -681 877 -682 878 35 3 c29 3 34 7 34 28 0 22 -3 24 -53 24
-43 0 -58 5 -74 23 -11 12 -327 417 -702 900 l-681 878 0 234 0 235 -50 0 -50
0 0 -2585z"/>
<path d="M5501 7758 c-25 -50 -31 -73 -31 -128 0 -55 6 -78 31 -128 17 -34 37
-62 45 -62 18 0 18 -1 -8 57 -17 37 -21 67 -21 133 0 66 4 96 21 133 26 58 26
57 8 57 -8 0 -28 -28 -45 -62z"/>
<path d="M7728 7763 c21 -47 26 -73 26 -133 0 -60 -5 -86 -26 -132 -25 -54
-26 -58 -8 -58 13 0 28 19 51 65 29 59 31 71 27 138 -4 57 -11 85 -34 125 -17
31 -36 52 -46 52 -15 0 -14 -7 10 -57z"/>
<path d="M5615 7758 c-3 -29 -8 -65 -11 -80 -7 -34 10 -36 55 -10 28 15 33 16
58 2 49 -27 41 -113 -11 -126 -29 -7 -66 11 -66 31 0 9 -10 15 -25 15 -27 0
-32 -16 -12 -41 36 -47 120 -53 160 -13 72 72 25 182 -73 172 -36 -3 -40 -1
-40 18 0 47 9 54 71 54 46 0 59 3 59 15 0 12 -15 15 -79 15 l-79 0 -7 -52z"/>
<path d="M5992 7787 c-57 -60 -56 -194 0 -254 27 -29 85 -31 120 -4 62 49 63
212 1 261 -36 28 -93 27 -121 -3z m94 -21 c16 -12 19 -27 19 -106 0 -79 -3
-94 -19 -106 -27 -19 -42 -18 -67 7 -19 19 -21 30 -17 106 2 70 6 87 22 99 25
18 37 18 62 0z"/>
<path d="M6400 7789 c-7 -11 -25 -25 -41 -31 -41 -14 -38 -38 6 -38 l35 0 0
-100 c0 -93 1 -100 20 -100 19 0 20 7 20 145 0 121 -2 145 -15 145 -8 0 -19
-9 -25 -21z"/>
<path d="M6692 7787 c-57 -60 -56 -194 0 -254 27 -29 85 -31 120 -4 62 49 63
212 1 261 -36 28 -93 27 -121 -3z m94 -21 c16 -12 19 -27 19 -106 0 -79 -3
-94 -19 -106 -27 -19 -42 -18 -67 7 -19 19 -21 30 -17 106 2 70 6 87 22 99 25
18 37 18 62 0z"/>
<path d="M7145 7785 c-31 -30 -34 -75 -6 -75 12 0 21 9 25 25 15 58 106 56
106 -2 0 -37 -6 -44 -73 -87 -53 -34 -87 -78 -87 -116 0 -6 39 -10 105 -10 87
0 105 3 105 15 0 12 -16 15 -80 15 -44 0 -80 4 -80 8 0 13 41 48 76 65 42 22
84 73 84 104 0 14 -13 37 -29 54 -40 39 -109 41 -146 4z"/>
<path d="M7502 7787 c-57 -60 -56 -194 0 -254 27 -29 85 -31 120 -4 62 49 63
212 1 261 -36 28 -93 27 -121 -3z m94 -21 c16 -12 19 -27 19 -106 0 -79 -3
-94 -19 -106 -27 -19 -42 -18 -67 7 -19 19 -21 30 -17 106 2 70 6 87 22 99 25
18 37 18 62 0z"/>
<path d="M4750 7770 c0 -20 -5 -30 -15 -30 -8 0 -15 -7 -15 -15 0 -8 7 -15 15
-15 12 0 15 -15 15 -76 0 -91 10 -114 50 -114 34 0 42 25 10 33 -18 5 -20 14
-20 81 0 69 2 76 20 76 11 0 20 7 20 15 0 8 -9 15 -20 15 -16 0 -20 7 -20 30
0 23 -4 30 -20 30 -16 0 -20 -7 -20 -30z"/>
<path d="M5240 7770 c0 -27 -3 -30 -31 -30 -17 0 -39 -5 -50 -10 -13 -7 -19
-7 -19 0 0 5 -11 10 -25 10 l-25 0 0 -110 0 -110 25 0 c24 0 25 2 25 74 0 74
13 106 43 106 7 0 22 3 35 6 21 6 22 4 22 -70 0 -93 10 -116 50 -116 34 0 42
25 10 33 -18 5 -20 14 -20 81 0 69 2 76 20 76 11 0 20 7 20 15 0 8 -9 15 -20
15 -16 0 -20 7 -20 30 0 23 -4 30 -20 30 -16 0 -20 -7 -20 -30z"/>
<path d="M3331 7708 l-84 -72 25 -20 c14 -12 51 -43 82 -70 56 -48 57 -48 77
-30 l21 19 -44 37 -43 37 523 1 522 0 0 25 0 25 -522 0 -523 1 41 38 c39 37
40 40 25 60 -16 21 -17 20 -100 -51z"/>
<path d="M4552 7724 c-15 -10 -22 -25 -22 -49 0 -38 25 -57 92 -69 41 -7 54
-28 32 -51 -22 -22 -51 -18 -80 10 -32 32 -58 34 -49 3 18 -61 113 -81 160
-33 46 46 21 97 -53 110 -50 8 -70 28 -52 50 17 21 46 19 70 -5 23 -23 50 -26
50 -7 0 8 -10 23 -23 35 -28 26 -92 30 -125 6z"/>
<path d="M4892 7724 c-28 -19 -30 -54 -2 -54 11 0 20 7 20 15 0 18 40 29 70
20 14 -5 20 -13 18 -28 -2 -18 -12 -23 -53 -29 -36 -5 -56 -14 -72 -33 -28
-32 -29 -45 -2 -79 22 -28 73 -35 111 -15 14 8 23 8 31 0 14 -14 44 -14 53 0
4 7 -1 16 -10 21 -13 7 -16 25 -16 88 0 70 -2 81 -22 94 -12 9 -41 16 -63 16
-22 0 -51 -7 -63 -16z m106 -131 c-7 -59 -93 -70 -93 -12 0 18 7 25 30 30 60
13 67 11 63 -18z"/>
<path d="M2135 7658 c-3 -29 -8 -65 -11 -80 -7 -34 10 -36 55 -10 28 15 33 16
58 2 49 -27 41 -113 -11 -126 -29 -7 -66 11 -66 31 0 9 -10 15 -25 15 -27 0
-32 -16 -12 -41 36 -47 120 -53 160 -13 72 72 25 182 -73 172 -36 -3 -40 -1
-40 18 0 47 9 54 71 54 46 0 59 3 59 15 0 12 -15 15 -79 15 l-79 0 -7 -52z"/>
<path d="M2502 7687 c-57 -60 -56 -194 0 -254 27 -29 85 -31 120 -4 62 49 63
212 1 261 -36 28 -93 27 -121 -3z m94 -21 c16 -12 19 -27 19 -106 0 -79 -3
-94 -19 -106 -27 -19 -42 -18 -67 7 -19 19 -21 30 -17 106 2 70 6 87 22 99 25
18 37 18 62 0z"/>
<path d="M5850 7540 c0 -15 7 -20 25 -20 18 0 25 5 25 20 0 15 -7 20 -25 20
-18 0 -25 -5 -25 -20z"/>
<path d="M6200 7541 c0 -11 6 -21 13 -24 10 -3 10 -9 0 -26 -17 -27 -16 -31 2
-31 19 0 35 31 35 69 0 26 -4 31 -25 31 -18 0 -25 -5 -25 -19z"/>
<path d="M6550 7540 c0 -15 7 -20 25 -20 18 0 25 5 25 20 0 15 -7 20 -25 20
-18 0 -25 -5 -25 -20z"/>
<path d="M6900 7541 c0 -11 6 -21 13 -24 10 -3 10 -9 0 -26 -17 -27 -16 -31 2
-31 19 0 35 31 35 69 0 26 -4 31 -25 31 -18 0 -25 -5 -25 -19z"/>
<path d="M7370 7540 c0 -15 7 -20 25 -20 18 0 25 5 25 20 0 15 -7 20 -25 20
-18 0 -25 -5 -25 -20z"/>
<path d="M2360 7440 c0 -15 7 -20 25 -20 18 0 25 5 25 20 0 15 -7 20 -25 20
-18 0 -25 -5 -25 -20z"/>
<path d="M2147 5978 c-14 -13 -28 -35 -31 -50 -6 -25 -3 -28 18 -28 18 0 25 7
29 30 7 34 43 48 77 30 16 -9 20 -19 18 -43 -2 -26 -9 -34 -35 -42 -44 -12
-42 -29 5 -41 32 -8 37 -13 40 -41 6 -66 -88 -85 -110 -23 -6 19 -17 30 -29
30 -22 0 -25 -21 -7 -53 18 -35 40 -46 91 -47 41 0 53 5 78 29 35 35 39 81 10
110 -19 19 -19 22 -4 51 12 26 13 36 3 61 -16 37 -37 49 -89 49 -27 0 -48 -7
-64 -22z"/>
<path d="M2502 5977 c-57 -60 -56 -194 0 -254 27 -29 85 -31 120 -4 62 49 63
212 1 261 -36 28 -93 27 -121 -3z m94 -21 c16 -12 19 -27 19 -106 0 -79 -3
-94 -19 -106 -27 -19 -42 -18 -67 7 -19 19 -21 30 -17 106 2 70 6 87 22 99 25
18 37 18 62 0z"/>
<path d="M3100 5805 c0 -25 0 -25 95 -25 95 0 95 0 95 25 0 25 0 25 -95 25
-95 0 -95 0 -95 -25z"/>
<path d="M3400 5805 c0 -25 0 -25 95 -25 95 0 95 0 95 25 0 25 0 25 -95 25
-95 0 -95 0 -95 -25z"/>
<path d="M3680 5805 c0 -25 0 -25 95 -25 95 0 95 0 95 25 0 25 0 25 -95 25
-95 0 -95 0 -95 -25z"/>
<path d="M3980 5805 c0 -25 0 -25 95 -25 95 0 95 0 95 25 0 25 0 25 -95 25
-95 0 -95 0 -95 -25z"/>
<path d="M4620 5805 c0 -25 0 -25 95 -25 95 0 95 0 95 25 0 25 0 25 -95 25
-95 0 -95 0 -95 -25z"/>
<path d="M4900 5805 c0 -25 0 -25 95 -25 95 0 95 0 95 25 0 25 0 25 -95 25
-95 0 -95 0 -95 -25z"/>
<path d="M5200 5805 c0 -25 0 -25 95 -25 95 0 95 0 95 25 0 25 0 25 -95 25
-95 0 -95 0 -95 -25z"/>
<path d="M5500 5805 c0 -25 0 -25 95 -25 95 0 95 0 95 25 0 25 0 25 -95 25
-95 0 -95 0 -95 -25z"/>
<path d="M5800 5805 c0 -25 0 -25 95 -25 95 0 95 0 95 25 0 25 0 25 -95 25
-95 0 -95 0 -95 -25z"/>
<path d="M6080 5805 c0 -25 0 -25 95 -25 95 0 95 0 95 25 0 25 0 25 -95 25
-95 0 -95 0 -95 -25z"/>
<path d="M6380 5805 c0 -25 0 -25 95 -25 95 0 95 0 95 25 0 25 0 25 -95 25
-95 0 -95 0 -95 -25z"/>
<path d="M6720 5805 c0 -25 0 -25 95 -25 95 0 95 0 95 25 0 25 0 25 -95 25
-95 0 -95 0 -95 -25z"/>
<path d="M7020 5805 c0 -25 0 -25 95 -25 95 0 95 0 95 25 0 25 0 25 -95 25
-95 0 -95 0 -95 -25z"/>
<path d="M7300 5805 c0 -25 0 -25 95 -25 95 0 95 0 95 25 0 25 0 25 -95 25
-95 0 -95 0 -95 -25z"/>
<path d="M7600 5805 c0 -25 0 -25 95 -25 95 0 95 0 95 25 0 25 0 25 -95 25
-95 0 -95 0 -95 -25z"/>
<path d="M7950 5805 l0 -25 100 0 100 0 0 25 0 25 -100 0 -100 0 0 -25z"/>
<path d="M8250 5805 l0 -25 100 0 100 0 0 25 0 25 -100 0 -100 0 0 -25z"/>
<path d="M8530 5805 l0 -25 100 0 100 0 0 25 0 25 -100 0 -100 0 0 -25z"/>
<path d="M8830 5805 l0 -25 100 0 100 0 0 25 0 25 -100 0 -100 0 0 -25z"/>
<path d="M2360 5730 c0 -15 7 -20 25 -20 18 0 25 5 25 20 0 15 -7 20 -25 20
-18 0 -25 -5 -25 -20z"/>
<path d="M9152 5413 c3 -97 3 -98 28 -98 25 0 25 1 28 98 l3 97 -31 0 -31 0 3
-97z"/>
<path d="M9160 5130 l0 -100 25 0 25 0 0 100 0 100 -25 0 -25 0 0 -100z"/>
<path d="M9160 4830 l0 -100 25 0 25 0 0 100 0 100 -25 0 -25 0 0 -100z"/>
<path d="M9160 4475 c0 -95 0 -95 25 -95 25 0 25 0 25 95 0 95 0 95 -25 95
-25 0 -25 0 -25 -95z"/>
<path d="M9160 4175 l0 -95 31 0 c31 0 31 1 25 38 -3 20 -6 63 -6 95 0 54 -1
57 -25 57 -25 0 -25 0 -25 -95z"/>
<path d="M2190 4159 c-7 -11 -25 -25 -41 -31 -41 -14 -38 -38 6 -38 l35 0 0
-100 c0 -93 1 -100 20 -100 19 0 20 7 20 145 0 121 -2 145 -15 145 -8 0 -19
-9 -25 -21z"/>
<path d="M2482 4157 c-57 -60 -56 -194 0 -254 27 -29 85 -31 120 -4 62 49 63
212 1 261 -36 28 -93 27 -121 -3z m94 -21 c16 -12 19 -27 19 -106 0 -79 -3
-94 -19 -106 -27 -19 -42 -18 -67 7 -19 19 -21 30 -17 106 2 70 6 87 22 99 25
18 37 18 62 0z"/>
<path d="M10761 4108 c-25 -50 -31 -73 -31 -128 0 -55 6 -78 31 -128 17 -34
37 -62 45 -62 18 0 18 -1 -8 57 -17 37 -21 67 -21 133 0 66 4 96 21 133 26 58
26 57 8 57 -8 0 -28 -28 -45 -62z"/>
<path d="M12168 4113 c21 -47 26 -73 26 -133 0 -60 -5 -86 -26 -132 -25 -54
-26 -58 -8 -58 13 0 28 19 51 65 29 59 31 71 27 138 -4 57 -11 85 -34 125 -17
31 -36 52 -46 52 -15 0 -14 -7 10 -57z"/>
<path d="M10887 4138 c-14 -13 -28 -35 -31 -50 -6 -25 -3 -28 18 -28 18 0 25
7 29 30 7 34 43 48 77 30 16 -9 20 -19 18 -43 -2 -26 -9 -34 -35 -42 -44 -12
-42 -29 5 -41 32 -8 37 -13 40 -41 6 -66 -88 -85 -110 -23 -6 19 -17 30 -29
30 -22 0 -25 -21 -7 -53 18 -35 40 -46 91 -47 41 0 53 5 78 29 35 35 39 81 10
110 -19 19 -19 22 -4 51 12 26 13 36 3 61 -16 37 -37 49 -89 49 -27 0 -48 -7
-64 -22z"/>
<path d="M11242 4137 c-57 -60 -56 -194 0 -254 27 -29 85 -31 120 -4 62 49 63
212 1 261 -36 28 -93 27 -121 -3z m94 -21 c16 -12 19 -27 19 -106 0 -79 -3
-94 -19 -106 -27 -19 -42 -18 -67 7 -19 19 -21 30 -17 106 2 70 6 87 22 99 25
18 37 18 62 0z"/>
<path d="M11650 4139 c-7 -11 -25 -25 -41 -31 -41 -14 -38 -38 6 -38 l35 0 0
-100 c0 -93 1 -100 20 -100 19 0 20 7 20 145 0 121 -2 145 -15 145 -8 0 -19
-9 -25 -21z"/>
<path d="M11942 4137 c-57 -60 -56 -194 0 -254 27 -29 85 -31 120 -4 62 49 63
212 1 261 -36 28 -93 27 -121 -3z m94 -21 c16 -12 19 -27 19 -106 0 -79 -3
-94 -19 -106 -27 -19 -42 -18 -67 7 -19 19 -21 30 -17 106 2 70 6 87 22 99 25
18 37 18 62 0z"/>
<path d="M10010 4120 c0 -20 -5 -30 -15 -30 -8 0 -15 -7 -15 -15 0 -8 7 -15
15 -15 12 0 15 -15 15 -76 0 -91 10 -114 50 -114 34 0 42 25 10 33 -18 5 -20
14 -20 81 0 69 2 76 20 76 11 0 20 7 20 15 0 8 -9 15 -20 15 -16 0 -20 7 -20
30 0 23 -4 30 -20 30 -16 0 -20 -7 -20 -30z"/>
<path d="M10500 4120 c0 -27 -3 -30 -31 -30 -17 0 -39 -5 -50 -10 -13 -7 -19
-7 -19 0 0 5 -11 10 -25 10 l-25 0 0 -110 0 -110 25 0 c24 0 25 2 25 74 0 74
13 106 43 106 7 0 22 3 35 6 21 6 22 4 22 -70 0 -93 10 -116 50 -116 34 0 42
25 10 33 -18 5 -20 14 -20 81 0 69 2 76 20 76 11 0 20 7 20 15 0 8 -9 15 -20
15 -16 0 -20 7 -20 30 0 23 -4 30 -20 30 -16 0 -20 -7 -20 -30z"/>
<path d="M8595 4092 c-22 -20 -58 -52 -80 -71 l-39 -34 49 -44 c28 -25 65 -56
83 -70 31 -25 34 -25 50 -9 16 16 15 19 -25 57 l-42 39 284 0 285 0 0 -80 0
-80 30 0 30 0 0 80 0 80 223 2 222 3 0 25 0 25 -534 3 -534 2 39 34 39 35 -20
20 -20 20 -40 -37z"/>
<path d="M9812 4074 c-15 -10 -22 -25 -22 -49 0 -38 25 -57 92 -69 41 -7 54
-28 32 -51 -22 -22 -51 -18 -80 10 -32 32 -58 34 -49 3 18 -61 113 -81 160
-33 46 46 21 97 -53 110 -50 8 -70 28 -52 50 17 21 46 19 70 -5 23 -23 50 -26
50 -7 0 8 -10 23 -23 35 -28 26 -92 30 -125 6z"/>
<path d="M10142 4074 c-28 -19 -30 -54 -2 -54 11 0 20 7 20 15 0 18 40 29 70
20 14 -5 20 -13 18 -28 -2 -18 -12 -23 -53 -29 -36 -5 -56 -14 -72 -33 -28
-32 -29 -45 -2 -79 22 -28 73 -35 111 -15 14 8 23 8 31 0 14 -14 44 -14 53 0
4 7 -1 16 -10 21 -13 7 -16 25 -16 88 0 70 -2 81 -22 94 -12 9 -41 16 -63 16
-22 0 -51 -7 -63 -16z m106 -131 c-7 -59 -93 -70 -93 -12 0 18 7 25 30 30 60
13 67 11 63 -18z"/>
<path d="M3090 3985 l0 -25 100 0 100 0 0 25 0 25 -100 0 -100 0 0 -25z"/>
<path d="M3390 3985 l0 -25 100 0 100 0 0 25 0 25 -100 0 -100 0 0 -25z"/>
<path d="M3670 3985 l0 -25 100 0 100 0 0 25 0 25 -100 0 -100 0 0 -25z"/>
<path d="M3970 3985 l0 -25 100 0 100 0 0 25 0 25 -100 0 -100 0 0 -25z"/>
<path d="M4310 3985 l0 -25 100 0 100 0 0 25 0 25 -100 0 -100 0 0 -25z"/>
<path d="M4610 3985 l0 -25 100 0 100 0 0 25 0 25 -100 0 -100 0 0 -25z"/>
<path d="M4890 3985 l0 -25 100 0 100 0 0 25 0 25 -100 0 -100 0 0 -25z"/>
<path d="M5190 3985 l0 -25 100 0 100 0 0 25 0 25 -100 0 -100 0 0 -25z"/>
<path d="M2340 3910 c0 -15 7 -20 25 -20 18 0 25 5 25 20 0 15 -7 20 -25 20
-18 0 -25 -5 -25 -20z"/>
<path d="M11100 3890 c0 -15 7 -20 25 -20 18 0 25 5 25 20 0 15 -7 20 -25 20
-18 0 -25 -5 -25 -20z"/>
<path d="M11460 3891 c0 -11 6 -21 13 -24 10 -3 10 -9 0 -26 -17 -27 -16 -31
2 -31 19 0 35 31 35 69 0 26 -4 31 -25 31 -18 0 -25 -5 -25 -19z"/>
<path d="M11810 3890 c0 -15 7 -20 25 -20 18 0 25 5 25 20 0 15 -7 20 -25 20
-18 0 -25 -5 -25 -20z"/>
<path d="M8230 3595 c0 -76 3 -97 15 -101 35 -14 40 1 37 100 -3 94 -4 96 -28
96 -24 0 -24 -1 -24 -95z"/>
<path d="M9170 3595 c0 -95 0 -95 25 -95 25 0 25 0 25 95 0 95 0 95 -25 95
-25 0 -25 0 -25 -95z"/>
<path d="M9170 3320 l0 -100 25 0 25 0 0 100 0 100 -25 0 -25 0 0 -100z"/>
<path d="M8230 3315 l0 -95 30 0 30 0 0 79 c0 96 -5 111 -36 111 -24 0 -24 -1
-24 -95z"/>
<path d="M2132 3177 c-57 -60 -56 -194 0 -254 27 -29 85 -31 120 -4 62 49 63
212 1 261 -36 28 -93 27 -121 -3z m94 -21 c16 -12 19 -27 19 -106 0 -79 -3
-94 -19 -106 -27 -19 -42 -18 -67 7 -19 19 -21 30 -17 106 2 70 6 87 22 99 25
18 37 18 62 0z"/>
<path d="M2482 3177 c-57 -60 -56 -194 0 -254 27 -29 85 -31 120 -4 62 49 63
212 1 261 -36 28 -93 27 -121 -3z m94 -21 c16 -12 19 -27 19 -106 0 -79 -3
-94 -19 -106 -27 -19 -42 -18 -67 7 -19 19 -21 30 -17 106 2 70 6 87 22 99 25
18 37 18 62 0z"/>
<path d="M2340 2930 c0 -15 7 -20 25 -20 18 0 25 5 25 20 0 15 -7 20 -25 20
-18 0 -25 -5 -25 -20z"/>
<path d="M2950 2705 l0 -135 25 0 c24 0 25 3 25 55 l0 55 1365 0 1365 0 0 -55
c0 -55 0 -55 31 -55 l32 0 -7 46 c-3 26 -6 87 -6 135 0 88 0 89 -25 89 -24 0
-25 -3 -25 -55 l0 -55 -1365 0 -1365 0 0 55 c0 52 -1 55 -25 55 l-25 0 0 -135z"/>
<path d="M8234 2803 c3 -21 6 -82 6 -135 0 -98 0 -98 25 -98 24 0 25 3 25 55
l0 55 429 0 429 0 6 -22 c3 -13 6 -38 6 -55 0 -28 3 -33 25 -33 l25 0 0 135 0
135 -30 0 c-30 0 -30 -1 -30 -55 l0 -55 -430 0 -430 0 0 55 c0 55 0 55 -31 55
-31 0 -31 -1 -25 -37z"/>
<path d="M5007 2394 c-3 -4 8 -34 26 -68 31 -59 32 -65 32 -181 0 -110 -3
-125 -28 -179 -32 -69 -31 -66 -12 -66 36 0 105 160 105 245 0 60 -31 153 -69
208 -31 46 -41 53 -54 41z"/>
<path d="M4643 2348 c-33 -52 -63 -147 -63 -197 0 -61 29 -153 66 -208 19 -29
38 -53 42 -53 21 0 18 16 -11 78 -30 63 -32 73 -32 182 0 104 3 121 28 174 32
69 31 66 12 66 -8 0 -27 -19 -42 -42z"/>
<path d="M8521 2345 c-75 -64 -79 -259 -6 -332 28 -28 40 -33 78 -33 83 0 127
69 127 199 0 127 -42 191 -125 191 -32 0 -51 -7 -74 -25z m113 -38 c46 -46 45
-219 -1 -265 -51 -51 -105 -2 -111 103 -6 85 4 132 33 161 30 30 50 30 79 1z"/>
<path d="M8984 2329 c-57 -91 -74 -185 -50 -279 20 -77 70 -160 97 -160 16 0
15 7 -14 68 -30 62 -32 75 -32 172 0 97 2 110 32 173 30 62 30 67 13 67 -12 0
-30 -16 -46 -41z"/>
<path d="M9353 2358 c54 -123 57 -133 57 -228 0 -95 -3 -105 -57 -227 -3 -8 3
-13 15 -13 16 0 30 18 59 77 35 71 38 83 38 163 0 81 -3 92 -39 163 -28 57
-44 77 -58 77 -12 0 -18 -5 -15 -12z"/>
<path d="M3740 2333 c-23 -20 -33 -40 -37 -71 -6 -42 -5 -44 18 -40 17 2 26
12 33 36 27 97 157 66 132 -31 -4 -17 -25 -37 -64 -61 -65 -39 -107 -81 -116
-113 -3 -13 -9 -32 -12 -43 -5 -19 -1 -20 125 -20 l131 0 0 25 c0 25 0 25 -95
25 -52 0 -95 4 -95 8 0 17 27 41 93 82 92 57 115 106 82 170 -23 44 -53 60
-112 60 -43 0 -58 -5 -83 -27z"/>
<path d="M4175 2327 c-19 -19 -38 -52 -45 -78 -15 -53 -7 -156 14 -198 59
-113 198 -87 227 43 23 106 -3 215 -60 249 -48 28 -98 22 -136 -16z m134 -52
c9 -19 15 -61 15 -111 0 -100 -17 -134 -67 -134 -61 0 -77 30 -77 140 0 113
17 142 80 138 28 -2 38 -9 49 -33z"/>
<path d="M8148 2335 c-7 -17 -24 -29 -50 -35 -28 -8 -38 -16 -38 -30 0 -17 7
-20 40 -20 l40 0 0 -130 0 -130 30 0 30 0 0 185 c0 179 -1 185 -20 185 -12 0
-25 -10 -32 -25z"/>
<path d="M4805 2281 c-49 -20 -75 -79 -51 -116 15 -23 37 -33 124 -55 66 -17
53 -70 -17 -70 -41 0 -55 7 -64 33 -7 20 -57 24 -57 5 0 -7 9 -27 20 -45 14
-23 29 -34 55 -39 88 -16 155 21 155 86 0 46 -20 65 -85 81 -71 17 -87 27 -83
52 2 18 11 23 45 25 34 2 45 -1 55 -17 13 -22 58 -29 58 -10 0 53 -93 95 -155
70z"/>
<path d="M15180 2265 c0 -20 5 -25 25 -25 20 0 25 5 25 25 0 20 -5 25 -25 25
-20 0 -25 -5 -25 -25z"/>
<path d="M16234 2249 c-57 -91 -74 -185 -50 -279 20 -77 70 -160 97 -160 16 0
15 7 -14 68 -30 62 -32 75 -32 172 0 97 2 110 32 173 30 62 30 67 13 67 -12 0
-30 -16 -46 -41z"/>
<path d="M16603 2278 c54 -123 57 -133 57 -228 0 -95 -3 -105 -57 -227 -3 -8
3 -13 15 -13 16 0 30 18 59 77 35 71 38 83 38 163 0 81 -3 92 -39 163 -28 57
-44 77 -58 77 -12 0 -18 -5 -15 -12z"/>
<path d="M9126 2258 c-15 -13 -29 -37 -32 -55 -9 -44 24 -75 99 -93 69 -16 88
-39 57 -70 -32 -32 -102 -20 -113 19 -3 14 -13 21 -31 21 -20 0 -24 -4 -20
-17 20 -63 48 -83 115 -83 56 0 95 23 109 64 19 60 -8 93 -95 112 -35 8 -75
31 -75 44 0 17 32 40 56 40 14 0 36 -11 50 -25 22 -22 64 -35 64 -20 0 17 -33
66 -49 75 -36 19 -107 12 -135 -12z"/>
<path d="M15040 2225 c0 -28 -4 -35 -20 -35 -13 0 -20 -7 -20 -20 0 -13 7 -20
20 -20 19 0 20 -7 20 -101 0 -123 7 -139 60 -139 33 0 40 3 40 19 0 13 -8 21
-22 23 -22 3 -23 8 -26 101 l-3 97 26 0 c18 0 25 5 25 20 0 15 -7 20 -25 20
-22 0 -25 4 -25 35 0 31 -3 35 -25 35 -22 0 -25 -4 -25 -35z"/>
<path d="M15372 2184 c-12 -8 -22 -10 -22 -5 0 6 -11 11 -25 11 l-25 0 0 -140
0 -140 24 0 c23 0 24 2 28 106 3 97 6 108 27 125 13 11 31 19 40 19 35 0 41
-21 41 -137 0 -112 0 -113 24 -113 23 0 24 2 28 106 3 97 6 108 27 125 13 11
31 19 40 19 35 0 41 -21 41 -137 l0 -113 30 0 30 0 0 104 c0 111 -11 161 -40
176 -30 16 -86 12 -110 -8 -23 -18 -24 -18 -42 0 -22 22 -85 24 -116 2z"/>
<path d="M15776 2179 c-39 -31 -57 -74 -57 -135 0 -62 25 -114 66 -132 34 -16
94 -15 123 2 22 12 62 62 62 79 0 18 -45 4 -70 -23 -44 -47 -99 -37 -119 21
-6 18 -11 36 -11 40 0 5 45 9 100 9 l100 0 0 35 c0 48 -24 91 -60 110 -42 22
-102 19 -134 -6z m112 -36 c11 -10 23 -28 27 -40 6 -22 4 -23 -69 -23 -42 0
-76 2 -76 5 0 4 7 19 15 35 21 41 69 52 103 23z"/>
<path d="M16376 2178 c-15 -13 -29 -37 -32 -55 -9 -44 24 -75 99 -93 69 -16
88 -39 57 -70 -32 -32 -102 -20 -113 19 -3 14 -13 21 -31 21 -20 0 -24 -4 -20
-17 20 -63 48 -83 115 -83 56 0 95 23 109 64 19 60 -8 93 -95 112 -35 8 -75
31 -75 44 0 17 32 40 56 40 14 0 36 -11 50 -25 22 -22 64 -35 64 -20 0 17 -33
66 -49 75 -36 19 -107 12 -135 -12z"/>
<path d="M15180 2050 l0 -140 25 0 25 0 0 140 0 140 -25 0 -25 0 0 -140z"/>
<path d="M4010 2020 c0 -27 3 -30 30 -30 27 0 30 3 30 30 0 27 -3 30 -30 30
-27 0 -30 -3 -30 -30z"/>
<path d="M8350 2015 c0 -21 5 -25 30 -25 25 0 30 4 30 25 0 21 -5 25 -30 25
-25 0 -30 -4 -30 -25z"/>
</g>
</svg>
