<svg xmlns="http://www.w3.org/2000/svg" viewBox="0 0 1920 1080"><defs><style>.cls-1{fill:#fff;}.cls-2{font-size:60px;}.cls-2,.cls-6{font-family:Helvetica, Helvetica;}.cls-3,.cls-4,.cls-5{fill:none;stroke-miterlimit:10;}.cls-3{stroke:#0071bc;stroke-width:7px;}.cls-4,.cls-5{stroke:#000;}.cls-4{stroke-width:10px;}.cls-5{stroke-width:5px;}.cls-6{font-size:48px;}.cls-7{letter-spacing:-0.02em;}</style></defs><title>dutycycle</title><g id="graph"><rect class="cls-1" x="22.63" y="25" width="1786.38" height="938"/><text class="cls-2" transform="translate(175 871.38)">period (s)</text><text class="cls-2" transform="translate(1549 871.38)">time (s)</text><polyline class="cls-3" points="170.23 292.84 337.54 292.84 337.54 757.65 675.11 757.96 675.87 292.84 843.18 292.84 843.18 757.65 1180.75 757.96 1181.52 292.84 1348.83 292.84 1348.83 757.65 1686.4 757.96"/><text class="cls-2" transform="translate(112.7 654.04) rotate(-90)">value (%)</text><polyline class="cls-4" points="1719 766 173 766 173 288"/><line class="cls-5" x1="170.23" y1="244.21" x2="170.23" y2="267.3"/><line class="cls-5" x1="337.54" y1="245.62" x2="337.54" y2="268.71"/><line class="cls-5" x1="170.23" y1="256.93" x2="336.12" y2="256.93"/><line class="cls-5" x1="175.34" y1="781.54" x2="175.34" y2="804.64"/><line class="cls-5" x1="336.12" y1="781.54" x2="336.12" y2="804.64"/><line class="cls-5" x1="175" y1="794.27" x2="337.54" y2="794.27"/><polyline class="cls-4" points="1663.78 733.05 1718.62 767.54 1669.43 794.12 1663.78 796.95"/><text class="cls-2" transform="translate(170.23 201.53)">duty cycle (%)</text></g><g id="New_SquareOsc-_o1_squareosc_v2" data-name="New SquareOsc- o1_squareosc_v2"><g id="Text"><text class="cls-6" transform="translate(54 305.04)">1/on</text><text class="cls-6" transform="translate(54 804.64)">0/o<tspan class="cls-7" x="66.73" y="0">f</tspan><tspan x="79.22" y="0">f</tspan></text></g></g></svg>