<?xml version="1.0" encoding="UTF-8" standalone="no"?>
<svg
   viewBox="0 0 1920 1080"
   version="1.1"
   id="svg39"
   sodipodi:docname="C03_SinOsc_V3.svg"
   inkscape:version="1.4.2 (f4327f4, 2025-05-13)"
   inkscape:export-filename="C03_SinOsc_V3.png"
   inkscape:export-xdpi="96"
   inkscape:export-ydpi="96"
   xmlns:inkscape="http://www.inkscape.org/namespaces/inkscape"
   xmlns:sodipodi="http://sodipodi.sourceforge.net/DTD/sodipodi-0.dtd"
   xmlns="http://www.w3.org/2000/svg"
   xmlns:svg="http://www.w3.org/2000/svg">
  <sodipodi:namedview
     id="namedview39"
     pagecolor="#ffffff"
     bordercolor="#000000"
     borderopacity="0.25"
     inkscape:showpageshadow="2"
     inkscape:pageopacity="0.0"
     inkscape:pagecheckerboard="0"
     inkscape:deskcolor="#d1d1d1"
     inkscape:zoom="0.71574074"
     inkscape:cx="924.91591"
     inkscape:cy="553.97154"
     inkscape:window-width="1920"
     inkscape:window-height="991"
     inkscape:window-x="-9"
     inkscape:window-y="-9"
     inkscape:window-maximized="1"
     inkscape:current-layer="_03_SinOsc" />
  <defs
     id="defs1">
    <style
       id="style1">.cls-1,.cls-3{fill:#fff;}.cls-2{fill:none;stroke:#0071bc;stroke-width:7px;}.cls-2,.cls-3{stroke-miterlimit:10;}.cls-3{stroke:#000;stroke-width:10px;}</style>
  </defs>
  <title
     id="title1">sinosc</title>
  <g
     id="_03_SinOsc"
     data-name="03_SinOsc">
    <rect
       class="cls-1"
       x="73.559998"
       y="55.389999"
       width="1772.89"
       height="965.83002"
       id="rect1"
       style="display:inline" />
    <line
       class="cls-6"
       x1="237.99614"
       y1="778.0957"
       x2="237.99614"
       y2="801.18567"
       id="line8-4"
       style="fill:#000000;fill-opacity:1;stroke:#000000;stroke-width:5;stroke-miterlimit:10;stroke-dasharray:none" />
    <line
       class="cls-6"
       x1="721.26312"
       y1="779.50568"
       x2="721.26312"
       y2="802.5957"
       id="line9-8"
       style="fill:#000000;fill-opacity:1;stroke:#000000;stroke-width:5;stroke-miterlimit:10;stroke-dasharray:none" />
    <line
       class="cls-6"
       x1="237.99614"
       y1="790.81567"
       x2="720.37231"
       y2="790.81567"
       id="line10-8"
       style="fill:#000000;fill-opacity:1;stroke:#000000;stroke-width:5.01672;stroke-miterlimit:10;stroke-dasharray:none" />
    <g
       id="Layer_34"
       data-name="Layer 34"
       style="display:inline">
      <path
         d="m 147.82,249.24 c -0.7,1.6 -2.2,2.6 -4.6,3 -5.1,1 -4.8,3.6 0.4,3.6 h 4 v 25 h 5 v -17 c 0,-15.8 -0.1,-17 -1.8,-17 a 3.93,3.93 0 0 0 -3,2.4 z"
         id="path1" />
      <path
         d="m 182.82,248.44 c -4,2.8 -5.6,7.3 -5.6,15.9 0,12 3.7,17.5 11.7,17.5 8.9,0 14.3,-13.2 10.7,-26.2 -2.1,-7.4 -11,-11.3 -16.8,-7.2 z m 8.8,3.4 c 5.3,2.8 5.2,22.2 -0.1,25.1 a 7.39,7.39 0 0 1 -4.4,0.5 c -5.6,-1.4 -7.2,-17.9 -2.3,-24.1 2.1,-2.7 3.9,-3.1 6.8,-1.5 z"
         id="path2" />
      <path
         d="m 234.62,513.34 v 241.5 l 766.2,0.2 766.2,0.3 -19.5,10.5 -19.6,10.5 2.1,4.3 c 1.6,3.3 2.5,4.2 3.9,3.8 2.7,-0.7 60.7,-32 60.7,-32.7 0,-0.7 -60.4,-38.9 -61.4,-38.9 -0.8,0 -6,8 -5.5,8.4 0.2,0.2 8.7,5.6 18.8,12 l 18.5,11.6 h -148.6 l 4.5,-5 c 19.2,-22 46.4,-94 73,-193.8 l 2.5,-9.3 -2.6,-1 a 8,8 0 0 0 -3.7,-0.6 c -0.6,0.3 -2.1,4.7 -3.4,9.8 -5,19.7 -17.3,61.7 -24.7,84.1 -21.8,66.5 -39,102.5 -53.8,112.7 -4.2,2.9 -5,3.1 -13.9,3.1 -9.4,0 -9.5,0 -15.3,-3.9 -11.9,-8 -23.8,-22.5 -36.1,-44 -19.3,-33.5 -59,-126 -99.8,-232.5 -19.9,-52 -52.1,-111.5 -69.9,-129.2 -20,-19.9 -35.7,-22.5 -51.2,-8.2 -6.2,5.7 -20.3,24.6 -25.3,33.9 -13.5,25.2 -37.1,97.2 -63,192.6 -16.3,59.9 -33.5,111.3 -48.1,143.4 -10.5,23.1 -19.4,36.4 -28.1,42 -14.2,9.1 -29.5,2.2 -49,-22.1 -11.2,-13.9 -22.9,-35.9 -45.1,-85 -18.7,-41.1 -37.6,-87.3 -72,-176 -13.3,-34.3 -36.2,-79.5 -54.2,-107 -9.7,-14.7 -22.1,-26.6 -33.1,-31.6 -11.4,-5.3 -21.7,-3.1 -32.1,6.8 -5.8,5.5 -16.8,19.6 -22.4,28.7 -13.7,22.2 -37.1,92.7 -65.6,197.6 -25.8,94.7 -52.1,162.2 -70.4,180.5 -4.8,4.8 -13,9 -17.7,9 -9.5,0 -21.9,-7.9 -32.7,-21 -15.6,-18.7 -24,-34 -49.4,-90.1 -19.1,-42.1 -36.4,-84.4 -72.4,-176.9 -13.3,-34.2 -36,-78.9 -54.3,-107 -7.9,-12.2 -21.6,-25.5 -31.2,-30.2 -5.6,-2.7 -7.9,-3.3 -13.3,-3.3 -7.8,0.1 -12.8,2.4 -20.3,9.3 -7.5,6.9 -21.9,26.9 -27,37.5 -12.3,25.3 -28.3,73.1 -51.2,152.7 -21.6,75.1 -51.6,164.4 -64.6,191.9 a 109.93,109.93 0 0 1 -8.7,15.5 c -2.1,2.8 -5.1,6.9 -6.7,9.1 -5.6,7.7 -12.1,12.5 -16.7,12.5 h -2.8 v -468 h -10 z m 218.7,-191.9 c 8.2,4 20,15.8 28.1,28.2 19.3,29.7 39.5,69.5 54,106.7 38.6,98.9 52.2,132 71.4,174.5 12.1,26.8 24.7,53 29.6,61.8 13.5,23.9 30.9,43.9 43.6,50.2 l 4.1,2 h -427.8 l 4.5,-3.5 c 6,-4.5 17.5,-20 22.8,-30.5 5.2,-10.3 14,-32.3 21.8,-54.5 13.7,-39.1 37.7,-114.1 45.8,-143.5 18,-65 39.3,-128.6 50.9,-152.1 6.1,-12.5 20.7,-31.9 28.1,-37.5 7.6,-5.9 13.7,-6.3 23.1,-1.8 z m 451.7,4.4 c 8.5,5.1 19.1,16.1 26.3,27.2 18.5,28.5 39.8,70.5 53.1,104.8 38.3,98.3 53,134.3 72.8,177.8 21.1,46.4 32.1,67.7 42,81.1 6,8.1 18.5,21.4 23.8,25.3 l 3.9,2.8 h -419.5 l 5.9,-4.4 c 8.1,-6 15,-15.5 23.7,-32.8 16.9,-33.5 34.7,-85.2 55.1,-159.8 25.6,-93.3 44.8,-152.6 59,-182.5 4.3,-8.9 16.3,-26.3 23.4,-33.9 a 53.06,53.06 0 0 1 8.1,-6.8 c 4,-2.6 5.2,-2.9 10.6,-2.6 4.78,0.3 7.3,1.1 11.78,3.8 z m 446.8,1.9 c 6.5,3.1 17.9,13.1 23.5,20.6 17.2,23 44.9,76.8 60.8,118 48.2,125.5 90.9,222.6 109.8,250 a 211.71,211.71 0 0 0 18.1,21.3 l 7,7.2 h -408.2 l 5.8,-5.9 c 12.3,-12.6 25.6,-39.7 41.9,-85.3 10.3,-28.8 19.4,-59 36.6,-121.3 20.7,-74.7 40.7,-135.8 53,-162 4.8,-10.3 17,-27.8 24.9,-36 9.4,-9.6 16.9,-11.4 26.8,-6.6 z"
         id="path3" />
      <path
         d="m 166.62,278.84 c 0,1.5 0.7,2 2.5,2 1.8,0 2.5,-0.5 2.5,-2 0,-1.5 -0.7,-2 -2.5,-2 -1.8,0 -2.5,0.5 -2.5,2 z"
         id="path4" />
      <path
         d="m 152.52,390.34 c -5.7,1.5 -16.7,7.4 -17.4,9.3 -1.1,2.9 0.8,3 6.8,0.1 a 50.4,50.4 0 0 1 41.8,-0.5 c 7.2,3.1 7.9,3.2 7.9,1.5 0,-2.5 -7.7,-7.3 -15.9,-9.9 a 42.58,42.58 0 0 0 -23.2,-0.5 z"
         id="path5" />
      <path
         d="m 165.12,406.74 c -3.4,1.5 -5.6,4.7 -6.2,9 -0.5,3.6 -0.2,4.4 3,7.6 2.7,2.7 4.3,3.5 7.2,3.5 2.9,0 4.5,-0.8 7.2,-3.5 3.2,-3.2 3.5,-4 3,-7.7 a 12.2,12.2 0 0 0 -2.9,-6.5 c -2.6,-2.6 -8.1,-3.8 -11.3,-2.4 z m 7.7,5.8 c 2,1.8 2.4,6.3 0.6,8.1 -0.7,0.7 -2.6,1.2 -4.3,1.2 -3.7,0 -5.5,-1.6 -5.5,-4.9 0,-5.2 5.38,-7.8 9.2,-4.4 z"
         id="path6" />
      <path
         d="m 137.62,419.54 c 0,1.3 6,5 20.3,12.8 11.1,6 20.7,11.1 21.4,11.3 a 1,1 0 0 0 1.3,-1.1 c 0,-0.9 -8.5,-6.2 -21.1,-13.1 -11.6,-6.4 -21.2,-11.6 -21.5,-11.6 -0.3,0 -0.4,0.8 -0.4,1.7 z"
         id="path7" />
      <path
         d="m 142.12,438.14 c -2.7,2.7 -3.5,4.3 -3.5,7.2 0,2.9 0.8,4.5 3.5,7.2 3.2,3.2 4,3.5 7.7,3 5.9,-0.8 9.3,-4.5 9.3,-10.2 0,-5.7 -3.4,-9.4 -9.3,-10.2 -3.7,-0.5 -4.5,-0.2 -7.7,3 z m 10.7,3.4 c 2.2,2 2.3,5.1 0.1,7.5 -1.8,2 -6.3,2.4 -8.1,0.6 -1.6,-1.6 -1.6,-7 0,-8.6 1.6,-1.6 5.8,-1.5 8,0.5 z"
         id="path8" />
      <path
         d="m 135.12,460.84 c -1.2,2 1.1,4.1 8.9,8 10.7,5.5 20.6,6.4 31.2,3.1 8.6,-2.6 16.4,-7.4 16.4,-10 0,-1.9 -0.4,-1.8 -6.2,0.8 q -22.35,10 -43.5,0.1 c -3.5,-1.6 -6.5,-2.5 -6.8,-2 z"
         id="path9" />
      <path
         d="m 154.72,498.64 c -5.2,2.6 -7.6,6.5 -7.6,12.2 0,5.2 1.9,8.7 6.8,12.4 4.1,3 15.1,3.4 19.5,0.7 8.8,-5.6 9.6,-17.7 1.6,-24 -3.7,-2.9 -6.4,-2.8 -6.4,0.4 0,1.7 0.9,2.9 2.9,3.9 3.1,1.6 4.1,3.4 4.1,7.1 0,3.7 -1,5.5 -4.1,7 -5.7,3 -5.9,2.6 -5.9,-10 v -11.5 h -3.7 a 18.21,18.21 0 0 0 -7.2,1.8 z m 5.9,12.7 c 0,7.1 -0.3,8.5 -1.6,8.5 -2.2,0 -7.4,-5.5 -7.4,-7.9 0,-3.1 2,-6.8 4.4,-7.9 4.3,-2.1 4.6,-1.7 4.6,7.3 z"
         id="path10" />
      <path
         d="m 147.62,534.74 v 2.9 l 12.1,0.4 c 11.3,0.3 12.2,0.5 14,2.7 2.6,3.2 2.5,7.6 -0.3,9.5 -1.7,1.2 -5,1.6 -14.1,1.6 h -11.8 l 0.3,2.7 0.3,2.8 h 26.7 l 2.9,-3.3 a 10.5,10.5 0 0 0 0.8,-13.6 c -1.7,-2.1 -1.8,-2.6 -0.5,-2.6 1.1,0 1.6,-0.9 1.6,-3 v -3 h -32 z"
         id="path11" />
      <path
         d="m 135.82,568.54 0.3,2.8 h 43 l 0.3,-2.8 0.3,-2.7 h -44.2 z"
         id="path12" />
      <path
         d="m 175.62,577.34 c 0,1.2 -1.9,1.5 -11.5,1.5 -10.9,0 -11.7,0.1 -14,2.4 -4.8,4.8 -4.2,16.4 1.2,20.6 5.9,4.7 8.9,0.2 3.3,-5 -3.2,-2.9 -3.6,-5.2 -2,-9.4 0.7,-2 1.7,-2.6 3.9,-2.6 2.8,0 3,0.3 3.6,4.7 1.1,8.4 1.6,10.2 3.6,12.7 3.9,5 12.5,4.1 15.4,-1.5 2,-3.8 1.9,-7.8 -0.5,-12.4 -2,-3.8 -2,-3.8 0,-5.2 a 5.58,5.58 0 0 0 2,-4.4 c 0,-2.4 -0.4,-2.9 -2.5,-2.9 -1.6,0 -2.5,0.6 -2.5,1.5 z m -3,9.5 a 10.23,10.23 0 0 1 2.6,9.4 c -1.2,5 -8.1,4 -9.1,-1.2 -0.3,-1.5 -0.9,-4.4 -1.4,-6.5 l -0.8,-3.7 h 3.3 a 7.93,7.93 0 0 1 5.4,2 z"
         id="path13" />
      <path
         d="m 147.62,611.64 c 0,2.6 0.6,2.9 11.5,6.6 6.4,2.1 11.8,4.2 12,4.6 0.2,0.4 -5,2.4 -11.6,4.5 l -11.9,3.9 v 6.5 l 9.8,-3.5 c 5.3,-2 12.4,-4.6 15.7,-5.7 5.4,-2 6,-2.5 6.3,-5.3 l 0.3,-3.1 -15.1,-5.7 c -8.3,-3.1 -15.5,-5.6 -16,-5.6 -0.5,0 -1,1.16 -1,2.8 z"
         id="path14" />
      <path
         d="m 168.82,770.44 c -4,2.8 -5.6,7.3 -5.6,15.9 0,12 3.7,17.5 11.7,17.5 8.9,0 14.3,-13.2 10.7,-26.2 -2.1,-7.4 -11,-11.3 -16.8,-7.2 z m 8.8,3.4 c 5.3,2.8 5.2,22.2 -0.1,25.1 a 7.39,7.39 0 0 1 -4.4,0.5 c -5.6,-1.4 -7.2,-17.9 -2.3,-24.1 2.1,-2.7 3.9,-3.1 6.8,-1.5 z"
         id="path16" />
      <path
         d="m 208.82,770.44 c -4,2.8 -5.6,7.3 -5.6,15.9 0,12 3.7,17.5 11.7,17.5 8.9,0 14.3,-13.2 10.7,-26.2 -2.1,-7.4 -11,-11.3 -16.8,-7.2 z m 8.8,3.4 c 5.3,2.8 5.2,22.2 -0.1,25.1 a 7.39,7.39 0 0 1 -4.4,0.5 c -5.6,-1.4 -7.2,-17.9 -2.3,-24.1 2.1,-2.7 3.9,-3.1 6.8,-1.5 z"
         id="path17" />
      <path
         d="m 192.62,800.84 c 0,1.5 0.7,2 2.5,2 1.8,0 2.5,-0.5 2.5,-2 0,-1.5 -0.7,-2 -2.5,-2 -1.8,0 -2.5,0.5 -2.5,2 z"
         id="path18" />
      <path
         d="m 434.62,814.34 c 0,2.1 0.5,2.5 3,2.5 2.5,0 3,-0.4 3,-2.5 0,-2.1 -0.5,-2.5 -3,-2.5 -2.5,0 -3,0.4 -3,2.5 z"
         id="path19" />
      <path
         d="m 501.62,818.84 v 7.1 l -2.2,-2.1 a 8.88,8.88 0 0 0 -6.2,-2 c -8.7,0 -14.1,6.7 -14,17.5 0.1,6.7 1.9,11.2 6,14.4 3.6,2.8 10.2,2.8 13.8,0 2.1,-1.7 2.6,-1.8 2.6,-0.5 0,1.1 0.9,1.6 3,1.6 h 3 v -43 h -6 z m -2.9,10.9 c 2.5,2.6 2.9,3.7 2.9,8.8 0,8.6 -3.9,13.1 -10.1,11.8 -3.8,-0.9 -5.9,-4.9 -5.9,-11.4 0,-5.9 1.4,-9.5 4.4,-10.9 3.5,-1.8 5.6,-1.3 8.7,1.7 z"
         id="path20" />
      <path
         d="m 539.62,814.74 a 90.14,90.14 0 0 0 -4.8,8.8 c -2.4,5.1 -2.7,7 -2.7,15.8 0,8.8 0.4,10.7 2.7,15.8 3.7,8 6.6,11.7 8.9,11.7 1.8,0 1.8,-0.2 -0.6,-5 a 59.13,59.13 0 0 1 -4,-10.7 c -2.9,-11 -1.4,-23.6 4,-34.3 2.4,-4.8 2.4,-5 0.6,-5 -1.1,0 -2.9,1.3 -4.1,2.9 z"
         id="path21" />
      <path
         d="m 579.82,812.54 c 9.2,19.1 10.1,31 3.4,46.5 -3.3,7.6 -3.3,7.9 -1.3,7.6 1.3,-0.2 3.3,-2.4 5.5,-6 6.3,-10.6 7.7,-21.7 4.3,-32.7 -2.5,-8 -7.7,-16.1 -10.3,-16.1 -1.1,0 -1.8,0.3 -1.6,0.7 z"
         id="path22" />
      <path
         d="m 1636.62,814.34 c 0,2.1 0.5,2.5 3,2.5 2.5,0 3,-0.4 3,-2.5 0,-2.1 -0.5,-2.5 -3,-2.5 -2.5,0 -3,0.4 -3,2.5 z"
         id="path23" />
      <path
         d="m 1757.62,814.74 a 90.14,90.14 0 0 0 -4.8,8.8 c -2.4,5.1 -2.7,7 -2.7,15.8 0,8.8 0.4,10.7 2.7,15.8 3.7,8 6.6,11.7 8.9,11.7 1.8,0 1.8,-0.2 -0.6,-5 a 59.13,59.13 0 0 1 -4,-10.7 c -2.9,-11 -1.4,-23.6 4,-34.3 2.4,-4.8 2.4,-5 0.6,-5 -1.1,0 -2.9,1.3 -4.1,2.9 z"
         id="path24" />
      <path
         d="m 1797.82,812.54 c 9.2,19.1 10.1,31 3.4,46.5 -3.3,7.6 -3.3,7.9 -1.3,7.6 1.3,-0.2 3.3,-2.4 5.5,-6 6.3,-10.6 7.7,-21.7 4.3,-32.7 -2.5,-8 -7.7,-16.1 -10.3,-16.1 -1.1,0 -1.8,0.3 -1.6,0.7 z"
         id="path25" />
      <path
         d="m 1620.62,818.84 c 0,3.6 -0.2,4 -2.5,4 -2,0 -2.5,0.5 -2.5,2.5 0,2 0.5,2.5 2.5,2.5 h 2.5 v 12.3 c 0,14.5 0.6,16 6.5,15.5 3.5,-0.3 4,-0.6 4.3,-3 0.3,-2.1 -0.1,-2.7 -2,-3 -2.2,-0.3 -2.3,-0.7 -2.6,-11.1 l -0.3,-10.7 h 2.6 c 2,0 2.5,-0.5 2.5,-2.5 0,-2 -0.5,-2.5 -2.5,-2.5 -2.2,0 -2.5,-0.4 -2.5,-4 0,-3.8 -0.2,-4 -3,-4 -2.8,0 -3,0.16 -3,4 z"
         id="path26" />
      <path
         d="m 355.22,823.94 c -2.1,1.7 -2.6,1.8 -2.6,0.5 0,-1.1 -0.9,-1.6 -3,-1.6 h -3 v 45 h 6 v -16.3 l 2.3,2.1 c 2.8,2.6 8.4,2.9 12.8,0.6 6,-3 9,-16.5 5.5,-24.8 -3,-7.2 -12.22,-10.1 -18,-5.5 z m 8.2,3.5 c 3.2,0.9 5.2,5.4 5.2,11.9 0,4.9 -0.4,6 -2.9,8.6 -3.2,3.2 -4.7,3.5 -8.5,1.8 -3.4,-1.6 -4.9,-5.9 -4.4,-12.6 0.4,-4.6 1,-6.1 3.2,-8 2.9,-2.4 3.7,-2.6 7.4,-1.7 z"
         id="path27" />
      <path
         d="m 386.82,823.84 c -4.1,2.5 -7.1,8.9 -7.2,15.3 0,10.1 5.6,16.7 14.2,16.7 6.2,0 9.9,-2.1 12.8,-7.2 l 2.1,-3.8 h -3.1 c -1.8,0 -3.3,0.6 -3.7,1.5 -0.7,1.9 -5.5,4.5 -8.2,4.5 -2.7,0 -6.9,-3.9 -7.7,-7.3 l -0.6,-2.7 h 23.2 v -3.5 c 0,-5.4 -2.8,-11.2 -6.5,-13.5 -4.2,-2.6 -11,-2.6 -15.3,0 z m 11.1,4.1 c 2.3,1 4.7,4.6 4.7,6.9 0,0.6 -3.8,1 -8.6,1 -8.4,0 -8.5,0 -7.8,-2.3 1.7,-5.6 6.6,-7.9 11.7,-5.6 z"
         id="path28" />
      <path
         d="m 422.22,823.94 c -2.1,1.7 -2.6,1.8 -2.6,0.5 0,-1 -0.9,-1.6 -2.5,-1.6 h -2.5 v 32 h 6 v -11.9 c 0,-11.7 0.1,-12 2.6,-14 a 9.65,9.65 0 0 1 5,-2.1 c 1.9,0 2.4,-0.5 2.4,-2.5 0,-2 -0.5,-2.5 -2.9,-2.5 a 10.49,10.49 0 0 0 -5.5,2.1 z"
         id="path29" />
      <path
         d="m 454.62,822.54 c -5.6,2.2 -9.3,8.9 -9.3,16.8 0,11.3 5.3,16.9 15.6,16.2 4.6,-0.3 6.3,-0.9 8.7,-3.2 q 5.55,-5.4 4.8,-16.8 c -0.4,-5.1 -0.9,-6.3 -4,-9.4 -3.1,-3.1 -4.4,-3.7 -9,-3.9 -2.9,-0.24 -6,-0.1 -6.8,0.3 z m 9.3,5.4 c 6.6,3 6.2,18.4 -0.4,22 -3.4,1.8 -8.7,0.2 -10.4,-3.1 -1.7,-3.3 -2,-11.9 -0.4,-15.4 1.9,-4.1 6.7,-5.6 11.2,-3.5 z"
         id="path30" />
      <path
         d="m 556,822.84 c -3.2,1.3 -5.4,5 -5.4,9.1 0,4.7 2.9,7.2 10.3,8.9 7.1,1.7 8.7,2.7 8.7,5.4 0,2.4 -3.4,4.6 -7,4.6 -3,0 -6.9,-2.1 -7.5,-4.2 -0.8,-2.3 -5.5,-2.5 -5.5,-0.2 0,2.6 3.1,7.1 5.7,8.3 1.3,0.6 4.9,1.1 7.9,1.1 5,0 5.9,-0.3 9,-3.4 4,-4 4.7,-9.3 1.5,-12.5 -1.8,-1.8 -10.7,-5.1 -13.6,-5.1 -0.7,0 -2,-0.9 -3.1,-2.1 -1.9,-2.1 -1.8,-2.1 0.5,-4 a 8.75,8.75 0 0 1 4.1,-1.9 c 3.2,0 7,1.9 7,3.5 q 0,1.5 3,1.5 c 1.7,0 3,-0.4 3,-1 0,-2.4 -2.6,-6.3 -5.1,-7.6 -3.08,-1.5 -10.18,-1.8 -13.5,-0.4 z"
         id="path31" />
      <path
         d="m 1657.42,823.94 c -2.4,1.7 -2.8,1.8 -2.8,0.5 0,-1 -0.9,-1.6 -2.5,-1.6 h -2.5 v 32 h 6 v -11.9 c 0,-11.7 0.1,-12 2.6,-14 3.2,-2.5 5.7,-2.7 7.8,-0.5 1.3,1.2 1.6,4 1.6,14 v 12.4 h 6 v -11.5 c 0,-11 0.1,-11.7 2.5,-14 2.6,-2.7 4.6,-3.1 7.6,-1.5 1.7,1 1.9,2.2 1.9,14 v 13 h 6 v -13 c 0,-17.5 -1.3,-20 -9.9,-20 a 10.75,10.75 0 0 0 -6.5,2.1 l -2.7,2.1 -2.3,-2.1 c -2.9,-2.8 -9.1,-2.8 -12.8,0 z"
         id="path32" />
      <path
         d="m 1704.82,823.84 c -4.1,2.5 -7.1,8.9 -7.2,15.3 0,10.1 5.6,16.7 14.2,16.7 6.2,0 9.9,-2.1 12.8,-7.2 l 2.1,-3.8 h -3.1 c -1.8,0 -3.3,0.6 -3.7,1.5 -0.7,1.9 -5.5,4.5 -8.2,4.5 -2.7,0 -6.9,-3.9 -7.7,-7.3 l -0.6,-2.7 h 23.2 v -3.5 c 0,-5.4 -2.8,-11.2 -6.5,-13.5 -4.2,-2.6 -11,-2.6 -15.3,0 z m 11.1,4.1 c 2.3,1 4.7,4.6 4.7,6.9 0,0.6 -3.8,1 -8.6,1 -8.4,0 -8.5,0 -7.8,-2.3 1.7,-5.6 6.6,-7.9 11.7,-5.6 z"
         id="path33" />
      <path
         d="m 1774,822.84 c -3.2,1.3 -5.4,5 -5.4,9.1 0,4.7 2.9,7.2 10.3,8.9 7.1,1.7 8.7,2.7 8.7,5.4 0,2.4 -3.4,4.6 -7,4.6 -3,0 -6.9,-2.1 -7.5,-4.2 -0.8,-2.3 -5.5,-2.5 -5.5,-0.2 0,2.6 3.1,7.1 5.7,8.3 1.3,0.6 4.9,1.1 7.9,1.1 5,0 5.9,-0.3 9,-3.4 4,-4 4.7,-9.3 1.5,-12.5 -1.8,-1.8 -10.7,-5.1 -13.6,-5.1 -0.7,0 -2,-0.9 -3.1,-2.1 -1.9,-2.1 -1.8,-2.1 0.5,-4 a 8.75,8.75 0 0 1 4.1,-1.9 c 3.2,0 7,1.9 7,3.5 q 0,1.5 3,1.5 c 1.7,0 3,-0.4 3,-1 0,-2.4 -2.6,-6.3 -5.1,-7.6 -3.08,-1.5 -10.18,-1.8 -13.5,-0.4 z"
         id="path34" />
      <path
         d="m 434.62,838.84 v 16 h 6 v -32 h -6 z"
         id="path35" />
      <path
         d="m 1636.62,838.84 v 16 h 6 v -32 h -6 z"
         id="path36" />
    </g>
    <rect
       class="cls-1"
       x="243.99001"
       y="144"
       width="1459.97"
       height="600.83002"
       id="rect36"
       style="display:inline" />
    <path
       style="fill:none;stroke:#1c5b94;stroke-width:6.15142;stroke-dasharray:none;stroke-opacity:1"
       d="m 243.48324,742.15614 c 0.4857,-0.48246 0.97137,0.1368 1.45705,-0.35381 0.48569,-0.48245 0.97136,0.0564 1.45626,-0.42616 0.48567,-0.4905 0.97134,-0.0322 1.45704,-0.51464 0.48567,-0.49049 0.97134,-0.1125 1.45622,-0.59504 0.48567,-0.4905 0.97137,-0.19297 1.45704,-0.68349 0.48567,-0.48246 0.97137,-0.27339 1.45624,-0.75585 0.48567,-0.48246 0.97137,-0.35381 1.45704,-0.84431 0.48569,-0.48248 0.97055,-0.43422 1.45622,-0.91669 0.4857,-0.48245 0.97137,-0.51463 1.45704,-1.00513 0.4857,-0.48246 0.97057,-0.59505 1.45626,-1.07751 0.48567,-0.48246 0.97135,-0.67545 1.45704,-1.15791 0.48567,-0.4905 0.97055,-0.75587 1.45623,-1.24637 0.48567,-0.48246 0.97137,-0.82823 1.45704,-1.31873 0.48489,-0.48247 0.97056,-0.90864 1.45623,-1.39111 0.4857,-0.4905 0.97137,-0.99709 1.45704,-1.47954 0.48488,-0.48247 0.97056,-1.06948 1.45625,-1.55193 0.48567,-0.48247 0.97135,-1.14987 1.45704,-1.63233 0.48487,-0.48246 0.97054,-1.22225 1.45624,-1.7047 0.48567,-0.48247 0.97137,-1.29464 1.45704,-1.77709 0.48486,-0.48247 0.97055,-1.37502 1.45622,-1.85749 0.48568,-0.48245 0.97137,-1.44737 1.45624,-1.92986 0.4857,-0.48246 0.97137,-1.5278 1.45704,-2.00222 0.4857,-0.48246 0.97137,-1.60015 1.45625,-2.08263 0.48567,-0.48247 0.97134,-1.6645 1.45704,-2.14697 0.48567,-0.48245 0.97134,-1.74491 1.45624,-2.21933 0.48567,-0.48246 0.97136,-1.81727 1.45704,-2.29169 0.48567,-0.48248 0.97055,-1.88161 1.45622,-2.36409 0.4857,-0.47442 0.97137,-1.95397 1.45704,-2.42839 0.4857,-0.47444 0.97056,-2.01831 1.45626,-2.50078 0.48567,-0.47443 0.97134,-2.08262 1.45703,-2.5651 0.48568,-0.47442 0.97054,-2.155 1.45624,-2.62942 0.48567,-0.47442 0.97134,-2.21933 1.45704,-2.69375 0.48567,-0.48246 0.97056,-2.29171 1.45623,-2.76613 0.48567,-0.47442 0.97137,-2.34799 1.45704,-2.82241 0.48488,-0.47443 0.97055,-2.41232 1.45623,-2.88676 0.48569,-0.47441 0.97137,-2.47663 1.45704,-2.95106 0.48489,-0.47442 0.97056,-2.53293 1.45626,-3.00735 0.48567,-0.47443 0.97134,-2.59726 1.45703,-3.07168 0.48486,-0.4664 0.97056,-2.65357 1.45623,-3.11994 0.48567,-0.47443 0.97137,-2.71788 1.45624,-3.18426 0.48568,-0.47444 0.97137,-2.77417 1.45704,-3.24055 0.48568,-0.4664 0.97136,-2.82242 1.45622,-3.29684 0.4857,-0.46638 0.97137,-2.8787 1.45704,-3.34507 0.4857,-0.4664 0.97137,-2.935 1.45626,-3.40138 0.48568,-0.4664 0.97135,-2.98324 1.45703,-3.44962 0.48569,-0.46637 0.97136,-3.03951 1.45624,-3.49787 0.48567,-0.46638 0.97137,-3.08775 1.45704,-3.55415 0.48567,-0.46638 0.97056,-3.136 1.45623,-3.59435 0.48569,-0.46638 0.97136,-3.18427 1.45705,-3.6426 0.48568,-0.46638 0.97055,-3.23251 1.45624,-3.69084 0.48568,-0.45835 0.97135,-3.27272 1.45704,-3.73107 0.48568,-0.45834 0.97056,-3.31291 1.45623,-3.77124 0.48568,-0.4664 0.97137,-3.36118 1.45704,-3.81952 0.48487,-0.45833 0.97056,-3.39332 1.45623,-3.85166 0.4857,-0.45835 0.97137,-3.44158 1.45705,-3.89186 0.48488,-0.45836 0.97055,-3.47376 1.45623,-3.93209 0.48569,-0.45835 0.97136,-3.51396 1.45703,-3.96425 0.48489,-0.45833 0.97056,-3.54611 1.45626,-3.99642 0.48567,-0.45833 0.97134,-3.57827 1.45704,-4.03661 0.48487,-0.45029 0.97055,-3.61044 1.45623,-4.06074 0.48567,-0.45028 0.97136,-3.6426 1.45623,-4.09289 0.4857,-0.4503 0.97137,-3.66672 1.45704,-4.11703 0.4857,-0.4503 0.97137,-3.69888 1.45625,-4.14918 0.48567,-0.45031 0.97134,-3.72303 1.45704,-4.17332 0.48567,-0.44226 0.97134,-3.74714 1.45624,-4.19743 0.48567,-0.44227 0.97136,-3.77126 1.45704,-4.21352 0.48567,-0.44226 0.97055,-3.79538 1.45622,-4.23765 0.48567,-0.44225 0.97137,-3.81949 1.45704,-4.26176 0.4857,-0.44225 0.97057,-3.83558 1.45624,-4.27783 0.48569,-0.44228 0.97137,-3.85168 1.45704,-4.29394 0.48569,-0.43422 0.97055,-3.86774 1.45625,-4.30197 0.48567,-0.44224 0.97134,-3.88383 1.45704,-4.31806 0.48567,-0.44225 0.97056,-3.89991 1.45623,-4.33412 0.48568,-0.43423 0.97137,-3.90795 1.45704,-4.34218 0.48488,-0.43421 0.97056,-3.916 1.45623,-4.35021 0.48569,-0.43421 0.97137,-3.92404 1.45704,-4.35825 0.48489,-0.43422 0.97056,-3.93209 1.45626,-4.36631 0.48567,-0.42616 0.97134,-3.93208 1.45704,-4.36629 0.48485,-0.42619 0.97053,-3.94012 1.45622,-4.36629 0.48568,-0.42618 0.97137,-3.94012 1.45624,-4.36631 0.48567,-0.42617 0.97137,-3.94817 1.45704,-4.37433 0.48567,-0.41815 0.97137,-3.94013 1.45622,-4.3663 0.4857,-0.41814 0.97137,-3.94011 1.45704,-4.35826 0.4857,-0.42616 0.97137,-3.94013 1.45626,-4.35825 0.48568,-0.41814 0.97135,-3.93208 1.45705,-4.35023 0.48567,-0.41812 0.97134,-3.92404 1.45622,-4.34216 0.48567,-0.41814 0.97137,-3.91599 1.45704,-4.33414 0.48567,-0.41009 0.97056,-3.90796 1.45624,-4.31804 0.48569,-0.41011 0.97136,-3.89992 1.45704,-4.31002 0.48569,-0.41011 0.97055,-3.88382 1.45622,-4.29394 0.4857,-0.40203 0.97137,-3.86774 1.45707,-4.2698 0.48567,-0.41008 0.97054,-3.85166 1.45623,-4.26176 0.48567,-0.40205 0.97135,-3.83558 1.45704,-4.23764 0.48486,-0.40204 0.97055,-3.81145 1.45623,-4.22155 0.48567,-0.40207 0.97136,-3.78736 1.45704,-4.18939 0.48489,-0.40207 0.97056,-3.77931 1.45623,-4.17333 0.4857,-0.40205 0.97137,-3.74713 1.45704,-4.14919 0.48488,-0.394 0.97056,-3.72301 1.45625,-4.11701 0.48567,-0.40205 0.97135,-3.69891 1.45704,-4.09291 0.48487,-0.39401 0.97057,-3.67477 1.45624,-4.06072 0.48567,-0.39403 0.97137,-3.64261 1.45622,-4.03663 0.4857,-0.38596 0.97137,-3.61042 1.45704,-3.9964 0.4857,-0.38598 0.97137,-3.57827 1.45624,-3.96425 0.4857,-0.38598 0.97137,-3.54611 1.45704,-3.93208 0.4857,-0.38598 0.97137,-3.5059 1.45625,-3.89188 0.48567,-0.37793 0.97134,-3.47374 1.45704,-3.85166 0.48567,-0.38598 0.97056,-3.43353 1.45623,-3.81951 0.48568,-0.37793 0.97137,-3.39333 1.45704,-3.77126 0.48568,-0.37793 0.97056,-3.35312 1.45623,-3.73105 0.4857,-0.37793 0.97137,-3.31291 1.45704,-3.69084 0.4857,-0.3699 0.97056,-3.26469 1.45625,-3.64262 0.48568,-0.36989 0.97135,-3.22446 1.45704,-3.59435 0.48567,-0.36988 0.97056,-3.18426 1.45623,-3.54611 0.48568,-0.36989 0.97137,-3.13601 1.45705,-3.50589 0.48486,-0.36186 0.97056,-3.08778 1.45623,-3.44962 0.48569,-0.36186 0.97136,-3.03952 1.45704,-3.40138 0.48488,-0.36185 0.97055,-2.98323 1.45623,-3.34507 0.48569,-0.36186 0.97136,-2.935 1.45704,-3.29684 0.48489,-0.35381 0.97056,-2.87871 1.45624,-3.23251 0.48568,-0.36185 0.97136,-2.83045 1.45624,-3.18426 0.48567,-0.3538 0.97137,-2.77417 1.45704,-3.12798 0.48567,-0.35381 0.97137,-2.71788 1.45624,-3.07168 0.48568,-0.34577 0.97135,-2.66159 1.45704,-3.00735 0.48568,-0.34577 0.97135,-2.59728 1.45625,-2.94305 0.48567,-0.34576 0.97134,-2.54901 1.45704,-2.88674 0.48567,-0.34576 0.97134,-2.48467 1.45622,-2.83044 0.48567,-0.33772 0.97137,-2.42036 1.45704,-2.75809 0.48567,-0.33773 0.97057,-2.36407 1.45624,-2.69376 0.48567,-0.33772 0.97137,-2.29975 1.45704,-2.63747 0.48569,-0.32968 0.97055,-2.22738 1.45623,-2.5651 0.48569,-0.32969 0.97136,-2.16304 1.45703,-2.49272 0.4857,-0.32969 0.97057,-2.10677 1.45626,-2.42841 0.48568,-0.32969 0.97135,-2.04243 1.45704,-2.36407 0.48487,-0.32968 0.97056,-1.97005 1.45623,-2.29169 0.48567,-0.32167 0.97137,-1.8977 1.45704,-2.21934 0.48489,-0.32163 0.97056,-1.83338 1.45623,-2.14698 0.4857,-0.32163 0.97137,-1.76097 1.45704,-2.08264 0.48488,-0.3136 0.97056,-1.68862 1.45625,-2.00222 0.48568,-0.3136 0.97135,-1.61624 1.45704,-1.92984 0.48487,-0.31361 0.97054,-1.54387 1.45624,-1.8575 0.48567,-0.30555 0.97137,-1.47151 1.45622,-1.77706 0.48568,-0.30556 0.97137,-1.39916 1.45704,-1.70471 0.48568,-0.30556 0.97137,-1.32677 1.45624,-1.63232 0.4857,-0.29755 0.97137,-1.25442 1.45704,-1.55193 0.4857,-0.29754 0.97137,-1.174 1.45625,-1.47154 0.48567,-0.29751 0.97134,-1.1016 1.45704,-1.39911 0.48567,-0.29755 0.97056,-1.02927 1.45624,-1.31876 0.48567,-0.28948 0.97136,-0.94883 1.45704,-1.23831 0.48567,-0.28949 0.97055,-0.87648 1.45622,-1.16598 0.4857,-0.28142 0.97137,-0.79605 1.45704,-1.07748 0.4857,-0.28145 0.97056,-0.71566 1.45624,-1.00514 0.48569,-0.28144 0.97137,-0.63525 1.45706,-0.91668 0.48567,-0.28143 0.97053,-0.56288 1.45623,-0.83627 0.48567,-0.28143 0.97134,-0.4905 1.45704,-0.76391 0.48486,-0.27339 0.97056,-0.40204 1.45623,-0.67544 0.48567,-0.27339 0.97137,-0.32165 1.45704,-0.59504 0.48488,-0.27341 0.97056,-0.24927 1.45623,-0.51463 0.48569,-0.26537 0.97137,-0.16892 1.45704,-0.43422 0.48489,-0.26534 0.97056,-0.0885 1.45626,-0.34577 0.48567,-0.26534 0.97134,-0.008 1.45622,-0.26534 0.48567,-0.26536 0.97137,0.0642 1.45704,-0.19298 0.48567,-0.2573 0.97137,0.15277 1.45624,-0.0964 0.48569,-0.25732 0.97137,0.22514 1.45704,-0.024 0.4857,-0.24929 0.97137,0.31359 1.45622,0.0642 0.4857,-0.24929 0.97137,0.38595 1.45704,0.14467 0.4857,-0.24929 0.97137,0.46637 1.45626,0.22513 0.48568,-0.24122 0.97135,0.5468 1.45704,0.30558 0.48568,-0.24124 0.97056,0.63523 1.45623,0.394 0.48567,-0.24122 0.97137,0.70761 1.45704,0.47441 0.48567,-0.23318 0.97056,0.78805 1.45624,0.55485 0.48569,-0.23318 0.97136,0.86843 1.45704,0.63523 0.48569,-0.22514 0.97055,0.94886 1.45624,0.72371 0.48568,-0.23319 0.97135,1.02121 1.45704,0.79608 0.48487,-0.22516 0.97057,1.1016 1.45624,0.87645 0.48567,-0.21709 0.97136,1.18203 1.45704,0.96494 0.48486,-0.21711 0.97055,1.26243 1.45623,1.04535 0.48569,-0.22516 0.97136,1.33481 1.45704,1.1177 0.48489,-0.21713 0.97056,1.41523 1.45623,1.19812 0.4857,-0.20914 0.97137,1.48758 1.45704,1.2785 0.48488,-0.20912 0.97055,1.56803 1.45625,1.35895 0.48567,-0.20105 0.97135,1.64039 1.45624,1.43936 0.48567,-0.20105 0.97135,1.71275 1.45704,1.51171 0.48567,-0.20104 0.97135,1.79318 1.45622,1.59215 0.4857,-0.19297 0.97137,1.86552 1.45704,1.67253 0.4857,-0.20105 0.97137,1.92986 1.45625,1.73687 0.48568,-0.19296 0.97136,2.01027 1.45704,1.82532 0.48567,-0.19296 0.97054,2.0746 1.45624,1.88966 0.48567,-0.18489 0.97137,2.15499 1.45704,1.97005 0.48567,-0.18489 0.97056,2.21933 1.45623,2.04243 0.48568,-0.18488 0.97136,2.28366 1.45703,2.10677 0.4857,-0.17702 0.97057,2.36406 1.45624,2.18716 0.48569,-0.17701 0.97137,2.42841 1.45704,2.25954 0.4857,-0.177 0.97056,2.49272 1.45625,2.32387 0.48567,-0.16893 0.97135,2.56509 1.45704,2.39624 0.48487,-0.16894 0.97056,2.62943 1.45623,2.46056 0.48568,-0.16083 0.97137,2.69375 1.45704,2.53294 0.48488,-0.16084 0.97056,2.75809 1.45624,2.59727 0.48568,-0.15276 0.97136,2.8224 1.45703,2.66963 0.48489,-0.16085 0.97056,2.87869 1.45626,2.72592 0.48567,-0.15276 0.97134,2.94303 1.45622,2.79024 0.48568,-0.14468 0.97136,3.00736 1.45704,2.86263 0.48568,-0.15276 0.97137,3.05561 1.45624,2.91086 0.48567,-0.13679 0.97137,3.11992 1.45704,2.98323 0.48567,-0.14467 0.97137,3.17621 1.45624,3.03952 0.48568,-0.13659 0.97135,3.23251 1.45703,3.09581 0.48569,-0.1368 0.97136,3.28881 1.45626,3.15209 0.48567,-0.12872 0.97134,3.34509 1.45704,3.21645 0.48567,-0.12872 0.97055,3.39332 1.45622,3.26465 0.48567,-0.12872 0.97137,3.44158 1.45704,3.32097 0.48567,-0.12063 0.97056,3.49785 1.45624,3.37724 0.48569,-0.12063 0.97137,3.53806 1.45704,3.4255 0.48569,-0.12064 0.97055,3.58632 1.45622,3.47373 0.4857,-0.11251 0.97137,3.63456 1.45707,3.52199 0.48486,-0.10446 0.97054,3.6828 1.45623,3.57828 0.48567,-0.11251 0.97135,3.723 1.45704,3.61846 0.48486,-0.10446 0.97055,3.77126 1.45623,3.66674 0.48567,-0.10446 0.97137,3.81147 1.45704,3.70692 0.48489,-0.0965 0.97056,3.85168 1.45623,3.75518 0.4857,-0.0966 0.97137,3.89188 1.45704,3.79539 0.48488,-0.0967 0.97056,3.92404 1.45625,3.83557 0.48567,-0.0885 0.97135,3.96425 1.45624,3.87582 0.48567,-0.0885 0.97137,3.99639 1.45704,3.90795 0.48567,-0.0804 0.97137,4.02856 1.45622,3.94815 0.4857,-0.0804 0.97137,4.06073 1.45704,3.98033 0.4857,-0.0804 0.97137,4.09291 1.45624,4.02053 0.4857,-0.0804 0.97137,4.11703 1.45704,4.04466 0.4857,-0.0723 0.97055,4.14918 1.45625,4.07682 0.48567,-0.0723 0.97134,4.1733 1.45704,4.10897 0.48567,-0.0723 0.97056,4.19744 1.45624,4.13311 0.48567,-0.0642 0.97136,4.21351 1.45704,4.15724 0.48567,-0.0564 0.97055,4.23764 1.45622,4.18134 0.4857,-0.0564 0.97137,4.26177 1.45704,4.21351 0.4857,-0.0564 0.97056,4.27786 1.45626,4.22158 0.48567,-0.0483 0.97134,4.30195 1.45704,4.25373 0.48486,-0.0483 0.97055,4.30999 1.45623,4.2698 0.48567,-0.0483 0.97136,4.32608 1.45704,4.27783 0.48486,-0.0402 0.97056,4.34219 1.45623,4.30197 0.4857,-0.0402 0.97137,4.35023 1.45704,4.31805 0.48488,-0.0402 0.97055,4.35826 1.45623,4.32609 0.48569,-0.0402 0.97136,4.36631 1.45626,4.33414 0.48567,-0.0322 0.97134,4.37434 1.45704,4.34217 0.48567,-0.024 0.97134,4.3824 1.45622,4.35826 0.48567,-0.024 0.97137,4.38238 1.45704,4.35825 0.48567,-0.017 0.97137,4.38238 1.45624,4.36631 0.48569,-0.017 0.97137,4.38238 1.45704,4.3663 0.48568,-0.017 0.97137,4.38237 1.45625,4.37432 0.48567,-0.017 0.97134,4.37435 1.45704,4.36632 0.48567,-0.008 0.97054,4.37433 1.45623,4.36628 0.48568,0 0.97136,4.3663 1.45704,4.3663 0.48568,0 0.97056,4.35826 1.45623,4.35826 0.48567,0 0.97137,4.35021 1.45704,4.35825 0.48567,0 0.97056,4.33415 1.45623,4.34219 0.4857,0.008 0.97137,4.32608 1.45705,4.34217 0.48488,0.008 0.97055,4.31001 1.45624,4.32609 0.48568,0.008 0.97135,4.29392 1.45704,4.31 0.48487,0.017 0.97056,4.27785 1.45624,4.30197 0.48567,0.017 0.97136,4.26176 1.45703,4.2859 0.48489,0.017 0.97056,4.23764 1.45623,4.26176 0.4857,0.024 0.97137,4.22155 1.45705,4.25372 0.48489,0.024 0.97056,4.19743 1.45624,4.2296 0.48568,0.0322 0.97135,4.1733 1.45624,4.20546 0.48567,0.0322 0.97134,4.1492 1.45704,4.18138 0.48567,0.0402 0.97137,4.11703 1.45624,4.15722 0.48567,0.0483 0.97135,4.09289 1.45703,4.14115 0.48568,0.0402 0.97136,4.05269 1.45623,4.10094 0.4857,0.0483 0.97137,4.02857 1.45704,4.07681 0.4857,0.0483 0.97057,3.99641 1.45625,4.0527 0.48567,0.0483 0.97136,3.95621 1.45704,4.01251 0.48567,0.0562 0.97056,3.92401 1.45624,3.9803 0.48567,0.0564 0.97136,3.88383 1.45704,3.94818 0.48567,0.0642 0.97055,3.84361 1.45622,3.90795 0.4857,0.0642 0.97137,3.81147 1.45704,3.87578 0.4857,0.0642 0.97057,3.76323 1.45624,3.83561 0.48569,0.0723 0.97137,3.72301 1.45706,3.79536 0.48486,0.0723 0.97054,3.67478 1.45623,3.75517 0.48567,0.0723 0.97134,3.62653 1.45704,3.70696 0.48486,0.0804 0.97056,3.58629 1.45623,3.66671 0.48568,0.0805 0.97137,3.53002 1.45704,3.61849 0.48488,0.0885 0.97056,3.48176 1.45623,3.57023 0.48569,0.0964 0.97137,3.43354 1.45626,3.53002 0.48567,0.0885 0.97134,3.37724 1.45704,3.47375 0.48567,0.0964 0.97134,3.32898 1.45622,3.4255 0.48567,0.0964 0.97137,3.27269 1.45704,3.37724 0.48568,0.0964 0.97137,3.21641 1.45624,3.32095 0.4857,0.10446 0.97137,3.16015 1.45704,3.26467 0.4857,0.10446 0.97137,3.10385 1.45622,3.20839 0.4857,0.1125 0.97137,3.04755 1.45704,3.16014 0.4857,0.1125 0.97057,2.97518 1.45626,3.09579 0.48568,0.11251 0.97135,2.91891 1.45705,3.03955 0.48567,0.1125 0.97055,2.85457 1.45622,2.97518 0.48567,0.12062 0.97137,2.79025 1.45704,2.91891 0.48567,0.12062 0.97056,2.72592 1.45624,2.85457 0.48569,0.12872 0.97136,2.66158 1.45704,2.79026 0.48488,0.13679 0.97055,2.59725 1.45624,2.73396 0.48568,0.12871 0.97135,2.52489 1.45705,2.66159 0.48486,0.13679 0.97056,2.46057 1.45623,2.59726 0.48567,0.13681 0.97137,2.3882 1.45704,2.53293 0.48486,0.14467 0.97055,2.31582 1.45623,2.46056 0.48569,0.14466 0.97136,2.2515 1.45704,2.39623 0.48489,0.15277 0.97056,2.17915 1.45623,2.33194 0.4857,0.14466 0.97137,2.09869 1.45625,2.25147 0.48567,0.15275 0.97135,2.02636 1.45704,2.18719 0.48567,0.15275 0.97135,1.95396 1.45624,2.11478 0.48567,0.15277 0.97137,1.87358 1.45704,2.03439 0.48567,0.16892 0.97137,1.80121 1.45622,1.97008 0.4857,0.16892 0.97137,1.72078 1.45704,1.88965 0.4857,0.16892 0.97057,1.64841 1.45632,1.82532 0.48551,0.16893 0.97122,1.56801 1.45694,1.73686 0.48572,0.17702 0.97057,1.49565 1.45629,1.67255 0.48572,0.177 0.97143,1.40718 1.45694,1.59212 0.48572,0.177 0.97057,1.32678 1.45629,1.51173 0.48572,0.17702 0.97143,1.24635 1.45715,1.4313 0.48549,0.18488 0.97057,1.17399 1.45608,1.35894 0.48571,0.19296 0.97143,1.09359 1.45715,1.27853 0.48485,0.19298 0.97057,1.01318 1.45629,1.20617 0.4855,0.19296 0.97122,0.92471 1.45694,1.1177 0.48485,0.19296 0.97057,0.84431 1.45629,1.03729 0.48571,0.20106 0.97122,0.76389 1.45694,0.96492 0.48485,0.20106 0.97057,0.67546 1.45629,0.87648 0.48571,0.20914 0.97143,0.59506 1.4563,0.80411 0.4857,0.20913 0.97121,0.50658 1.45693,0.71566 0.48571,0.20913 0.97143,0.42619 1.4563,0.63523 0.4857,0.21712 0.97142,0.33773 1.45693,0.55484 0.48571,0.21711 0.97143,0.25733 1.4563,0.47442 0.4857,0.21712 0.97142,0.16893 1.45713,0.39402 0.48572,0.21712 0.97123,0.0804 1.45608,0.30555 0.48572,0.22517 0.97144,0 1.45715,0.22517 0.48572,0.22515 0.97059,-0.0805 1.4563,0.14466 0.4855,0.2332 0.97122,-0.16893 1.45693,0.0642 0.48572,0.23319 0.97059,-0.25732 1.45629,-0.024 0.48572,0.23318 0.97144,-0.33772 1.45694,-0.10446 0.48572,0.24125 0.97059,-0.42616 1.45629,-0.18487 0.48572,0.24121 0.97144,-0.50659 1.45715,-0.26537 0.48487,0.24123 0.97059,-0.59503 1.45608,-0.35381 0.48572,0.24928 0.97143,-0.67546 1.45715,-0.42617 0.48487,0.24926 0.97058,-0.76391 1.4563,-0.51463 0.4855,0.24927 0.97121,-0.85235 1.45693,-0.59504 0.48487,0.24927 0.97058,-0.93276 1.45629,-0.6835 0.48572,0.25733 0.97122,-1.01317 1.45694,-0.75585 0.48487,0.2573 0.97057,-1.10163 1.45629,-0.84431 0.48572,0.26535 0.97143,-1.18203 1.4563,-0.91668 0.48572,0.26534 0.97121,-1.2705 1.45693,-1.00514 0.48572,0.27339 0.97143,-1.34285 1.4563,-1.07751 0.48572,0.26537 0.97143,-1.43129 1.45693,-1.15791 0.48572,0.26535 0.97143,-1.51975 1.4563,-1.24636 0.48572,0.2734 0.97143,-1.59212 1.45715,-1.31873 0.4857,0.28143 0.97057,-1.67255 1.45608,-1.39111 0.48571,0.27341 0.97143,-1.76098 1.45714,-1.47956 0.48571,0.28144 0.97058,-1.83335 1.4563,-1.55192 0.48571,0.28142 0.97121,-1.91377 1.45693,-1.63233 0.48571,0.28948 0.97058,-1.9942 1.4563,-1.70471 0.48571,0.28948 0.97143,-2.0746 1.45693,-1.77707 0.48571,0.28946 0.97058,-2.155 1.4563,-1.85749 0.48571,0.28947 0.97143,-2.22738 1.45715,-1.92987 0.48485,0.29754 0.97057,-2.30777 1.45608,-2.00222 0.48571,0.29752 0.97143,-2.38015 1.45713,-2.08264 0.48487,0.30558 0.97059,-2.45251 1.4563,-2.14695 0.48551,0.30555 0.97122,-2.52489 1.45693,-2.21933 0.48487,0.30555 0.97059,-2.59728 1.4563,-2.2917 0.48572,0.30556 0.97122,-2.66964 1.45629,-2.36409 0.48551,0.31362 0.97123,-2.74198 1.45694,-2.42838 0.48572,0.3136 0.97144,-2.81439 1.45629,-2.50079 0.48572,0.31363 0.97123,-2.87869 1.45694,-2.56509 0.48572,0.32165 0.97144,-2.95107 1.45629,-2.62942 0.48572,0.32163 0.97144,-3.0154 1.45715,-2.69376 0.48551,0.32164 0.97123,-3.08777 1.45608,-2.76613 0.48572,0.32968 0.97144,-3.1521 1.45715,-2.8224 0.48572,0.32967 0.97059,-3.21645 1.45608,-2.88677 0.48572,0.3297 0.97143,-3.28074 1.45715,-2.95105 0.48572,0.32968 0.97057,-3.33705 1.45629,-3.00735 0.48572,0.32968 0.97122,-3.40139 1.45694,-3.07169 0.48572,0.33773 0.97057,-3.45766 1.45629,-3.11994 0.48572,0.33772 0.97143,-3.52198 1.45694,-3.18425 0.48486,0.33772 0.97057,-3.58632 1.45629,-3.24055 0.48572,0.33772 0.97143,-3.63458 1.45715,-3.29684 0.48487,0.34576 0.97057,-3.69085 1.45608,-3.34509 0.48572,0.34578 0.97143,-3.74713 1.45715,-3.40136 0.48487,0.35381 0.97057,-3.80343 1.45629,-3.44962 0.48551,0.3538 0.97122,-3.85166 1.45694,-3.49787 0.48487,0.34576 0.97057,-3.90797 1.45629,-3.55416 0.48571,0.35382 0.97122,-3.95618 1.4563,-3.59436 0.48549,0.35381 0.97121,-4.00444 1.45693,-3.64258 0.48571,0.35381 0.97143,-4.0527 1.4563,-3.69084 0.48571,0.36183 0.97121,-4.09291 1.45693,-3.73108 0.48571,0.36186 0.97143,-4.14112 1.4563,-3.77124 0.4857,0.36184 0.97142,-4.1894 1.45714,-3.81951 0.4855,0.3699 0.97058,-4.22155 1.45609,-3.85167 0.4857,0.36988 0.97142,-4.26176 1.45714,-3.89187 0.48571,0.36988 0.97058,-4.30197 1.4563,-3.93207 0.48549,0.36986 0.97121,-4.34219 1.45692,-3.96425 0.48572,0.37793 0.97059,-4.37434 1.4563,-3.99642 0.48572,0.36989 0.97122,-4.41455 1.45693,-4.03661 0.48572,0.37793 0.97059,-4.43867 1.4563,-4.06074 0.48572,0.37793 0.97143,-4.47084 1.45714,-4.09291 0.48487,0.38598 0.97038,-4.50299 1.45608,-4.11702 0.48572,0.38597 0.97144,-4.53515 1.45715,-4.14918 0.48487,0.38596 0.97059,-4.55929 1.45608,-4.17331 0.48572,0.38597 0.97144,-4.58341 1.45715,-4.19743 0.48487,0.394 0.97059,-4.60753 1.4563,-4.21352 0.48572,0.38595 0.97122,-4.63165 1.45608,-4.23765 0.48572,0.39401 0.97144,-4.65577 1.45715,-4.26178 0.48572,0.39403 0.97142,-4.67183 1.45629,-4.27782 0.48572,0.40204 0.97122,-4.68795 1.45694,-4.29393 0.48572,0.40204 0.97142,-4.70404 1.45629,-4.30197 0.48572,0.40205 0.97143,-4.7201 1.45693,-4.31807 0.48572,0.40207 0.97143,-4.73618 1.4563,-4.33411 0.48572,0.40205 0.97143,-4.75228 1.45715,-4.34219 0.4855,0.40206 0.97057,-4.76032 1.45608,-4.3502 0.48572,0.4101 0.97143,-4.76835 1.45715,-4.35825 0.48572,0.41007 0.97057,-4.7764 1.45629,-4.36631 0.48551,0.41814 0.97122,-4.7764 1.45694,-4.3663 0.4857,0.41813 0.97057,-4.77639 1.45629,-4.36629 0.48571,0.41813 0.97122,-4.78443 1.45694,-4.36631 0.48486,0.4101 0.97057,-4.79247 1.45629,-4.37433 0.48571,0.41813 0.97143,-4.78443 1.45715,-4.36629 0.48485,0.41812 0.97036,-4.78444 1.45608,-4.35827 0.48571,0.41814 0.97143,-4.78443 1.45715,-4.35824 0.48485,0.41812 0.97057,-4.7764 1.45629,-4.35023 0.4855,0.41814 0.97122,-4.76835 1.45694,-4.34216 0.48485,0.42616 0.97057,-4.76032 1.45629,-4.33415 0.48571,0.42618 0.97122,-4.74422 1.45608,-4.31804 0.48571,0.42616 0.97143,-4.7362 1.45715,-4.31002 0.48571,0.43421 0.97143,-4.7201 1.4563,-4.29393 0.4857,0.43423 0.97121,-4.70402 1.45692,-4.26981 0.48572,0.42619 0.97144,-4.69597 1.45629,-4.26176 0.48572,0.43424 0.97144,-4.67185 1.45694,-4.23764 0.48572,0.43424 0.97059,-4.65576 1.45629,-4.22155 0.48572,0.44224 0.97144,-4.63166 1.45715,-4.18938 0.48551,0.4342 0.97059,-4.61557 1.45608,-4.17333 0.48572,0.43423 0.97144,-4.59145 1.45715,-4.1492 0.48572,0.44227 0.97059,-4.55928 1.45629,-4.117 0.48551,0.44224 0.97123,-4.53518 1.45694,-4.09291 0.48572,0.44226 0.97059,-4.51104 1.45629,-4.06073 0.48572,0.44225 0.97123,-4.47888 1.45694,-4.03663 0.48487,0.45031 0.97059,-4.43867 1.45629,-3.99639 0.48572,0.44224 0.97143,-4.41455 1.45715,-3.96425 0.48487,0.45028 0.97036,-4.37434 1.45608,-3.93209 0.48572,0.45031 0.97143,-4.34216 1.45715,-3.89187 0.48487,0.45029 0.97058,-4.30197 1.4563,-3.85166 0.4855,0.45028 0.97121,-4.26981 1.45608,-3.81952 0.48572,0.45834 0.97143,-4.22155 1.45714,-3.77127 0.48572,0.45033 0.97122,-4.18133 1.45609,-3.73105 0.48572,0.45835 0.97142,-4.14112 1.45714,-3.69084 0.48572,0.45834 0.97143,-4.09289 1.4563,-3.6426 0.48572,0.45835 0.97121,-4.0527 1.45693,-3.59435 0.48571,0.45834 0.97122,-4.00444 1.4563,-3.54611 0.48549,0.45835 0.97121,-3.96425 1.45693,-3.5059 0.48571,0.45833 0.97058,-3.90796 1.4563,-3.44963 0.48485,0.45835 0.96738,-3.85969 1.45778,-3.40136 0.48253,0.46638 0.97292,-3.81147 1.45545,-3.34507 0.48252,0.45833 0.97292,-3.75519 1.45544,-3.29686 0.49039,0.46638 0.97292,-3.69887 1.45544,-3.2325 0.4904,0.45834 0.97292,-3.65063 1.45545,-3.18426 0.49039,0.45834 0.97292,-3.59435 1.46352,-3.12797 0.48231,0.46637 0.96484,-3.53807 1.45544,-3.0717 0.48232,0.46638 0.97293,-3.47371 1.45524,-3.00735 0.48252,0.46638 0.97293,-3.41745 1.45545,-2.94303 0.48251,0.46638 0.97292,-3.36116 1.45544,-2.88674 0.4904,0.46638 0.97292,-3.29684 1.45545,-2.83044 0.49039,0.47441 0.97292,-3.23251 1.45544,-2.7581 0.49039,0.46638 0.97292,-3.16816 1.46352,-2.69375 0.48232,0.46638 0.96484,-3.10385 1.45545,-2.63748 0.48231,0.47443 0.97292,-3.03147 1.45523,-2.56509 0.48252,0.47443 0.97313,-2.96714 1.45544,-2.49273 0.48253,0.47442 0.97293,-2.90282 1.45545,-2.42841 0.49061,0.47442 0.97293,-2.83849 1.45544,-2.36407 0.4904,0.47443 0.97293,-2.76613 1.46353,-2.29169 0.48232,0.47442 0.96484,-2.69377 1.45545,-2.21933 0.48231,0.47442 0.96484,-2.62945 1.45544,-2.14698 0.48231,0.47442 0.97292,-2.55706 1.45545,-2.08264 0.48231,0.48248 0.97291,-2.47664 1.45523,-2.00222 0.4906,0.48246 0.97313,-2.40428 1.45544,-1.92984 0.4906,0.48246 0.97313,-2.33192 1.45544,-1.8575 0.49062,0.48248 0.97313,-2.25953 1.46354,-1.77707 0.48252,0.47441 0.96505,-2.18716 1.45544,-1.70471 0.48253,0.47443 0.96484,-2.1148 1.45545,-1.63233 0.48252,0.48247 0.97291,-2.03441 1.45544,-1.55192 0.48252,0.48246 0.97292,-1.95398 1.45544,-1.47153 0.49039,0.48247 0.97292,-1.88161 1.45545,-1.39913 0.49039,0.48247 0.97291,-1.80121 1.45544,-1.31874 0.49039,0.48245 0.97292,-1.7208 1.46353,-1.23831 0.48231,0.48245 0.96483,-1.64843 1.45524,-1.16598 0.48251,0.48249 0.97313,-1.55994 1.45544,-1.07749 0.48252,0.48247 0.97313,-1.48761 1.45544,-1.00513 0.48253,0.49051 0.97313,-1.39914 1.45545,-0.91669 0.4906,0.48247 0.97313,-1.32676 1.45544,-0.83626 0.4906,0.48245 0.97292,-1.24638 1.45544,-0.76391 0.49061,0.48247 0.97292,-1.15791 1.46353,-0.67546 0.48252,0.48249 0.96483,-1.07749 1.45544,-0.59502 0.48253,0.48245 0.97293,-0.99709 1.45544,-0.51463 0.48253,0.48246 0.97293,-0.91669 1.45546,-0.43422 0.4823,0.49052 0.97292,-0.83628 1.45544,-0.34578 0.49039,0.48249 0.97292,-0.75585 1.45545,-0.26535 0.49039,0.48247 0.97291,-0.67544 1.46331,-0.19296 0.48252,0.4905 0.96505,-0.58699 1.45544,-0.0964 0.48252,0.48246 0.96505,-0.50659 1.45544,-0.024 0.48253,0.48246 0.97313,-0.42618 1.45545,0.0642 0.48252,0.48247 0.97291,-0.34576 1.45544,0.14468 0.48253,0.48246 0.97293,-0.25732 1.45544,0.22514 0.49062,0.48246 0.97293,-0.1768 1.45545,0.30558 0.49061,0.4905 0.97293,-0.0885 1.46353,0.39399 0.48253,0.48246 0.96484,-0.008 1.45545,0.47442 0.48231,0.48248 0.96483,0.0723 1.45544,0.55484 0.48231,0.48246 0.97292,0.15276 1.45544,0.63524 0.48232,0.49052 0.97292,0.2332 1.45545,0.72369 0.49039,0.48247 0.97291,0.3136 1.45544,0.79609 0.49039,0.48246 0.97292,0.39399 1.45523,0.87646 0.49062,0.4905 0.97313,0.48248 1.46354,0.96494 0.48252,0.48246 0.96503,0.55481 1.45544,1.04533 0.48252,0.48247 0.96505,0.63525 1.45544,1.11771 0.48253,0.48246 0.97292,0.71566 1.45545,1.19811 0.48252,0.48247 0.97291,0.79607 1.45544,1.27852 0.49039,0.49053 0.97292,0.87648 1.45544,1.35895 0.4904,0.49052 0.97292,0.9569 1.45545,1.43935 0.49039,0.48247 0.97291,1.02927 1.46353,1.51172 0.4823,0.48247 0.96483,1.10968 1.45545,1.59214 0.4823,0.48246 0.97291,1.19008 1.45544,1.67254 0.48231,0.48246 0.97292,1.25442 1.45522,1.73687 0.4825,0.48247 0.9731,1.34286 1.4555,1.82532 0.4906,0.47441 0.9731,1.40719 1.4554,1.88966 0.4906,0.48245 0.9731,1.48758 1.4554,1.97004 0.4906,0.48249 0.9732,1.55997 1.4636,2.04243 0.4825,0.47444 0.9648,1.63235 1.4554,2.10677 0.4825,0.48246 0.9729,1.7047 1.4555,2.18717 0.4825,0.48245 0.9729,1.77707 1.4554,2.25954 0.4825,0.47442 0.9729,1.8414 1.4554,2.32386 0.4904,0.47441 0.973,1.91378 1.4555,2.39623 0.4904,0.47443 0.9729,1.98615 1.4633,2.46058 0.4825,0.48247 0.9651,2.05852 1.4554,2.53293 0.4826,0.47442 0.9651,2.12283 1.4555,2.59728 0.4825,0.48245 0.9731,2.18716 1.4554,2.66963 0.4826,0.47441 0.9732,2.25149 1.4555,2.72591 0.4906,0.47441 0.9731,2.31582 1.4554,2.79023 0.4906,0.47445 0.973,2.3882 1.4555,2.86265 0.4906,0.47441 0.9729,2.44446 1.4635,2.91086 0.4825,0.47442 0.9648,2.50881 1.4554,2.98323 0.4826,0.47441 0.9649,2.5651 1.4555,3.03952 0.4825,0.47441 0.9729,2.62138 1.4554,3.09581 0.4823,0.47442 0.9729,2.6857 1.4555,3.15208 0.4904,0.47445 0.9729,2.74201 1.4554,3.21645 0.4904,0.46637 0.9729,2.79828 1.4555,3.26465 0.4904,0.4664 0.9729,2.85459 1.4633,3.32097 0.4825,0.46637 0.965,2.90283 1.4554,3.37725 0.4826,0.46638 0.9729,2.95912 1.4555,3.4255 0.4825,0.46637 0.9729,3.00735 1.4554,3.47371 0.4825,0.4664 0.9729,3.06366 1.4555,3.52201 0.4906,0.46638 0.9729,3.11187 1.4554,3.57828 0.4906,0.46637 0.9729,3.15208 1.4554,3.61846 0.4904,0.4664 0.973,3.20036 1.4636,3.66673 0.4823,0.45834 0.9648,3.24859 1.4554,3.70693 0.4823,0.46637 0.9729,3.29684 1.4555,3.75518 0.4823,0.45833 0.9729,3.33705 1.4554,3.79539 0.4823,0.45833 0.9729,3.37724 1.4555,3.83557 0.4903,0.45835 0.9729,3.41745 1.4552,3.87581 0.4906,0.45833 0.9731,3.4496 1.4635,3.90796 0.4825,0.45833 0.9651,3.4898 1.4555,3.94814 0.4825,0.45835 0.965,3.53004 1.4554,3.98034 0.4825,0.45833 0.9729,3.56218 1.4554,4.02051 0.4826,0.45033 0.973,3.59437 1.4555,4.04468 0.4825,0.45029 0.9729,3.62651 1.4554,4.07682 0.4904,0.45028 0.973,3.65867 1.4555,4.10896 0.4904,0.45032 0.9729,3.68283 1.4635,4.13312 0.4823,0.44226 0.9648,3.70692 1.4554,4.15724 0.4824,0.45028 0.9649,3.73909 1.4553,4.18133 0.4825,0.45032 0.9731,3.76322 1.4554,4.21352 0.4825,0.44227 0.9732,3.77931 1.4555,4.22158 0.4906,0.45028 0.9731,3.81145 1.4554,4.25371 0.4906,0.44226 0.9732,3.82754 1.4555,4.26981 0.4906,0.43421 0.9729,3.84363 1.4635,4.27783 0.4825,0.44228 0.9648,3.86777 1.4554,4.30198 0.4826,0.44227 0.9649,3.87579 1.4555,4.31805 0.4825,0.43421 0.9729,3.88383 1.4554,4.32609 0.4825,0.43422 0.9729,3.89991 1.4555,4.33414 0.4904,0.43421 0.9729,3.91599 1.4554,4.34216 0.4904,0.43423 0.9729,3.92404 1.4554,4.35827 0.4905,0.43421 0.973,3.93209 1.4634,4.35825 0.4825,0.43422 0.965,3.94012 1.4554,4.36631 0.4825,0.42616 0.9731,3.9401 1.4555,4.36629 0.4825,0.42617 0.9731,3.94817 1.4554,4.37433 0.4825,0.42619 0.9729,3.94013 1.4554,4.36631 0.4907,0.42618 0.973,3.94815 1.4555,4.36629 0.4906,0.42617 0.9729,3.94817 1.4554,4.3663 0.4906,0.42618 0.9729,3.94012 1.4636,4.35826 0.4825,0.42617 0.9648,3.94013 1.4554,4.35825 0.4823,0.41814 0.9729,3.92404 1.4555,4.34219 0.4823,0.41812 0.9729,3.92404 1.4554,4.34216 0.4823,0.41011 0.9729,3.90796 1.4554,4.3261 0.4904,0.41008 0.973,3.89991 1.4555,4.31 0.4904,0.4101 0.9729,3.89187 1.4633,4.30197 0.4825,0.4101 0.965,3.87578 1.4554,4.2859 0.4826,0.41007 0.9651,3.85969 1.4555,4.26176 0.4825,0.41007 0.9729,3.84362 1.4554,4.25372 0.4826,0.40204 0.973,3.81949 1.4555,4.22959 0.4825,0.40207 0.9729,3.80343 1.4554,4.20547 0.4906,0.40207 0.9729,3.77931 1.4555,4.18137 0.4904,0.40204 0.9729,3.76323 1.4635,4.15721 0.4823,0.40207 0.9648,3.7391 1.4554,4.14117 0.4823,0.39401 0.9649,3.70691 1.4555,4.10094 0.4823,0.39402 0.9729,3.68279 1.4554,4.07681 0.4823,0.39403 0.9729,3.65868 1.4553,4.0527 0.4906,0.38598 0.9731,3.61848 1.4554,4.01249 0.4906,0.38597 0.9731,3.59434 1.4554,3.98032 0.4907,0.38598 0.9732,3.5622 1.4636,3.94816 0.4825,0.38598 0.965,3.53003 1.4554,3.90797 0.4825,0.38597 0.9729,3.4898 1.4555,3.87578 0.4825,0.38598 0.9729,3.45766 1.4554,3.8356 0.4825,0.37792 0.9729,3.41746 1.4554,3.79537 0.4904,0.37793 0.973,3.37726 1.4555,3.75517 0.4904,0.3699 0.9729,3.32902 1.4554,3.70696 0.4904,0.3779 0.973,3.28877 1.4636,3.66671 0.4823,0.36989 0.9648,3.24859 1.4552,3.61848 0.4825,0.3699 0.9731,3.20838 1.4554,3.57024 0.4826,0.36989 0.9732,3.16013 1.4555,3.53002 0.4825,0.36988 0.9731,3.11189 1.4554,3.47375 0.4906,0.36986 0.9732,3.06364 1.4555,3.42549 0.4906,0.36182 0.9729,3.01539 1.4635,3.37724 0.4826,0.36185 0.9648,2.9591 1.4554,3.32096 0.4826,0.35379 0.9649,2.91086 1.4555,3.26467 0.4825,0.3538 0.9729,2.85457 1.4555,3.20837 0.4824,0.35381 0.9729,2.80635 1.4553,3.16016 0.4824,0.34576 0.973,2.74198 1.4555,3.09579 0.4904,0.34577 0.973,2.68573 1.4554,3.03954 0.4905,0.34575 0.9729,2.62941 1.4634,2.97518 0.4825,0.34576 0.965,2.57314 1.4554,2.91891 0.4826,0.34576 0.9651,2.51685 1.4555,2.85457 0.4826,0.34577 0.9732,2.45254 1.4554,2.79026 0.4825,0.34577 0.9729,2.39623 1.4555,2.73397 0.4906,0.33772 0.9729,2.32385 1.4554,2.66158 0.4907,0.33773 0.973,2.26759 1.4554,2.59727 0.4906,0.33772 0.973,2.20325 1.4636,2.53293 0.4825,0.32969 0.9648,2.13892 1.4554,2.46055 0.4824,0.32971 0.9648,2.0746 1.4554,2.39624 0.4823,0.32968 0.9729,2.00224 1.4555,2.33192 0.4823,0.32165 0.9729,1.92984 1.4555,2.25149 0.4904,0.32165 0.9729,1.86552 1.4554,2.18719 0.4903,0.32164 0.9729,1.79314 1.4552,2.11478 0.4906,0.3136 0.9732,1.72079 1.4636,2.03439 0.4825,0.3136 0.965,1.65645 1.4555,1.97007 0.4824,0.3136 0.9729,1.58408 1.4553,1.88966 0.4826,0.3136 0.973,1.51171 1.4555,1.82531 0.4825,0.30555 0.9729,1.43129 1.4554,1.73687 0.4906,0.30556 0.9729,1.36699 1.4555,1.67254 0.4903,0.29751 0.9729,1.28656 1.4555,1.59211 0.4903,0.29755 0.9729,1.21421 1.4635,1.51175 0.4822,0.29751 0.9648,1.14182 1.4554,1.43129 0.4823,0.29751 0.9729,1.06947 1.4555,1.35895 0.4823,0.29751 0.9729,0.98904 1.4552,1.27853 0.4825,0.29752 0.9731,0.91668 1.4554,1.20617 0.4906,0.28946 0.9732,0.82822 1.4555,1.11769 0.4906,0.28947 0.9732,0.75587 1.4635,1.0373 0.4825,0.28948 0.965,0.68349 1.4554,0.96492 0.4826,0.28146 0.9649,0.60309 1.4555,0.87648 0.4825,0.28143 0.9729,0.52268 1.4555,0.8041 0.4824,0.27341 0.9728,0.44228 1.4553,0.71567 0.4826,0.2734 0.973,0.36988 1.4555,0.63523 0.4904,0.27341 0.973,0.2895 1.4554,0.55484 0.4905,0.27341 0.9729,0.20914 1.4635,0.47441 0.4824,0.26537 0.9649,0.12873 1.4553,0.39402 0.4826,0.25733 0.9651,0.0483 1.4555,0.30556 0.4824,0.26537 0.973,-0.0322 1.4554,0.22515 0.4825,0.25731 0.9731,-0.1125 1.4555,0.14468 0.4906,0.25732 0.9731,-0.19297 1.4554,0.0642 0.4907,0.24926 0.9729,-0.27341 1.4554,-0.024 0.4906,0.24927 0.9729,-0.34577 1.4636,-0.10446 0.4825,0.24929 0.9648,-0.42617 1.4554,-0.18489 0.4825,0.24927 0.9648,-0.50657 1.4554,-0.26536 0.4826,0.24124 0.9729,-0.58698 1.4555,-0.3538 0.4823,0.24123 0.9729,-0.66741 1.4555,-0.42617 0.4904,0.23318 0.9728,-0.74783 1.4554,-0.51463 0.4903,0.23318 0.9729,-0.82823 1.4555,-0.59505 0.4903,0.22516 0.9729,-0.90863 1.4633,-0.68349 0.4825,0.2332 0.965,-0.981 1.4553,-0.75585 0.4826,0.22513 0.973,-1.06143 1.4555,-0.84431 0.4826,0.22513 0.973,-1.14184 1.4555,-0.91669 0.4825,0.22516 0.9729,-1.22225 1.4554,-1.00513 0.4906,0.22516 0.9729,-1.29461 1.4555,-1.07751 0.4906,0.21711 0.9729,-1.37502 1.4635,-1.15791 0.4826,0.20914 0.9648,-1.45542 1.4554,-1.24637 0.4823,0.21712 0.9649,-1.51976 1.4555,-1.31872 0.4823,0.20912 0.9729,-1.60017 1.4555,-1.39111 0.4823,0.20104 0.9729,-1.68059 1.4553,-1.47956 0.4824,0.20106 0.973,-1.75295 1.4555,-1.55192 0.4904,0.20105 0.973,-1.82532 1.4553,-1.63233 0.4906,0.20105 0.973,-1.8977 1.4635,-1.70471 0.4825,0.19297 0.965,-1.97008 1.4554,-1.77709 0.4826,0.18489 0.9651,-2.05046 1.4555,-1.85747 0.4825,0.18487 0.9729,-2.11481 1.4554,-1.92987 0.4825,0.18489 0.9729,-2.18716 1.4554,-2.00222 0.4904,0.1768 0.973,-2.25954 1.4555,-2.08264 0.4904,0.18489 0.973,-2.32386 1.4554,-2.14695 0.4905,0.177 0.9729,-2.39624 1.4635,-2.21933 0.4824,0.16892 0.9649,-2.46057 1.4555,-2.2917 0.4824,0.16893 0.9648,-2.53295 1.4553,-2.36409 0.4824,0.16893 0.973,-2.59725 1.4554,-2.42838 0.4825,0.16892 0.9731,-2.66161 1.4555,-2.50079 0.4906,0.16893 0.9731,-2.72592 1.4553,-2.56511 0.4906,0.16085 0.9732,-2.78218 1.4555,-2.6294 0.4906,0.16083 0.9732,-2.85458 1.4636,-2.69376 0.4825,0.15276 0.9648,-2.91892 1.4554,-2.76613 0.4825,0.15276 0.973,-2.96716 1.4554,-2.82241 0.4826,0.14468 0.9729,-3.03149 1.4555,-2.88676 0.4826,0.14467 0.9729,-3.08775 1.4554,-2.95105 0.4905,0.14466 0.9729,-3.14408 1.4555,-3.00735 0.4903,0.13679 0.9729,-3.20037 1.4555,-3.07169 0.4903,0.1368 0.9729,-3.25664 1.4633,-3.11994 0.4824,0.12871 0.965,-3.31293 1.4553,-3.18426 0.4826,0.12872 0.9732,-3.36922 1.4555,-3.24054 0.4826,0.12871 0.9732,-3.41747 1.4555,-3.29686 0.4825,0.12873 0.9729,-3.46569 1.4554,-3.34507 0.4906,0.12063 0.9729,-3.522 1.4555,-3.40136 0.4906,0.12062 0.9729,-3.5622 1.4635,-3.44963 0.4825,0.1125 0.9648,-3.61044 1.4554,-3.49788 0.4825,0.11251 0.9649,-3.6667 1.4555,-3.55414 0.4823,0.11251 0.9729,-3.70693 1.4555,-3.59436 0.4822,0.10446 0.9728,-3.74713 1.4553,-3.64258 0.4824,0.10446 0.973,-3.7954 1.4555,-3.69084 0.4904,0.10446 0.973,-3.82757 1.4554,-3.73108 0.4905,0.0965 0.9729,-3.86775 1.4634,-3.77124 0.4825,0.0885 0.965,-3.90796 1.4554,-3.81952 0.4826,0.0964 0.9651,-3.94013 1.4555,-3.85166 0.4824,0.0885 0.9729,-3.98033 1.4554,-3.89187 0.4825,0.0805 0.9729,-4.0125 1.4554,-3.93209 0.4907,0.0805 0.973,-4.04466 1.4555,-3.96424 0.4906,0.0805 0.9729,-4.07683 1.4554,-3.99643 0.4904,0.0723 0.9729,-4.10896 1.4635,-4.0366 0.4824,0.0723 0.9649,-4.13311 1.4555,-4.06073 0.4824,0.0723 0.9648,-4.15724 1.4554,-4.09291 0.4823,0.0723 0.9729,-4.18134 1.4555,-4.11703 0.4823,0.0642 0.9729,-4.2135 1.4553,-4.14917 0.4906,0.0642 0.973,-4.22962 1.4553,-4.17332 0.4906,0.0563 0.9732,-4.25373 1.4555,-4.19742 0.4906,0.0564 0.9732,-4.26981 1.4636,-4.21352 0.4825,0.0483 0.965,-4.29393 1.4554,-4.23767 0.4825,0.0483 0.9729,-4.30999 1.4554,-4.26176 0.4826,0.0483 0.9729,-4.31804 1.4555,-4.27782 0.4825,0.0483 0.9729,-4.33414 1.4554,-4.29393 0.4905,0.0402 0.9729,-4.34219 1.4555,-4.30198 0.4903,0.0322 0.9729,-4.35825 1.4635,-4.31806 0.4823,0.0322 0.9648,-4.36629 1.4554,-4.33412 0.4823,0.0322 0.9649,-4.37433 1.4552,-4.34218 0.4826,0.024 0.9732,-4.37434 1.4555,-4.35022 0.4826,0.024 0.9732,-4.38237 1.4555,-4.35824 0.4825,0.024 0.9731,-4.38239 1.4554,-4.36631 0.4906,0.024 0.9732,-4.38238 1.4555,-4.36629 0.4906,0.017 0.9729,-4.38237 1.4635,-4.36629 0.4825,0.017 0.9648,-4.3824 1.4554,-4.36631 0.4825,0.008 0.9649,-4.38237 1.4555,-4.37434 0.4825,0.008 0.9729,-4.36628 1.4553,-4.36628 0.4826,0.008 0.973,-4.35828 1.4555,-4.35828 0.4904,0 0.973,-4.35825 1.4555,-4.35825 0.4904,0 0.973,-4.35021 1.4554,-4.35021 0.4905,-0.008 0.9729,-4.33413 1.4633,-4.34218 0.4826,-0.008 0.9651,-4.31805 1.4555,-4.33414 0.4826,-0.008 0.965,-4.30195 1.4555,-4.31804 0.4824,-0.017 0.973,-4.29392 1.4554,-4.31001 0.4825,-0.017 0.9729,-4.26981 1.4554,-4.29393 0.4907,-0.017 0.973,-4.24569 1.4554,-4.26981 0.4906,-0.024 0.9729,-4.23764 1.4555,-4.26176 0.4906,-0.024 0.9729,-4.20547 1.4635,-4.23764 0.4826,-0.0322 0.9649,-4.18938 1.4555,-4.22155 0.4824,-0.0322 0.973,-4.15724 1.4554,-4.1894 0.4823,-0.0402 0.9729,-4.1331 1.4555,-4.17331 0.4823,-0.0402 0.9729,-4.10899 1.4554,-4.1492 0.4905,-0.0402 0.9729,-4.07682 1.4555,-4.117 0.4903,-0.0483 0.9729,-4.04468 1.4552,-4.09291 0.4906,-0.0483 0.9732,-4.01251 1.4636,-4.06073 0.4824,-0.0564 0.965,-3.98034 1.4553,-4.03663 0.4826,-0.0483 0.973,-3.94013 1.4555,-3.99641 0.4826,-0.0564 0.9729,-3.90795 1.4555,-3.96425 0.4824,-0.0642 0.9729,-3.86774 1.4554,-3.93207 0.4906,-0.0642 0.9729,-3.82754 1.4555,-3.89187 0.4903,-0.0642 0.9729,-3.78736 1.4635,-3.85167 0.4823,-0.0723 0.9648,-3.74714 1.4554,-3.81951 0.4823,-0.0723 0.9649,-3.69084 1.4555,-3.77127 0.4823,-0.0723 0.9729,-3.65063 1.4555,-3.73105 0.4822,-0.0804 0.9729,-3.60239 1.4551,-3.69084 0.4826,-0.0804 0.9732,-3.55415 1.4555,-3.64261 0.4906,-0.0804 0.9732,-3.50589 1.4555,-3.59436 0.4906,-0.0885 0.973,-3.45764 1.4635,-3.54611 0.4825,-0.0964 0.965,-3.4094 1.4554,-3.50589 0.4825,-0.0885 0.9649,-3.35311 1.4555,-3.44962 0.4824,-0.0964 0.9729,-3.29684 1.4553,-3.40136 0.4826,-0.0964 0.973,-3.24055 1.4555,-3.34509 0.4904,-0.10446 0.973,-3.1923 1.4555,-3.29684 0.4904,-0.10446 0.973,-3.12797 1.4554,-3.23251 0.4904,-0.1125 0.9729,-3.07973 1.4635,-3.18425 0.4824,-0.1125 0.9649,-3.01542 1.4553,-3.12798 0.4826,-0.11251 0.965,-2.95108 1.4555,-3.07169 0.4824,-0.11251 0.973,-2.88674 1.4554,-3.00735 0.4825,-0.12062 0.9731,-2.82242 1.4554,-2.94303 0.4907,-0.12871 0.9731,-2.76613 1.4554,-2.88674 0.4906,-0.12872 0.9729,-2.7018 1.4555,-2.83045 0.4906,-0.12872 0.9729,-2.62943 1.4635,-2.75809 0.4826,-0.12871 0.9648,-2.5651 1.4555,-2.69375 0.4825,-0.1368 0.9728,-2.50079 1.4554,-2.63748 0.4826,-0.1368 0.9729,-2.42036 1.4555,-2.56511 0.4823,-0.13679 0.9729,-2.34798 1.4554,-2.49271 0.4905,-0.14468 0.9729,-2.28367 1.4555,-2.42841 0.4903,-0.15276 0.9729,-2.21129 1.4555,-2.36407 0.4903,-0.15276 0.9728,-2.13892 1.4633,-2.29169 0.4824,-0.15276 0.965,-2.06656 1.4553,-2.21933 0.4826,-0.15276 0.9732,-1.9942 1.4555,-2.14698 0.4826,-0.16085 0.9729,-1.9218 1.4555,-2.08264 0.4824,-0.16085 0.9728,-1.83336 1.4554,-2.00222 0.4906,-0.16085 0.9729,-1.76098 1.4555,-1.92984 0.4906,-0.16893 0.9729,-1.68865 1.4635,-1.85752 0.4824,-0.16892 0.9648,-1.60819 1.4554,-1.77705 0.4823,-0.1768 0.9649,-1.52781 1.4555,-1.70471 0.4823,-0.1768 0.9729,-1.45544 1.4553,-1.63233 0.4824,-0.17679 0.973,-1.36697 1.4555,-1.55192 0.4904,-0.1768 0.973,-1.28659 1.4555,-1.47153 0.4904,-0.18489 0.973,-1.21421 1.4553,-1.39913 0.4906,-0.18489 0.973,-1.12577 1.4634,-1.31875 0.4826,-0.19297 0.9651,-1.04534 1.4555,-1.2383 0.4825,-0.19298 0.965,-0.96495 1.4555,-1.16598 0.4824,-0.19297 0.9729,-0.87646 1.4553,-1.07749 0.4826,-0.20106 0.973,-0.80412 1.4555,-1.00513 0.4904,-0.19297 0.973,-0.71566 1.4554,-0.91669 0.4905,-0.20106 0.9729,-0.63524 1.4555,-0.83626 0.4904,-0.20914 0.9729,-0.55485 1.4635,-0.76392 0.4824,-0.20913 0.9649,-0.46637 1.4555,-0.67545 0.4824,-0.20914 0.973,-0.37791 1.4554,-0.59502 0.4823,-0.21712 0.9729,-0.29752 1.4553,-0.51463 0.4825,-0.21712 0.9731,-0.20914 1.4554,-0.43424 0.4907,-0.21709 0.9731,-0.12871 1.4554,-0.34576 0.4906,-0.22514 0.9732,-0.0402 1.4555,-0.26535 0.4906,-0.2332 0.9732,0.0402 1.4635,-0.19296 0.4826,-0.22516 0.9648,0.12871 1.4554,-0.0964 0.4826,-0.2332 0.9729,0.20914 1.4555,-0.024 0.4826,-0.2332 0.9729,0.29753 1.4555,0.0642 0.4824,-0.24123 0.9729,0.37792 1.4554,0.14468 0.4903,-0.24125 0.9729,0.46637 1.4555,0.22513 0.4903,-0.24121 0.9729,0.55484 1.4633,0.30558 0.4825,-0.24124 0.965,0.64329 1.4555,0.394 0.4824,-0.24926 0.965,0.72369 1.4553,0.47442 0.4826,-0.24927 0.9732,0.80412 1.4555,0.55483 0.4825,-0.24925 0.9732,0.89257 1.4554,0.63524 0.4825,-0.24926 0.9729,0.98103 1.4555,0.7237 0.4906,-0.2573 0.9729,1.05339 1.4555,0.79608 0.4906,-0.25732 0.9729,1.14183 1.4635,0.87647 0.4824,-0.25731 0.9648,1.23028 1.4554,0.96493 0.4825,-0.26537 0.9649,1.31069 1.4555,1.04534 0.4824,-0.2734 0.9729,1.39109 1.4553,1.1177 0.4824,-0.27339 0.973,1.47151 1.4555,1.19812 0.4904,-0.27339 0.973,1.55998 1.4555,1.27852 0.4904,-0.27339 0.973,1.64039 1.4554,1.35894 0.4904,-0.27338 0.9729,1.72079 1.4633,1.43936 0.4826,-0.28143 0.9651,1.79315 1.4555,1.51172 0.4825,-0.28143 0.965,1.88161 1.4555,1.59213 0.4824,-0.28144 0.9728,1.95398 1.4553,1.67254 0.4826,-0.28946 0.973,2.02635 1.4555,1.73688 0.4906,-0.28949 0.973,2.11479 1.4554,1.82531 0.4906,-0.29751 0.9729,2.18717 1.4555,1.88965 0.4904,-0.29751 0.9729,2.26759 1.4635,1.97005 0.4824,-0.29751 0.9649,2.33997 1.4555,2.04244 0.4822,-0.30556 0.9728,2.41232 1.4554,2.10676 0.4823,-0.29751 0.9729,2.49273 1.4555,2.18716 0.4823,-0.30555 0.9729,2.56511 1.4554,2.25956 0.4905,-0.3136 0.9729,2.6294 1.4552,2.32385 0.4906,-0.31359 0.9732,2.70984 1.4555,2.39624 0.4906,-0.3136 0.9731,2.77418 1.4635,2.46058 0.4825,-0.31363 0.965,2.84653 1.4554,2.53293 0.4826,-0.3136 0.9729,2.91891 1.4555,2.59727 0.4826,-0.31362 0.9729,2.99127 1.4555,2.66962 0.4824,-0.32163 0.9728,3.04757 1.4554,2.72592 0.4903,-0.32163 0.9729,3.11993 1.4555,2.79024 0.4903,-0.32164 0.9729,3.18428 1.4635,2.86264 0.4823,-0.32968 0.9648,3.24859 1.4554,2.91087 0.4823,-0.3297 0.9649,3.3129 1.4552,2.98322 0.4826,-0.32968 0.9732,3.3692 1.4555,3.03951 0.4825,-0.33772 0.9731,3.43355 1.4554,3.09582 0.4906,-0.33772 0.9732,3.48981 1.4555,3.15209 0.4906,-0.33772 0.9731,3.55417 1.4555,3.21644 0.4906,-0.34577 0.9728,3.61043 1.4634,3.26466 0.4825,-0.34576 0.9649,3.66673 1.4555,3.32097 0.4825,-0.34577 0.9649,3.723 1.4555,3.37724 0.4824,-0.3538 0.9729,3.77126 1.4553,3.42549 0.4826,-0.3538 0.973,3.82754 1.4555,3.47373 0.4904,-0.35379 0.973,3.87581 1.4555,3.52201 0.4904,-0.35381 0.9728,3.93207 1.4554,3.57827 0.4904,-0.35381 0.9729,3.98031 1.4633,3.61847 0.4826,-0.35379 0.9651,4.02858 1.4555,3.66672 0.4825,-0.36184 0.9732,4.06879 1.4554,3.70693 0.4825,-0.36185 0.9731,4.11703 1.4554,3.75518 0.4826,-0.36185 0.973,4.16528 1.4555,3.79539 0.4906,-0.36185 0.973,4.20546 1.4554,3.83558 0.4906,-0.36989 0.9729,4.24568 1.4555,3.8758 0.4906,-0.36988 0.9729,4.27783 1.4635,3.90797 0.4826,-0.3699 0.9648,4.32607 1.4554,3.94814 0.4823,-0.36987 0.9729,4.35827 1.4555,3.98034 0.4823,-0.37795 0.9729,4.39845 1.4555,4.02051 0.4823,-0.37791 0.9729,4.42259 1.4554,4.04468 0.4903,-0.37794 0.9729,4.45472 1.4555,4.07681 0.4903,-0.38597 0.9729,4.4869 1.4633,4.10897 0.4825,-0.38596 0.965,4.51909 1.4554,4.13311 0.4825,-0.38597 0.965,4.54322 1.4554,4.15724 0.4826,-0.38597 0.9729,4.57537 1.4555,4.18134 0.4826,-0.38597 0.9729,4.5995 1.4554,4.21352 0.4825,-0.394 0.9729,4.61557 1.4555,4.22157 0.4906,-0.38597 0.9729,4.64772 1.4555,4.25372 0.4903,-0.39402 0.9729,4.66381 1.4635,4.26981 0.4822,-0.40206 0.9648,4.67989 1.4554,4.27783 0.4823,-0.394 0.9649,4.70404 1.4555,4.30197 0.4823,-0.40203 0.9729,4.71208 1.4553,4.31806 0.4824,-0.40205 0.973,4.72814 1.4553,4.32608 0.4906,-0.41008 0.9732,4.7362 1.4555,4.33414 0.4906,-0.40206 0.9731,4.75227 1.4553,4.34217 0.4907,-0.40205 0.9732,4.76835 1.4636,4.35827 0.4825,-0.4101 0.9651,4.76835 1.4555,4.35825 0.4825,-0.41009 0.9649,4.77638 1.4555,4.36631 0.4824,-0.4101 0.9728,4.78441 1.4553,4.36629 0.4826,-0.41011 0.973,4.78443 1.4555,4.37433 0.4904,-0.41812 0.973,4.78444 1.4554,4.36631 0.4905,-0.41815 0.9729,4.78441 1.4555,4.36629 0.4904,-0.41814 0.9729,4.78443 1.4635,4.36628 0.4824,-0.41812 0.9649,4.78444 1.4553,4.35828 0.4824,-0.41815 0.973,4.77639 1.4554,4.35825 0.4825,-0.42617 0.9731,4.76835 1.4554,4.34218 0.4826,-0.41814 0.9732,4.76835 1.4555,4.34216 0.4906,-0.42616 0.9731,4.75228 1.4554,4.32611 0.4906,-0.42619 0.9729,4.73618 1.4555,4.31 0.4906,-0.42617 0.9729,4.72816 1.4635,4.30197 0.4825,-0.43421 0.9648,4.71205 1.4554,4.28588 0.4826,-0.43422 0.9729,4.69597 1.4555,4.26178 0.4826,-0.42619 0.9729,4.68792 1.4555,4.25371 0.4822,-0.43423 0.9728,4.66381 1.4554,4.2296 0.4903,-0.44224 0.9729,4.63971 1.4555,4.20547 0.4903,-0.43421 0.9729,4.62362 1.4633,4.18136 0.4825,-0.43422 0.965,4.5995 1.4554,4.15722 0.4825,-0.43421 0.965,4.57536 1.4554,4.14115 0.4826,-0.44224 0.9732,4.5432 1.4555,4.10095 0.4824,-0.44226 0.9729,4.51908 1.4554,4.07682 0.4825,-0.44225 0.9729,4.49496 1.4555,4.0527 0.4906,-0.4503 0.9729,4.45475 1.4555,4.01249 0.4906,-0.45031 0.9728,4.43063 1.4634,3.98032 0.4825,-0.45029 0.9649,4.39846 1.4555,3.94816 0.4823,-0.45029 0.9649,4.35825 1.4555,3.90796 0.4823,-0.4503 0.9729,4.3261 1.4553,3.87579 0.4824,-0.45029 0.973,4.28589 1.4555,3.83559 0.4904,-0.45031 0.973,4.24569 1.4555,3.79538 0.4904,-0.4503 0.9728,4.20548 1.4551,3.75517 0.4907,-0.45833 0.9732,4.15724 1.4636,3.70695 0.4825,-0.45835 0.9651,4.12505 1.4555,3.66671 0.4825,-0.45833 0.9729,4.07682 1.4553,3.61848 0.4826,-0.45835 0.973,4.02858 1.4555,3.57023 0.4826,-0.45031 0.973,3.98837 1.4555,3.53003 0.4906,-0.45833 0.973,3.93209 1.4554,3.47374 0.4905,-0.45835 0.9729,3.88383 1.4555,3.4255 0.4904,-0.45836 0.9729,3.83558 1.4635,3.37725 0.4824,-0.4664 0.9648,3.77929 1.4554,3.32094 0.4823,-0.46637 0.9729,3.73105 1.4555,3.26468 0.4823,-0.46637 0.9729,3.67476 1.4552,3.20838 0.4826,-0.45833 0.9732,3.61849 1.4554,3.16015 0.4907,-0.4664 0.9732,3.56219 1.4555,3.0958 0.4906,-0.46638 0.9732,3.50591 1.4635,3.03953 0.4826,-0.46639 0.965,3.44156 1.4555,2.97519 0.4825,-0.46638 0.9648,3.38528 1.4554,2.9189 0.4826,-0.46637 0.9729,3.32096 1.4555,2.85458 0.4826,-0.46638 0.9729,3.26467 1.4554,2.79026 0.4825,-0.4664 0.9729,3.20033 1.4555,2.73395 0.4903,-0.47443 0.9729,3.13601 1.4555,2.66159 0.4903,-0.47441 0.9729,3.0717 1.4635,2.59728 0.4822,-0.47443 0.9648,3.00735 1.4551,2.53293 0.4826,-0.47443 0.9651,2.93499 1.4555,2.46055 0.4826,-0.47442 0.9732,2.87067 1.4555,2.39624 0.4824,-0.47442 0.9731,2.80634 1.4554,2.33192 0.4906,-0.48245 0.9731,2.72592 1.4555,2.25149 0.4906,-0.47443 0.9729,2.66159 1.4553,2.18718 0.4906,-0.47444 0.973,2.58921 1.4636,2.11479 0.4825,-0.48247 0.9649,2.51684 1.4555,2.03439 0.4825,-0.47443 0.9649,2.44448 1.4555,1.97007 0.4824,-0.47444 0.9729,2.37211 1.4553,1.88966 0.4824,-0.47445 0.973,2.29973 1.4555,1.8253 0.4904,-0.48245 0.973,2.21933 1.4554,1.73688 0.4905,-0.47445 0.9729,2.14695 1.4555,1.67254 0.4904,-0.48246 0.9729,2.06656 1.4633,1.59211 0.4825,-0.48245 0.9651,1.9942 1.4555,1.51174 0.4824,-0.48247 0.9729,1.91376 1.4553,1.4313 0.4826,-0.47442 0.973,1.8414 1.4555,1.35893 0.4826,-0.48245 0.973,1.76101 1.4555,1.27855 0.4906,-0.48248 0.973,1.68862 1.4554,1.20616 0.4906,-0.48249 0.9729,1.60016 1.4555,1.1177 0.4906,-0.48246 0.9729,1.5278 1.4635,1.0373 0.4824,-0.48247 0.9648,1.44738 1.4554,0.96492 0.4823,-0.48246 0.9729,1.36698 1.4555,0.87648 0.4823,-0.48247 0.9729,1.28657 1.4555,0.8041 0.4822,-0.48246 0.9728,1.19812 1.4554,0.71565 0.4903,-0.48245 0.9729,1.12577 1.4552,0.63525 0.4906,-0.48246 0.9732,1.04534 1.4635,0.55484 0.4826,-0.48247 0.965,0.9569 1.4555,0.47441 0.4825,-0.48245 0.965,0.87648 1.4554,0.39402 0.4826,-0.4905 0.9729,0.78802 1.4555,0.30556 0.4824,-0.48246 0.9729,0.71565 1.4554,0.22515 0.4825,-0.48245 0.9729,0.63525 1.4555,0.14468 0.4903,-0.48247 0.9729,0.5468 1.4555,0.0642 0.4903,-0.48246 0.9728,0.46637 1.4635,-0.024 0.4822,-0.48247 0.9648,0.38598 1.4554,-0.10446 0.4823,-0.48247 0.9648,0.30558 1.4552,-0.18489 0.4826,-0.48248 0.9732,0.2171 1.4555,-0.26536"
       title="sin(3*(x-0.5))"
       id="path9-3" />
    <line
       class="cls-6"
       x1="237.33058"
       y1="225.40305"
       x2="237.33058"
       y2="248.49303"
       id="line8"
       style="fill:#000000;fill-opacity:1;stroke:#000000;stroke-width:4.917;stroke-miterlimit:10;stroke-dasharray:none" />
    <line
       class="cls-6"
       x1="479.59003"
       y1="226.81303"
       x2="479.59003"
       y2="249.90303"
       id="line9"
       style="fill:#000000;fill-opacity:1;stroke:#000000;stroke-width:4.917;stroke-miterlimit:10;stroke-dasharray:none" />
    <line
       class="cls-6"
       x1="237.33058"
       y1="238.12303"
       x2="477.53391"
       y2="238.12303"
       id="line10"
       style="fill:#000000;fill-opacity:1;stroke:#000000;stroke-width:4.917;stroke-miterlimit:10;stroke-dasharray:none" />
    <text
       class="cls-2"
       id="text13"
       style="font-size:60px;font-family:Helvetica, Helvetica;fill:#000000;fill-opacity:1;stroke:none"
       x="236.20892"
       y="182.72304">skew (%)</text>
  </g>
</svg>
